%TF.GenerationSoftware,KiCad,Pcbnew,7.0.5*%
%TF.CreationDate,2023-07-07T20:15:01+07:00*%
%TF.ProjectId,Intership_board,496e7465-7273-4686-9970-5f626f617264,rev?*%
%TF.SameCoordinates,Original*%
%TF.FileFunction,Soldermask,Top*%
%TF.FilePolarity,Negative*%
%FSLAX46Y46*%
G04 Gerber Fmt 4.6, Leading zero omitted, Abs format (unit mm)*
G04 Created by KiCad (PCBNEW 7.0.5) date 2023-07-07 20:15:01*
%MOMM*%
%LPD*%
G01*
G04 APERTURE LIST*
G04 Aperture macros list*
%AMRoundRect*
0 Rectangle with rounded corners*
0 $1 Rounding radius*
0 $2 $3 $4 $5 $6 $7 $8 $9 X,Y pos of 4 corners*
0 Add a 4 corners polygon primitive as box body*
4,1,4,$2,$3,$4,$5,$6,$7,$8,$9,$2,$3,0*
0 Add four circle primitives for the rounded corners*
1,1,$1+$1,$2,$3*
1,1,$1+$1,$4,$5*
1,1,$1+$1,$6,$7*
1,1,$1+$1,$8,$9*
0 Add four rect primitives between the rounded corners*
20,1,$1+$1,$2,$3,$4,$5,0*
20,1,$1+$1,$4,$5,$6,$7,0*
20,1,$1+$1,$6,$7,$8,$9,0*
20,1,$1+$1,$8,$9,$2,$3,0*%
%AMFreePoly0*
4,1,23,0.795921,1.560921,0.810800,1.525000,0.810800,0.825000,0.795921,0.789079,0.792420,0.785890,0.430800,0.486126,0.430800,-0.486126,0.792420,-0.785890,0.810579,-0.820270,0.810800,-0.825000,0.810800,-1.525000,0.795921,-1.560921,0.760000,-1.575800,-0.125000,-1.575800,-0.160921,-1.560921,-0.415921,-1.305921,-0.430800,-1.270000,-0.430800,1.270000,-0.415921,1.305921,-0.160921,1.560921,
-0.125000,1.575800,0.760000,1.575800,0.795921,1.560921,0.795921,1.560921,$1*%
G04 Aperture macros list end*
%ADD10RoundRect,0.250800X0.200000X0.275000X-0.200000X0.275000X-0.200000X-0.275000X0.200000X-0.275000X0*%
%ADD11C,2.201600*%
%ADD12RoundRect,0.050800X-0.500000X0.450000X-0.500000X-0.450000X0.500000X-0.450000X0.500000X0.450000X0*%
%ADD13C,3.101600*%
%ADD14C,2.601600*%
%ADD15C,1.901600*%
%ADD16RoundRect,0.200800X-0.825000X-0.150000X0.825000X-0.150000X0.825000X0.150000X-0.825000X0.150000X0*%
%ADD17RoundRect,0.300800X-0.475000X0.250000X-0.475000X-0.250000X0.475000X-0.250000X0.475000X0.250000X0*%
%ADD18RoundRect,0.050800X0.800000X-0.800000X0.800000X0.800000X-0.800000X0.800000X-0.800000X-0.800000X0*%
%ADD19O,1.701600X1.701600*%
%ADD20RoundRect,0.300800X0.725000X-0.600000X0.725000X0.600000X-0.725000X0.600000X-0.725000X-0.600000X0*%
%ADD21O,2.051600X1.801600*%
%ADD22RoundRect,0.050800X1.300000X-1.300000X1.300000X1.300000X-1.300000X1.300000X-1.300000X-1.300000X0*%
%ADD23C,2.701600*%
%ADD24RoundRect,0.275800X-0.225000X-0.250000X0.225000X-0.250000X0.225000X0.250000X-0.225000X0.250000X0*%
%ADD25RoundRect,0.050800X-1.750000X-1.750000X1.750000X-1.750000X1.750000X1.750000X-1.750000X1.750000X0*%
%ADD26RoundRect,0.800800X-0.750000X-1.000000X0.750000X-1.000000X0.750000X1.000000X-0.750000X1.000000X0*%
%ADD27RoundRect,0.925800X-0.875000X-0.875000X0.875000X-0.875000X0.875000X0.875000X-0.875000X0.875000X0*%
%ADD28RoundRect,0.300800X-0.262500X-0.450000X0.262500X-0.450000X0.262500X0.450000X-0.262500X0.450000X0*%
%ADD29RoundRect,0.275800X-0.250000X0.225000X-0.250000X-0.225000X0.250000X-0.225000X0.250000X0.225000X0*%
%ADD30RoundRect,0.300800X0.262500X0.450000X-0.262500X0.450000X-0.262500X-0.450000X0.262500X-0.450000X0*%
%ADD31RoundRect,0.050800X-0.450000X0.750000X-0.450000X-0.750000X0.450000X-0.750000X0.450000X0.750000X0*%
%ADD32RoundRect,0.050800X-0.750000X0.450000X-0.750000X-0.450000X0.750000X-0.450000X0.750000X0.450000X0*%
%ADD33RoundRect,0.050800X-0.450000X0.450000X-0.450000X-0.450000X0.450000X-0.450000X0.450000X0.450000X0*%
%ADD34RoundRect,0.200800X0.587500X0.150000X-0.587500X0.150000X-0.587500X-0.150000X0.587500X-0.150000X0*%
%ADD35RoundRect,0.300800X0.600000X-0.400000X0.600000X0.400000X-0.600000X0.400000X-0.600000X-0.400000X0*%
%ADD36RoundRect,0.300800X0.412500X0.925000X-0.412500X0.925000X-0.412500X-0.925000X0.412500X-0.925000X0*%
%ADD37RoundRect,0.300800X0.450000X-0.262500X0.450000X0.262500X-0.450000X0.262500X-0.450000X-0.262500X0*%
%ADD38RoundRect,0.300800X-2.050000X-0.300000X2.050000X-0.300000X2.050000X0.300000X-2.050000X0.300000X0*%
%ADD39RoundRect,0.300802X-4.449998X-5.149998X4.449998X-5.149998X4.449998X5.149998X-4.449998X5.149998X0*%
%ADD40FreePoly0,180.000000*%
%ADD41FreePoly0,0.000000*%
%ADD42RoundRect,0.300800X-1.450000X0.400000X-1.450000X-0.400000X1.450000X-0.400000X1.450000X0.400000X0*%
%ADD43RoundRect,0.300800X-0.250000X-0.475000X0.250000X-0.475000X0.250000X0.475000X-0.250000X0.475000X0*%
%ADD44RoundRect,0.300800X0.475000X-0.250000X0.475000X0.250000X-0.475000X0.250000X-0.475000X-0.250000X0*%
%ADD45RoundRect,0.294550X-0.456250X0.243750X-0.456250X-0.243750X0.456250X-0.243750X0.456250X0.243750X0*%
%ADD46C,2.101600*%
%ADD47RoundRect,0.250800X-0.200000X-0.275000X0.200000X-0.275000X0.200000X0.275000X-0.200000X0.275000X0*%
%ADD48O,0.901600X0.901600*%
%ADD49RoundRect,0.050800X-0.225000X-0.650000X0.225000X-0.650000X0.225000X0.650000X-0.225000X0.650000X0*%
%ADD50O,1.251600X1.901600*%
%ADD51O,1.551600X2.101600*%
%ADD52RoundRect,0.300800X0.250000X0.475000X-0.250000X0.475000X-0.250000X-0.475000X0.250000X-0.475000X0*%
%ADD53RoundRect,0.200800X0.150000X-0.587500X0.150000X0.587500X-0.150000X0.587500X-0.150000X-0.587500X0*%
%ADD54RoundRect,0.050800X0.500000X-0.450000X0.500000X0.450000X-0.500000X0.450000X-0.500000X-0.450000X0*%
%ADD55RoundRect,0.050800X-1.000000X-0.750000X1.000000X-0.750000X1.000000X0.750000X-1.000000X0.750000X0*%
%ADD56RoundRect,0.050800X-1.000000X-1.900000X1.000000X-1.900000X1.000000X1.900000X-1.000000X1.900000X0*%
%ADD57RoundRect,0.300800X-0.650000X1.000000X-0.650000X-1.000000X0.650000X-1.000000X0.650000X1.000000X0*%
%ADD58RoundRect,0.200800X-0.150000X0.512500X-0.150000X-0.512500X0.150000X-0.512500X0.150000X0.512500X0*%
%ADD59RoundRect,0.050800X-1.300000X-2.250000X1.300000X-2.250000X1.300000X2.250000X-1.300000X2.250000X0*%
%ADD60RoundRect,0.200800X0.825000X0.150000X-0.825000X0.150000X-0.825000X-0.150000X0.825000X-0.150000X0*%
%ADD61RoundRect,0.250800X-0.275000X0.200000X-0.275000X-0.200000X0.275000X-0.200000X0.275000X0.200000X0*%
%ADD62RoundRect,0.200800X-0.150000X0.587500X-0.150000X-0.587500X0.150000X-0.587500X0.150000X0.587500X0*%
%ADD63RoundRect,0.250800X0.275000X-0.200000X0.275000X0.200000X-0.275000X0.200000X-0.275000X-0.200000X0*%
%ADD64RoundRect,0.050800X-1.000000X-1.000000X1.000000X-1.000000X1.000000X1.000000X-1.000000X1.000000X0*%
%ADD65RoundRect,0.300800X-1.000000X1.950000X-1.000000X-1.950000X1.000000X-1.950000X1.000000X1.950000X0*%
%ADD66RoundRect,0.300800X-1.950000X-1.000000X1.950000X-1.000000X1.950000X1.000000X-1.950000X1.000000X0*%
G04 APERTURE END LIST*
D10*
%TO.C,R5*%
X81573800Y-118379368D03*
X79923800Y-118379368D03*
%TD*%
D11*
%TO.C,H4*%
X46027000Y-144907000D03*
%TD*%
%TO.C,H3*%
X96901000Y-144907000D03*
%TD*%
D12*
%TO.C,EN*%
X97843000Y-87736368D03*
X97843000Y-91836368D03*
X96243000Y-87736368D03*
X96243000Y-91836368D03*
%TD*%
D13*
%TO.C,K3*%
X58046000Y-129056368D03*
D14*
X51996000Y-131006368D03*
D13*
X51996000Y-143206368D03*
X64046000Y-143256368D03*
D14*
X63996000Y-131006368D03*
%TD*%
D15*
%TO.C,RV2*%
X43786000Y-119275368D03*
X48186000Y-111775368D03*
%TD*%
D16*
%TO.C,ACS712*%
X51553000Y-75326368D03*
X51553000Y-76596368D03*
X51553000Y-77866368D03*
X51553000Y-79136368D03*
X56503000Y-79136368D03*
X56503000Y-77866368D03*
X56503000Y-76596368D03*
X56503000Y-75326368D03*
%TD*%
D17*
%TO.C,C2*%
X47805000Y-63187368D03*
X47805000Y-65087368D03*
%TD*%
D18*
%TO.C,U6*%
X67612000Y-96144368D03*
D19*
X70152000Y-96144368D03*
X70152000Y-88524368D03*
X67612000Y-88524368D03*
%TD*%
D20*
%TO.C,J2*%
X96319000Y-134582368D03*
D21*
X96319000Y-132082368D03*
X96319000Y-129582368D03*
X96319000Y-127082368D03*
%TD*%
D22*
%TO.C,J7*%
X33708000Y-142128368D03*
D23*
X33708000Y-132608368D03*
%TD*%
D13*
%TO.C,K2*%
X58046000Y-109063368D03*
D14*
X51996000Y-111013368D03*
D13*
X51996000Y-123213368D03*
X64046000Y-123263368D03*
D14*
X63996000Y-111013368D03*
%TD*%
D13*
%TO.C,K1*%
X58046000Y-88997368D03*
D14*
X51996000Y-90947368D03*
D13*
X51996000Y-103147368D03*
X64046000Y-103197368D03*
D14*
X63996000Y-90947368D03*
%TD*%
D24*
%TO.C,C10*%
X96814000Y-93728368D03*
X98364000Y-93728368D03*
%TD*%
D20*
%TO.C,J3*%
X75318000Y-100392368D03*
D21*
X75318000Y-97892368D03*
X75318000Y-95392368D03*
X75318000Y-92892368D03*
X75318000Y-90392368D03*
%TD*%
D17*
%TO.C,C17*%
X59184200Y-71658568D03*
X59184200Y-73558568D03*
%TD*%
D15*
%TO.C,RV3*%
X43786000Y-139274368D03*
X48186000Y-131774368D03*
%TD*%
D25*
%TO.C,12V*%
X42629000Y-60258868D03*
D26*
X36629000Y-60258868D03*
D27*
X39629000Y-64958868D03*
%TD*%
D28*
%TO.C,R15*%
X66831500Y-118379368D03*
X68656500Y-118379368D03*
%TD*%
D29*
%TO.C,C20*%
X60835200Y-80723568D03*
X60835200Y-82273568D03*
%TD*%
D30*
%TO.C,R19*%
X64616000Y-76596368D03*
X62791000Y-76596368D03*
%TD*%
D31*
%TO.C,ESP32*%
X98097000Y-97437368D03*
X96827000Y-97437368D03*
X95557000Y-97437368D03*
X94287000Y-97437368D03*
X93017000Y-97437368D03*
X91747000Y-97437368D03*
X90477000Y-97437368D03*
X89207000Y-97437368D03*
X87937000Y-97437368D03*
X86667000Y-97437368D03*
X85397000Y-97437368D03*
X84127000Y-97437368D03*
X82857000Y-97437368D03*
X81587000Y-97437368D03*
D32*
X80337000Y-100472368D03*
X80337000Y-101742368D03*
X80337000Y-103012368D03*
X80337000Y-104282368D03*
X80337000Y-105552368D03*
X80337000Y-106822368D03*
X80337000Y-108092368D03*
X80337000Y-109362368D03*
X80337000Y-110632368D03*
X80337000Y-111902368D03*
D31*
X81587000Y-114937368D03*
X82857000Y-114937368D03*
X84127000Y-114937368D03*
X85397000Y-114937368D03*
X86667000Y-114937368D03*
X87937000Y-114937368D03*
X89207000Y-114937368D03*
X90477000Y-114937368D03*
X91747000Y-114937368D03*
X93017000Y-114937368D03*
X94287000Y-114937368D03*
X95557000Y-114937368D03*
X96827000Y-114937368D03*
X98097000Y-114937368D03*
D33*
X91777000Y-103287368D03*
X91777000Y-104687368D03*
X91777000Y-106087368D03*
X90377000Y-103287368D03*
X90377000Y-104687368D03*
X90377000Y-106087368D03*
X88977000Y-103287368D03*
X88977000Y-104687368D03*
X88977000Y-106087368D03*
%TD*%
D24*
%TO.C,C11*%
X96814000Y-95379368D03*
X98364000Y-95379368D03*
%TD*%
D22*
%TO.C,J5*%
X33708000Y-101996368D03*
D23*
X33708000Y-92476368D03*
%TD*%
D34*
%TO.C,Q5*%
X68857000Y-142189368D03*
X68857000Y-140289368D03*
X66982000Y-141239368D03*
%TD*%
D28*
%TO.C,R13*%
X66704500Y-98186368D03*
X68529500Y-98186368D03*
%TD*%
D18*
%TO.C,U8*%
X67612000Y-136276368D03*
D19*
X70152000Y-136276368D03*
X70152000Y-128656368D03*
X67612000Y-128656368D03*
%TD*%
D35*
%TO.C,D7*%
X63045000Y-82283368D03*
X63045000Y-78783368D03*
%TD*%
D36*
%TO.C,C6*%
X78171500Y-79898368D03*
X75096500Y-79898368D03*
%TD*%
D37*
%TO.C,R1*%
X96827000Y-65951868D03*
X96827000Y-64126868D03*
%TD*%
D38*
%TO.C,LM2596*%
X81333000Y-57673368D03*
X81333000Y-59373368D03*
X81333000Y-61073368D03*
D39*
X90483000Y-61073368D03*
D38*
X81333000Y-62773368D03*
X81333000Y-64473368D03*
%TD*%
D28*
%TO.C,R18*%
X58957500Y-76596368D03*
X60782500Y-76596368D03*
%TD*%
D40*
%TO.C,L2*%
X82730000Y-79898368D03*
D41*
X80190000Y-79898368D03*
%TD*%
D34*
%TO.C,Q4*%
X68857000Y-122057368D03*
X68857000Y-120157368D03*
X66982000Y-121107368D03*
%TD*%
D11*
%TO.C,H2*%
X97282000Y-53848000D03*
%TD*%
D24*
%TO.C,C15*%
X83479000Y-135003368D03*
X85029000Y-135003368D03*
%TD*%
D42*
%TO.C,F1*%
X46916000Y-56832368D03*
X46916000Y-61282368D03*
%TD*%
D43*
%TO.C,C9*%
X92194000Y-86883368D03*
X94094000Y-86883368D03*
%TD*%
D44*
%TO.C,C4*%
X77015000Y-57607368D03*
X77015000Y-55707368D03*
%TD*%
D18*
%TO.C,U7*%
X67612000Y-116210368D03*
D19*
X70152000Y-116210368D03*
X70152000Y-108590368D03*
X67612000Y-108590368D03*
%TD*%
D11*
%TO.C,H1*%
X30988000Y-53848000D03*
%TD*%
D15*
%TO.C,RV4*%
X48354000Y-75246368D03*
X43954000Y-82746368D03*
%TD*%
D29*
%TO.C,C19*%
X54561400Y-72011368D03*
X54561400Y-73561368D03*
%TD*%
D45*
%TO.C,D3*%
X97081000Y-79214868D03*
X97081000Y-81089868D03*
%TD*%
D46*
%TO.C,12V*%
X71300000Y-53609368D03*
%TD*%
D10*
%TO.C,R10*%
X82031000Y-132844368D03*
X80381000Y-132844368D03*
%TD*%
D22*
%TO.C,220V/AC*%
X33708000Y-81930368D03*
D23*
X33708000Y-72410368D03*
%TD*%
D46*
%TO.C,3.3V*%
X82857000Y-86629368D03*
%TD*%
D15*
%TO.C,RV1*%
X43786000Y-99209368D03*
X48186000Y-91709368D03*
%TD*%
D47*
%TO.C,R11*%
X80635000Y-123446368D03*
X82285000Y-123446368D03*
%TD*%
D48*
%TO.C,5V*%
X85245000Y-141905368D03*
X90245000Y-141905368D03*
D49*
X86445000Y-140805368D03*
X87095000Y-140805368D03*
X87745000Y-140805368D03*
X88395000Y-140805368D03*
X89045000Y-140805368D03*
D50*
X83870000Y-144655368D03*
D51*
X84020000Y-140855368D03*
X91470000Y-140855368D03*
D50*
X91620000Y-144655368D03*
%TD*%
D29*
%TO.C,C18*%
X56496000Y-72025368D03*
X56496000Y-73575368D03*
%TD*%
D52*
%TO.C,C8*%
X90080800Y-86883368D03*
X88180800Y-86883368D03*
%TD*%
D28*
%TO.C,R17*%
X66831500Y-138445368D03*
X68656500Y-138445368D03*
%TD*%
D53*
%TO.C,Q1*%
X80383000Y-131066368D03*
X82283000Y-131066368D03*
X81333000Y-129191368D03*
%TD*%
D37*
%TO.C,R2*%
X97081000Y-84874868D03*
X97081000Y-83049868D03*
%TD*%
D54*
%TO.C,BOOT*%
X96370000Y-123192368D03*
X96370000Y-119092368D03*
X97970000Y-123192368D03*
X97970000Y-119092368D03*
%TD*%
D24*
%TO.C,C13*%
X96382200Y-117439568D03*
X97932200Y-117439568D03*
%TD*%
D55*
%TO.C,LM1117*%
X88318000Y-79771368D03*
X88318000Y-82071368D03*
D56*
X94618000Y-82071368D03*
D55*
X88318000Y-84371368D03*
%TD*%
D57*
%TO.C,D1*%
X73332000Y-61375368D03*
X73332000Y-65375368D03*
%TD*%
D58*
%TO.C,USBLC6*%
X88887000Y-134894868D03*
X87937000Y-134894868D03*
X86987000Y-134894868D03*
X86987000Y-137169868D03*
X87937000Y-137169868D03*
X88887000Y-137169868D03*
%TD*%
D59*
%TO.C,L1*%
X75682000Y-72659368D03*
X83682000Y-72659368D03*
%TD*%
D30*
%TO.C,R20*%
X60782500Y-78882368D03*
X58957500Y-78882368D03*
%TD*%
D44*
%TO.C,C7*%
X85397000Y-84404368D03*
X85397000Y-82504368D03*
%TD*%
D60*
%TO.C,CH340C*%
X89969000Y-132792368D03*
X89969000Y-131522368D03*
X89969000Y-130252368D03*
X89969000Y-128982368D03*
X89969000Y-127712368D03*
X89969000Y-126442368D03*
X89969000Y-125172368D03*
X89969000Y-123902368D03*
X85019000Y-123902368D03*
X85019000Y-125172368D03*
X85019000Y-126442368D03*
X85019000Y-127712368D03*
X85019000Y-128982368D03*
X85019000Y-130252368D03*
X85019000Y-131522368D03*
X85019000Y-132792368D03*
%TD*%
D45*
%TO.C,D2*%
X96827000Y-60164868D03*
X96827000Y-62039868D03*
%TD*%
D61*
%TO.C,R3*%
X93626600Y-91836368D03*
X93626600Y-93486368D03*
%TD*%
D62*
%TO.C,Q2*%
X82283000Y-125254368D03*
X80383000Y-125254368D03*
X81333000Y-127129368D03*
%TD*%
D63*
%TO.C,R4*%
X93626600Y-90324568D03*
X93626600Y-88674568D03*
%TD*%
D64*
%TO.C,GND*%
X37460000Y-53770000D03*
%TD*%
D65*
%TO.C,C3*%
X65839000Y-57778368D03*
X65839000Y-66178368D03*
%TD*%
D46*
%TO.C,5V*%
X80952000Y-140858368D03*
%TD*%
D66*
%TO.C,C5*%
X87928000Y-72786368D03*
X96328000Y-72786368D03*
%TD*%
D34*
%TO.C,Q3*%
X68857000Y-102057368D03*
X68857000Y-100157368D03*
X66982000Y-101107368D03*
%TD*%
D46*
%TO.C,5V*%
X71808000Y-81930368D03*
%TD*%
D22*
%TO.C,J6*%
X33708000Y-122062368D03*
D23*
X33708000Y-112542368D03*
%TD*%
D43*
%TO.C,C14*%
X83100800Y-137099168D03*
X85000800Y-137099168D03*
%TD*%
D29*
%TO.C,C21*%
X87962400Y-93525168D03*
X87962400Y-95075168D03*
%TD*%
D65*
%TO.C,C1*%
X54536000Y-57778368D03*
X54536000Y-66178368D03*
%TD*%
M02*
