%TF.GenerationSoftware,KiCad,Pcbnew,7.0.5*%
%TF.CreationDate,2023-07-07T20:15:01+07:00*%
%TF.ProjectId,Intership_board,496e7465-7273-4686-9970-5f626f617264,rev?*%
%TF.SameCoordinates,Original*%
%TF.FileFunction,Paste,Top*%
%TF.FilePolarity,Positive*%
%FSLAX46Y46*%
G04 Gerber Fmt 4.6, Leading zero omitted, Abs format (unit mm)*
G04 Created by KiCad (PCBNEW 7.0.5) date 2023-07-07 20:15:01*
%MOMM*%
%LPD*%
G01*
G04 APERTURE LIST*
G04 Aperture macros list*
%AMRoundRect*
0 Rectangle with rounded corners*
0 $1 Rounding radius*
0 $2 $3 $4 $5 $6 $7 $8 $9 X,Y pos of 4 corners*
0 Add a 4 corners polygon primitive as box body*
4,1,4,$2,$3,$4,$5,$6,$7,$8,$9,$2,$3,0*
0 Add four circle primitives for the rounded corners*
1,1,$1+$1,$2,$3*
1,1,$1+$1,$4,$5*
1,1,$1+$1,$6,$7*
1,1,$1+$1,$8,$9*
0 Add four rect primitives between the rounded corners*
20,1,$1+$1,$2,$3,$4,$5,0*
20,1,$1+$1,$4,$5,$6,$7,0*
20,1,$1+$1,$6,$7,$8,$9,0*
20,1,$1+$1,$8,$9,$2,$3,0*%
%AMFreePoly0*
4,1,15,0.709200,0.848873,0.347580,0.549110,0.329421,0.514730,0.329200,0.510000,0.329200,-0.510000,0.344079,-0.545921,0.347580,-0.549110,0.709200,-0.848873,0.709200,-1.474200,-0.103958,-1.474200,-0.329200,-1.248958,-0.329200,1.248958,-0.103958,1.474200,0.709200,1.474200,0.709200,0.848873,0.709200,0.848873,$1*%
G04 Aperture macros list end*
%ADD10RoundRect,0.149200X0.200000X0.275000X-0.200000X0.275000X-0.200000X-0.275000X0.200000X-0.275000X0*%
%ADD11R,0.898400X0.798400*%
%ADD12RoundRect,0.099200X-0.825000X-0.150000X0.825000X-0.150000X0.825000X0.150000X-0.825000X0.150000X0*%
%ADD13RoundRect,0.199200X-0.475000X0.250000X-0.475000X-0.250000X0.475000X-0.250000X0.475000X0.250000X0*%
%ADD14RoundRect,0.174200X-0.225000X-0.250000X0.225000X-0.250000X0.225000X0.250000X-0.225000X0.250000X0*%
%ADD15RoundRect,0.199200X-0.262500X-0.450000X0.262500X-0.450000X0.262500X0.450000X-0.262500X0.450000X0*%
%ADD16RoundRect,0.174200X-0.250000X0.225000X-0.250000X-0.225000X0.250000X-0.225000X0.250000X0.225000X0*%
%ADD17RoundRect,0.199200X0.262500X0.450000X-0.262500X0.450000X-0.262500X-0.450000X0.262500X-0.450000X0*%
%ADD18R,0.798400X1.398400*%
%ADD19R,1.398400X0.798400*%
%ADD20R,0.798400X0.798400*%
%ADD21RoundRect,0.099200X0.587500X0.150000X-0.587500X0.150000X-0.587500X-0.150000X0.587500X-0.150000X0*%
%ADD22RoundRect,0.199200X0.600000X-0.400000X0.600000X0.400000X-0.600000X0.400000X-0.600000X-0.400000X0*%
%ADD23RoundRect,0.199200X0.412500X0.925000X-0.412500X0.925000X-0.412500X-0.925000X0.412500X-0.925000X0*%
%ADD24RoundRect,0.199200X0.450000X-0.262500X0.450000X0.262500X-0.450000X0.262500X-0.450000X-0.262500X0*%
%ADD25RoundRect,0.199200X-2.050000X-0.300000X2.050000X-0.300000X2.050000X0.300000X-2.050000X0.300000X0*%
%ADD26RoundRect,0.199200X-2.025000X-2.375000X2.025000X-2.375000X2.025000X2.375000X-2.025000X2.375000X0*%
%ADD27FreePoly0,180.000000*%
%ADD28FreePoly0,0.000000*%
%ADD29RoundRect,0.199200X-1.450000X0.400000X-1.450000X-0.400000X1.450000X-0.400000X1.450000X0.400000X0*%
%ADD30RoundRect,0.199200X-0.250000X-0.475000X0.250000X-0.475000X0.250000X0.475000X-0.250000X0.475000X0*%
%ADD31RoundRect,0.199200X0.475000X-0.250000X0.475000X0.250000X-0.475000X0.250000X-0.475000X-0.250000X0*%
%ADD32RoundRect,0.192950X-0.456250X0.243750X-0.456250X-0.243750X0.456250X-0.243750X0.456250X0.243750X0*%
%ADD33RoundRect,0.149200X-0.200000X-0.275000X0.200000X-0.275000X0.200000X0.275000X-0.200000X0.275000X0*%
%ADD34R,0.348400X1.198400*%
%ADD35RoundRect,0.199200X0.250000X0.475000X-0.250000X0.475000X-0.250000X-0.475000X0.250000X-0.475000X0*%
%ADD36RoundRect,0.099200X0.150000X-0.587500X0.150000X0.587500X-0.150000X0.587500X-0.150000X-0.587500X0*%
%ADD37R,1.898400X1.398400*%
%ADD38R,1.898400X3.698400*%
%ADD39RoundRect,0.199200X-0.650000X1.000000X-0.650000X-1.000000X0.650000X-1.000000X0.650000X1.000000X0*%
%ADD40RoundRect,0.099200X-0.150000X0.512500X-0.150000X-0.512500X0.150000X-0.512500X0.150000X0.512500X0*%
%ADD41R,2.498400X4.398400*%
%ADD42RoundRect,0.099200X0.825000X0.150000X-0.825000X0.150000X-0.825000X-0.150000X0.825000X-0.150000X0*%
%ADD43RoundRect,0.149200X-0.275000X0.200000X-0.275000X-0.200000X0.275000X-0.200000X0.275000X0.200000X0*%
%ADD44RoundRect,0.099200X-0.150000X0.587500X-0.150000X-0.587500X0.150000X-0.587500X0.150000X0.587500X0*%
%ADD45RoundRect,0.149200X0.275000X-0.200000X0.275000X0.200000X-0.275000X0.200000X-0.275000X-0.200000X0*%
%ADD46RoundRect,0.199200X-1.000000X1.950000X-1.000000X-1.950000X1.000000X-1.950000X1.000000X1.950000X0*%
%ADD47RoundRect,0.199200X-1.950000X-1.000000X1.950000X-1.000000X1.950000X1.000000X-1.950000X1.000000X0*%
G04 APERTURE END LIST*
D10*
%TO.C,R5*%
X81573800Y-118379368D03*
X79923800Y-118379368D03*
%TD*%
D11*
%TO.C,EN*%
X97843000Y-87736368D03*
X97843000Y-91836368D03*
X96243000Y-87736368D03*
X96243000Y-91836368D03*
%TD*%
D12*
%TO.C,ACS712*%
X51553000Y-75326368D03*
X51553000Y-76596368D03*
X51553000Y-77866368D03*
X51553000Y-79136368D03*
X56503000Y-79136368D03*
X56503000Y-77866368D03*
X56503000Y-76596368D03*
X56503000Y-75326368D03*
%TD*%
D13*
%TO.C,C2*%
X47805000Y-63187368D03*
X47805000Y-65087368D03*
%TD*%
D14*
%TO.C,C10*%
X96814000Y-93728368D03*
X98364000Y-93728368D03*
%TD*%
D13*
%TO.C,C17*%
X59184200Y-71658568D03*
X59184200Y-73558568D03*
%TD*%
D15*
%TO.C,R15*%
X66831500Y-118379368D03*
X68656500Y-118379368D03*
%TD*%
D16*
%TO.C,C20*%
X60835200Y-80723568D03*
X60835200Y-82273568D03*
%TD*%
D17*
%TO.C,R19*%
X64616000Y-76596368D03*
X62791000Y-76596368D03*
%TD*%
D18*
%TO.C,ESP32*%
X98097000Y-97437368D03*
X96827000Y-97437368D03*
X95557000Y-97437368D03*
X94287000Y-97437368D03*
X93017000Y-97437368D03*
X91747000Y-97437368D03*
X90477000Y-97437368D03*
X89207000Y-97437368D03*
X87937000Y-97437368D03*
X86667000Y-97437368D03*
X85397000Y-97437368D03*
X84127000Y-97437368D03*
X82857000Y-97437368D03*
X81587000Y-97437368D03*
D19*
X80337000Y-100472368D03*
X80337000Y-101742368D03*
X80337000Y-103012368D03*
X80337000Y-104282368D03*
X80337000Y-105552368D03*
X80337000Y-106822368D03*
X80337000Y-108092368D03*
X80337000Y-109362368D03*
X80337000Y-110632368D03*
X80337000Y-111902368D03*
D18*
X81587000Y-114937368D03*
X82857000Y-114937368D03*
X84127000Y-114937368D03*
X85397000Y-114937368D03*
X86667000Y-114937368D03*
X87937000Y-114937368D03*
X89207000Y-114937368D03*
X90477000Y-114937368D03*
X91747000Y-114937368D03*
X93017000Y-114937368D03*
X94287000Y-114937368D03*
X95557000Y-114937368D03*
X96827000Y-114937368D03*
X98097000Y-114937368D03*
D20*
X91777000Y-103287368D03*
X91777000Y-104687368D03*
X91777000Y-106087368D03*
X90377000Y-103287368D03*
X90377000Y-104687368D03*
X90377000Y-106087368D03*
X88977000Y-103287368D03*
X88977000Y-104687368D03*
X88977000Y-106087368D03*
%TD*%
D14*
%TO.C,C11*%
X96814000Y-95379368D03*
X98364000Y-95379368D03*
%TD*%
D21*
%TO.C,Q5*%
X68857000Y-142189368D03*
X68857000Y-140289368D03*
X66982000Y-141239368D03*
%TD*%
D15*
%TO.C,R13*%
X66704500Y-98186368D03*
X68529500Y-98186368D03*
%TD*%
D22*
%TO.C,D7*%
X63045000Y-82283368D03*
X63045000Y-78783368D03*
%TD*%
D23*
%TO.C,C6*%
X78171500Y-79898368D03*
X75096500Y-79898368D03*
%TD*%
D24*
%TO.C,R1*%
X96827000Y-65951868D03*
X96827000Y-64126868D03*
%TD*%
D25*
%TO.C,LM2596*%
X81333000Y-57673368D03*
X81333000Y-59373368D03*
X81333000Y-61073368D03*
D26*
X88058000Y-58298368D03*
X88058000Y-63848368D03*
X92908000Y-58298368D03*
X92908000Y-63848368D03*
D25*
X81333000Y-62773368D03*
X81333000Y-64473368D03*
%TD*%
D15*
%TO.C,R18*%
X58957500Y-76596368D03*
X60782500Y-76596368D03*
%TD*%
D27*
%TO.C,L2*%
X82730000Y-79898368D03*
D28*
X80190000Y-79898368D03*
%TD*%
D21*
%TO.C,Q4*%
X68857000Y-122057368D03*
X68857000Y-120157368D03*
X66982000Y-121107368D03*
%TD*%
D14*
%TO.C,C15*%
X83479000Y-135003368D03*
X85029000Y-135003368D03*
%TD*%
D29*
%TO.C,F1*%
X46916000Y-56832368D03*
X46916000Y-61282368D03*
%TD*%
D30*
%TO.C,C9*%
X92194000Y-86883368D03*
X94094000Y-86883368D03*
%TD*%
D31*
%TO.C,C4*%
X77015000Y-57607368D03*
X77015000Y-55707368D03*
%TD*%
D16*
%TO.C,C19*%
X54561400Y-72011368D03*
X54561400Y-73561368D03*
%TD*%
D32*
%TO.C,D3*%
X97081000Y-79214868D03*
X97081000Y-81089868D03*
%TD*%
D10*
%TO.C,R10*%
X82031000Y-132844368D03*
X80381000Y-132844368D03*
%TD*%
D33*
%TO.C,R11*%
X80635000Y-123446368D03*
X82285000Y-123446368D03*
%TD*%
D34*
%TO.C,5V*%
X86445000Y-140805368D03*
X87095000Y-140805368D03*
X87745000Y-140805368D03*
X88395000Y-140805368D03*
X89045000Y-140805368D03*
%TD*%
D16*
%TO.C,C18*%
X56496000Y-72025368D03*
X56496000Y-73575368D03*
%TD*%
D35*
%TO.C,C8*%
X90080800Y-86883368D03*
X88180800Y-86883368D03*
%TD*%
D15*
%TO.C,R17*%
X66831500Y-138445368D03*
X68656500Y-138445368D03*
%TD*%
D36*
%TO.C,Q1*%
X80383000Y-131066368D03*
X82283000Y-131066368D03*
X81333000Y-129191368D03*
%TD*%
D24*
%TO.C,R2*%
X97081000Y-84874868D03*
X97081000Y-83049868D03*
%TD*%
D11*
%TO.C,BOOT*%
X96370000Y-123192368D03*
X96370000Y-119092368D03*
X97970000Y-123192368D03*
X97970000Y-119092368D03*
%TD*%
D14*
%TO.C,C13*%
X96382200Y-117439568D03*
%TD*%
D37*
%TO.C,LM1117*%
X88318000Y-79771368D03*
X88318000Y-82071368D03*
D38*
X94618000Y-82071368D03*
D37*
X88318000Y-84371368D03*
%TD*%
D39*
%TO.C,D1*%
X73332000Y-61375368D03*
X73332000Y-65375368D03*
%TD*%
D40*
%TO.C,USBLC6*%
X88887000Y-134894868D03*
X87937000Y-134894868D03*
X86987000Y-134894868D03*
X86987000Y-137169868D03*
X87937000Y-137169868D03*
X88887000Y-137169868D03*
%TD*%
D41*
%TO.C,L1*%
X75682000Y-72659368D03*
X83682000Y-72659368D03*
%TD*%
D17*
%TO.C,R20*%
X60782500Y-78882368D03*
X58957500Y-78882368D03*
%TD*%
D31*
%TO.C,C7*%
X85397000Y-84404368D03*
X85397000Y-82504368D03*
%TD*%
D42*
%TO.C,CH340C*%
X89969000Y-132792368D03*
X89969000Y-131522368D03*
X89969000Y-130252368D03*
X89969000Y-128982368D03*
X89969000Y-127712368D03*
X89969000Y-126442368D03*
X89969000Y-125172368D03*
X89969000Y-123902368D03*
X85019000Y-123902368D03*
X85019000Y-125172368D03*
X85019000Y-126442368D03*
X85019000Y-127712368D03*
X85019000Y-128982368D03*
X85019000Y-130252368D03*
X85019000Y-131522368D03*
X85019000Y-132792368D03*
%TD*%
D32*
%TO.C,D2*%
X96827000Y-60164868D03*
X96827000Y-62039868D03*
%TD*%
D43*
%TO.C,R3*%
X93626600Y-91836368D03*
X93626600Y-93486368D03*
%TD*%
D44*
%TO.C,Q2*%
X82283000Y-125254368D03*
X80383000Y-125254368D03*
X81333000Y-127129368D03*
%TD*%
D45*
%TO.C,R4*%
X93626600Y-90324568D03*
X93626600Y-88674568D03*
%TD*%
D46*
%TO.C,C3*%
X65839000Y-57778368D03*
X65839000Y-66178368D03*
%TD*%
D47*
%TO.C,C5*%
X87928000Y-72786368D03*
X96328000Y-72786368D03*
%TD*%
D21*
%TO.C,Q3*%
X68857000Y-102057368D03*
X68857000Y-100157368D03*
X66982000Y-101107368D03*
%TD*%
D30*
%TO.C,C14*%
X83100800Y-137099168D03*
X85000800Y-137099168D03*
%TD*%
D16*
%TO.C,C21*%
X87962400Y-93525168D03*
X87962400Y-95075168D03*
%TD*%
D46*
%TO.C,C1*%
X54536000Y-57778368D03*
X54536000Y-66178368D03*
%TD*%
M02*
