%TF.GenerationSoftware,KiCad,Pcbnew,7.0.5*%
%TF.CreationDate,2023-07-07T20:15:01+07:00*%
%TF.ProjectId,Intership_board,496e7465-7273-4686-9970-5f626f617264,rev?*%
%TF.SameCoordinates,Original*%
%TF.FileFunction,Other,Comment*%
%FSLAX46Y46*%
G04 Gerber Fmt 4.6, Leading zero omitted, Abs format (unit mm)*
G04 Created by KiCad (PCBNEW 7.0.5) date 2023-07-07 20:15:01*
%MOMM*%
%LPD*%
G01*
G04 APERTURE LIST*
%ADD10C,0.500000*%
%ADD11C,1.250000*%
%ADD12C,0.150000*%
G04 APERTURE END LIST*
D10*
X113215804Y-56748857D02*
X111787232Y-56748857D01*
X111787232Y-56748857D02*
X111787232Y-53748857D01*
X115501518Y-56748857D02*
X115501518Y-55177428D01*
X115501518Y-55177428D02*
X115358660Y-54891714D01*
X115358660Y-54891714D02*
X115072946Y-54748857D01*
X115072946Y-54748857D02*
X114501518Y-54748857D01*
X114501518Y-54748857D02*
X114215803Y-54891714D01*
X115501518Y-56606000D02*
X115215803Y-56748857D01*
X115215803Y-56748857D02*
X114501518Y-56748857D01*
X114501518Y-56748857D02*
X114215803Y-56606000D01*
X114215803Y-56606000D02*
X114072946Y-56320285D01*
X114072946Y-56320285D02*
X114072946Y-56034571D01*
X114072946Y-56034571D02*
X114215803Y-55748857D01*
X114215803Y-55748857D02*
X114501518Y-55606000D01*
X114501518Y-55606000D02*
X115215803Y-55606000D01*
X115215803Y-55606000D02*
X115501518Y-55463142D01*
X116644375Y-54748857D02*
X117358661Y-56748857D01*
X118072946Y-54748857D02*
X117358661Y-56748857D01*
X117358661Y-56748857D02*
X117072946Y-57463142D01*
X117072946Y-57463142D02*
X116930089Y-57606000D01*
X116930089Y-57606000D02*
X116644375Y-57748857D01*
X120358660Y-56606000D02*
X120072946Y-56748857D01*
X120072946Y-56748857D02*
X119501518Y-56748857D01*
X119501518Y-56748857D02*
X119215803Y-56606000D01*
X119215803Y-56606000D02*
X119072946Y-56320285D01*
X119072946Y-56320285D02*
X119072946Y-55177428D01*
X119072946Y-55177428D02*
X119215803Y-54891714D01*
X119215803Y-54891714D02*
X119501518Y-54748857D01*
X119501518Y-54748857D02*
X120072946Y-54748857D01*
X120072946Y-54748857D02*
X120358660Y-54891714D01*
X120358660Y-54891714D02*
X120501518Y-55177428D01*
X120501518Y-55177428D02*
X120501518Y-55463142D01*
X120501518Y-55463142D02*
X119072946Y-55748857D01*
X121787232Y-56748857D02*
X121787232Y-54748857D01*
X121787232Y-55320285D02*
X121930089Y-55034571D01*
X121930089Y-55034571D02*
X122072947Y-54891714D01*
X122072947Y-54891714D02*
X122358661Y-54748857D01*
X122358661Y-54748857D02*
X122644375Y-54748857D01*
X125787232Y-56606000D02*
X126072946Y-56748857D01*
X126072946Y-56748857D02*
X126644375Y-56748857D01*
X126644375Y-56748857D02*
X126930089Y-56606000D01*
X126930089Y-56606000D02*
X127072946Y-56320285D01*
X127072946Y-56320285D02*
X127072946Y-56177428D01*
X127072946Y-56177428D02*
X126930089Y-55891714D01*
X126930089Y-55891714D02*
X126644375Y-55748857D01*
X126644375Y-55748857D02*
X126215804Y-55748857D01*
X126215804Y-55748857D02*
X125930089Y-55606000D01*
X125930089Y-55606000D02*
X125787232Y-55320285D01*
X125787232Y-55320285D02*
X125787232Y-55177428D01*
X125787232Y-55177428D02*
X125930089Y-54891714D01*
X125930089Y-54891714D02*
X126215804Y-54748857D01*
X126215804Y-54748857D02*
X126644375Y-54748857D01*
X126644375Y-54748857D02*
X126930089Y-54891714D01*
X127930089Y-54748857D02*
X129072946Y-54748857D01*
X128358660Y-53748857D02*
X128358660Y-56320285D01*
X128358660Y-56320285D02*
X128501517Y-56606000D01*
X128501517Y-56606000D02*
X128787232Y-56748857D01*
X128787232Y-56748857D02*
X129072946Y-56748857D01*
X131358661Y-56748857D02*
X131358661Y-55177428D01*
X131358661Y-55177428D02*
X131215803Y-54891714D01*
X131215803Y-54891714D02*
X130930089Y-54748857D01*
X130930089Y-54748857D02*
X130358661Y-54748857D01*
X130358661Y-54748857D02*
X130072946Y-54891714D01*
X131358661Y-56606000D02*
X131072946Y-56748857D01*
X131072946Y-56748857D02*
X130358661Y-56748857D01*
X130358661Y-56748857D02*
X130072946Y-56606000D01*
X130072946Y-56606000D02*
X129930089Y-56320285D01*
X129930089Y-56320285D02*
X129930089Y-56034571D01*
X129930089Y-56034571D02*
X130072946Y-55748857D01*
X130072946Y-55748857D02*
X130358661Y-55606000D01*
X130358661Y-55606000D02*
X131072946Y-55606000D01*
X131072946Y-55606000D02*
X131358661Y-55463142D01*
X134072947Y-56606000D02*
X133787232Y-56748857D01*
X133787232Y-56748857D02*
X133215804Y-56748857D01*
X133215804Y-56748857D02*
X132930089Y-56606000D01*
X132930089Y-56606000D02*
X132787232Y-56463142D01*
X132787232Y-56463142D02*
X132644375Y-56177428D01*
X132644375Y-56177428D02*
X132644375Y-55320285D01*
X132644375Y-55320285D02*
X132787232Y-55034571D01*
X132787232Y-55034571D02*
X132930089Y-54891714D01*
X132930089Y-54891714D02*
X133215804Y-54748857D01*
X133215804Y-54748857D02*
X133787232Y-54748857D01*
X133787232Y-54748857D02*
X134072947Y-54891714D01*
X135358661Y-56748857D02*
X135358661Y-53748857D01*
X135644376Y-55606000D02*
X136501518Y-56748857D01*
X136501518Y-54748857D02*
X135358661Y-55891714D01*
X139072947Y-54748857D02*
X139072947Y-56748857D01*
X137787232Y-54748857D02*
X137787232Y-56320285D01*
X137787232Y-56320285D02*
X137930089Y-56606000D01*
X137930089Y-56606000D02*
X138215804Y-56748857D01*
X138215804Y-56748857D02*
X138644375Y-56748857D01*
X138644375Y-56748857D02*
X138930089Y-56606000D01*
X138930089Y-56606000D02*
X139072947Y-56463142D01*
X140501518Y-54748857D02*
X140501518Y-57748857D01*
X140501518Y-54891714D02*
X140787233Y-54748857D01*
X140787233Y-54748857D02*
X141358661Y-54748857D01*
X141358661Y-54748857D02*
X141644375Y-54891714D01*
X141644375Y-54891714D02*
X141787233Y-55034571D01*
X141787233Y-55034571D02*
X141930090Y-55320285D01*
X141930090Y-55320285D02*
X141930090Y-56177428D01*
X141930090Y-56177428D02*
X141787233Y-56463142D01*
X141787233Y-56463142D02*
X141644375Y-56606000D01*
X141644375Y-56606000D02*
X141358661Y-56748857D01*
X141358661Y-56748857D02*
X140787233Y-56748857D01*
X140787233Y-56748857D02*
X140501518Y-56606000D01*
X143215804Y-56463142D02*
X143358661Y-56606000D01*
X143358661Y-56606000D02*
X143215804Y-56748857D01*
X143215804Y-56748857D02*
X143072947Y-56606000D01*
X143072947Y-56606000D02*
X143215804Y-56463142D01*
X143215804Y-56463142D02*
X143215804Y-56748857D01*
X143215804Y-54891714D02*
X143358661Y-55034571D01*
X143358661Y-55034571D02*
X143215804Y-55177428D01*
X143215804Y-55177428D02*
X143072947Y-55034571D01*
X143072947Y-55034571D02*
X143215804Y-54891714D01*
X143215804Y-54891714D02*
X143215804Y-55177428D01*
X113358661Y-61578857D02*
X111644375Y-61578857D01*
X112501518Y-61578857D02*
X112501518Y-58578857D01*
X112501518Y-58578857D02*
X112215804Y-59007428D01*
X112215804Y-59007428D02*
X111930089Y-59293142D01*
X111930089Y-59293142D02*
X111644375Y-59436000D01*
X114644375Y-61293142D02*
X114787232Y-61436000D01*
X114787232Y-61436000D02*
X114644375Y-61578857D01*
X114644375Y-61578857D02*
X114501518Y-61436000D01*
X114501518Y-61436000D02*
X114644375Y-61293142D01*
X114644375Y-61293142D02*
X114644375Y-61578857D01*
X117930089Y-58578857D02*
X119644375Y-58578857D01*
X118787232Y-61578857D02*
X118787232Y-58578857D01*
X121072946Y-61578857D02*
X120787231Y-61436000D01*
X120787231Y-61436000D02*
X120644374Y-61293142D01*
X120644374Y-61293142D02*
X120501517Y-61007428D01*
X120501517Y-61007428D02*
X120501517Y-60150285D01*
X120501517Y-60150285D02*
X120644374Y-59864571D01*
X120644374Y-59864571D02*
X120787231Y-59721714D01*
X120787231Y-59721714D02*
X121072946Y-59578857D01*
X121072946Y-59578857D02*
X121501517Y-59578857D01*
X121501517Y-59578857D02*
X121787231Y-59721714D01*
X121787231Y-59721714D02*
X121930089Y-59864571D01*
X121930089Y-59864571D02*
X122072946Y-60150285D01*
X122072946Y-60150285D02*
X122072946Y-61007428D01*
X122072946Y-61007428D02*
X121930089Y-61293142D01*
X121930089Y-61293142D02*
X121787231Y-61436000D01*
X121787231Y-61436000D02*
X121501517Y-61578857D01*
X121501517Y-61578857D02*
X121072946Y-61578857D01*
X123358660Y-59578857D02*
X123358660Y-62578857D01*
X123358660Y-59721714D02*
X123644375Y-59578857D01*
X123644375Y-59578857D02*
X124215803Y-59578857D01*
X124215803Y-59578857D02*
X124501517Y-59721714D01*
X124501517Y-59721714D02*
X124644375Y-59864571D01*
X124644375Y-59864571D02*
X124787232Y-60150285D01*
X124787232Y-60150285D02*
X124787232Y-61007428D01*
X124787232Y-61007428D02*
X124644375Y-61293142D01*
X124644375Y-61293142D02*
X124501517Y-61436000D01*
X124501517Y-61436000D02*
X124215803Y-61578857D01*
X124215803Y-61578857D02*
X123644375Y-61578857D01*
X123644375Y-61578857D02*
X123358660Y-61436000D01*
X129787232Y-61578857D02*
X128358660Y-61578857D01*
X128358660Y-61578857D02*
X128358660Y-58578857D01*
X132072946Y-61578857D02*
X132072946Y-60007428D01*
X132072946Y-60007428D02*
X131930088Y-59721714D01*
X131930088Y-59721714D02*
X131644374Y-59578857D01*
X131644374Y-59578857D02*
X131072946Y-59578857D01*
X131072946Y-59578857D02*
X130787231Y-59721714D01*
X132072946Y-61436000D02*
X131787231Y-61578857D01*
X131787231Y-61578857D02*
X131072946Y-61578857D01*
X131072946Y-61578857D02*
X130787231Y-61436000D01*
X130787231Y-61436000D02*
X130644374Y-61150285D01*
X130644374Y-61150285D02*
X130644374Y-60864571D01*
X130644374Y-60864571D02*
X130787231Y-60578857D01*
X130787231Y-60578857D02*
X131072946Y-60436000D01*
X131072946Y-60436000D02*
X131787231Y-60436000D01*
X131787231Y-60436000D02*
X132072946Y-60293142D01*
X133215803Y-59578857D02*
X133930089Y-61578857D01*
X134644374Y-59578857D02*
X133930089Y-61578857D01*
X133930089Y-61578857D02*
X133644374Y-62293142D01*
X133644374Y-62293142D02*
X133501517Y-62436000D01*
X133501517Y-62436000D02*
X133215803Y-62578857D01*
X136930088Y-61436000D02*
X136644374Y-61578857D01*
X136644374Y-61578857D02*
X136072946Y-61578857D01*
X136072946Y-61578857D02*
X135787231Y-61436000D01*
X135787231Y-61436000D02*
X135644374Y-61150285D01*
X135644374Y-61150285D02*
X135644374Y-60007428D01*
X135644374Y-60007428D02*
X135787231Y-59721714D01*
X135787231Y-59721714D02*
X136072946Y-59578857D01*
X136072946Y-59578857D02*
X136644374Y-59578857D01*
X136644374Y-59578857D02*
X136930088Y-59721714D01*
X136930088Y-59721714D02*
X137072946Y-60007428D01*
X137072946Y-60007428D02*
X137072946Y-60293142D01*
X137072946Y-60293142D02*
X135644374Y-60578857D01*
X138358660Y-61578857D02*
X138358660Y-59578857D01*
X138358660Y-60150285D02*
X138501517Y-59864571D01*
X138501517Y-59864571D02*
X138644375Y-59721714D01*
X138644375Y-59721714D02*
X138930089Y-59578857D01*
X138930089Y-59578857D02*
X139215803Y-59578857D01*
X111644375Y-63694571D02*
X111787232Y-63551714D01*
X111787232Y-63551714D02*
X112072947Y-63408857D01*
X112072947Y-63408857D02*
X112787232Y-63408857D01*
X112787232Y-63408857D02*
X113072947Y-63551714D01*
X113072947Y-63551714D02*
X113215804Y-63694571D01*
X113215804Y-63694571D02*
X113358661Y-63980285D01*
X113358661Y-63980285D02*
X113358661Y-64266000D01*
X113358661Y-64266000D02*
X113215804Y-64694571D01*
X113215804Y-64694571D02*
X111501518Y-66408857D01*
X111501518Y-66408857D02*
X113358661Y-66408857D01*
X114644375Y-66123142D02*
X114787232Y-66266000D01*
X114787232Y-66266000D02*
X114644375Y-66408857D01*
X114644375Y-66408857D02*
X114501518Y-66266000D01*
X114501518Y-66266000D02*
X114644375Y-66123142D01*
X114644375Y-66123142D02*
X114644375Y-66408857D01*
X119358660Y-64837428D02*
X119787232Y-64980285D01*
X119787232Y-64980285D02*
X119930089Y-65123142D01*
X119930089Y-65123142D02*
X120072946Y-65408857D01*
X120072946Y-65408857D02*
X120072946Y-65837428D01*
X120072946Y-65837428D02*
X119930089Y-66123142D01*
X119930089Y-66123142D02*
X119787232Y-66266000D01*
X119787232Y-66266000D02*
X119501517Y-66408857D01*
X119501517Y-66408857D02*
X118358660Y-66408857D01*
X118358660Y-66408857D02*
X118358660Y-63408857D01*
X118358660Y-63408857D02*
X119358660Y-63408857D01*
X119358660Y-63408857D02*
X119644375Y-63551714D01*
X119644375Y-63551714D02*
X119787232Y-63694571D01*
X119787232Y-63694571D02*
X119930089Y-63980285D01*
X119930089Y-63980285D02*
X119930089Y-64266000D01*
X119930089Y-64266000D02*
X119787232Y-64551714D01*
X119787232Y-64551714D02*
X119644375Y-64694571D01*
X119644375Y-64694571D02*
X119358660Y-64837428D01*
X119358660Y-64837428D02*
X118358660Y-64837428D01*
X121787232Y-66408857D02*
X121501517Y-66266000D01*
X121501517Y-66266000D02*
X121358660Y-66123142D01*
X121358660Y-66123142D02*
X121215803Y-65837428D01*
X121215803Y-65837428D02*
X121215803Y-64980285D01*
X121215803Y-64980285D02*
X121358660Y-64694571D01*
X121358660Y-64694571D02*
X121501517Y-64551714D01*
X121501517Y-64551714D02*
X121787232Y-64408857D01*
X121787232Y-64408857D02*
X122215803Y-64408857D01*
X122215803Y-64408857D02*
X122501517Y-64551714D01*
X122501517Y-64551714D02*
X122644375Y-64694571D01*
X122644375Y-64694571D02*
X122787232Y-64980285D01*
X122787232Y-64980285D02*
X122787232Y-65837428D01*
X122787232Y-65837428D02*
X122644375Y-66123142D01*
X122644375Y-66123142D02*
X122501517Y-66266000D01*
X122501517Y-66266000D02*
X122215803Y-66408857D01*
X122215803Y-66408857D02*
X121787232Y-66408857D01*
X123644375Y-64408857D02*
X124787232Y-64408857D01*
X124072946Y-63408857D02*
X124072946Y-65980285D01*
X124072946Y-65980285D02*
X124215803Y-66266000D01*
X124215803Y-66266000D02*
X124501518Y-66408857D01*
X124501518Y-66408857D02*
X124787232Y-66408857D01*
X125358661Y-64408857D02*
X126501518Y-64408857D01*
X125787232Y-63408857D02*
X125787232Y-65980285D01*
X125787232Y-65980285D02*
X125930089Y-66266000D01*
X125930089Y-66266000D02*
X126215804Y-66408857D01*
X126215804Y-66408857D02*
X126501518Y-66408857D01*
X127930090Y-66408857D02*
X127644375Y-66266000D01*
X127644375Y-66266000D02*
X127501518Y-66123142D01*
X127501518Y-66123142D02*
X127358661Y-65837428D01*
X127358661Y-65837428D02*
X127358661Y-64980285D01*
X127358661Y-64980285D02*
X127501518Y-64694571D01*
X127501518Y-64694571D02*
X127644375Y-64551714D01*
X127644375Y-64551714D02*
X127930090Y-64408857D01*
X127930090Y-64408857D02*
X128358661Y-64408857D01*
X128358661Y-64408857D02*
X128644375Y-64551714D01*
X128644375Y-64551714D02*
X128787233Y-64694571D01*
X128787233Y-64694571D02*
X128930090Y-64980285D01*
X128930090Y-64980285D02*
X128930090Y-65837428D01*
X128930090Y-65837428D02*
X128787233Y-66123142D01*
X128787233Y-66123142D02*
X128644375Y-66266000D01*
X128644375Y-66266000D02*
X128358661Y-66408857D01*
X128358661Y-66408857D02*
X127930090Y-66408857D01*
X130215804Y-66408857D02*
X130215804Y-64408857D01*
X130215804Y-64694571D02*
X130358661Y-64551714D01*
X130358661Y-64551714D02*
X130644376Y-64408857D01*
X130644376Y-64408857D02*
X131072947Y-64408857D01*
X131072947Y-64408857D02*
X131358661Y-64551714D01*
X131358661Y-64551714D02*
X131501519Y-64837428D01*
X131501519Y-64837428D02*
X131501519Y-66408857D01*
X131501519Y-64837428D02*
X131644376Y-64551714D01*
X131644376Y-64551714D02*
X131930090Y-64408857D01*
X131930090Y-64408857D02*
X132358661Y-64408857D01*
X132358661Y-64408857D02*
X132644376Y-64551714D01*
X132644376Y-64551714D02*
X132787233Y-64837428D01*
X132787233Y-64837428D02*
X132787233Y-66408857D01*
X137930090Y-66408857D02*
X136501518Y-66408857D01*
X136501518Y-66408857D02*
X136501518Y-63408857D01*
X140215804Y-66408857D02*
X140215804Y-64837428D01*
X140215804Y-64837428D02*
X140072946Y-64551714D01*
X140072946Y-64551714D02*
X139787232Y-64408857D01*
X139787232Y-64408857D02*
X139215804Y-64408857D01*
X139215804Y-64408857D02*
X138930089Y-64551714D01*
X140215804Y-66266000D02*
X139930089Y-66408857D01*
X139930089Y-66408857D02*
X139215804Y-66408857D01*
X139215804Y-66408857D02*
X138930089Y-66266000D01*
X138930089Y-66266000D02*
X138787232Y-65980285D01*
X138787232Y-65980285D02*
X138787232Y-65694571D01*
X138787232Y-65694571D02*
X138930089Y-65408857D01*
X138930089Y-65408857D02*
X139215804Y-65266000D01*
X139215804Y-65266000D02*
X139930089Y-65266000D01*
X139930089Y-65266000D02*
X140215804Y-65123142D01*
X141358661Y-64408857D02*
X142072947Y-66408857D01*
X142787232Y-64408857D02*
X142072947Y-66408857D01*
X142072947Y-66408857D02*
X141787232Y-67123142D01*
X141787232Y-67123142D02*
X141644375Y-67266000D01*
X141644375Y-67266000D02*
X141358661Y-67408857D01*
X145072946Y-66266000D02*
X144787232Y-66408857D01*
X144787232Y-66408857D02*
X144215804Y-66408857D01*
X144215804Y-66408857D02*
X143930089Y-66266000D01*
X143930089Y-66266000D02*
X143787232Y-65980285D01*
X143787232Y-65980285D02*
X143787232Y-64837428D01*
X143787232Y-64837428D02*
X143930089Y-64551714D01*
X143930089Y-64551714D02*
X144215804Y-64408857D01*
X144215804Y-64408857D02*
X144787232Y-64408857D01*
X144787232Y-64408857D02*
X145072946Y-64551714D01*
X145072946Y-64551714D02*
X145215804Y-64837428D01*
X145215804Y-64837428D02*
X145215804Y-65123142D01*
X145215804Y-65123142D02*
X143787232Y-65408857D01*
X146501518Y-66408857D02*
X146501518Y-64408857D01*
X146501518Y-64980285D02*
X146644375Y-64694571D01*
X146644375Y-64694571D02*
X146787233Y-64551714D01*
X146787233Y-64551714D02*
X147072947Y-64408857D01*
X147072947Y-64408857D02*
X147358661Y-64408857D01*
D11*
X143633510Y-43694047D02*
X144347796Y-43932142D01*
X144347796Y-43932142D02*
X144585891Y-44170238D01*
X144585891Y-44170238D02*
X144823987Y-44646428D01*
X144823987Y-44646428D02*
X144823987Y-45360714D01*
X144823987Y-45360714D02*
X144585891Y-45836904D01*
X144585891Y-45836904D02*
X144347796Y-46075000D01*
X144347796Y-46075000D02*
X143871606Y-46313095D01*
X143871606Y-46313095D02*
X141966844Y-46313095D01*
X141966844Y-46313095D02*
X141966844Y-41313095D01*
X141966844Y-41313095D02*
X143633510Y-41313095D01*
X143633510Y-41313095D02*
X144109701Y-41551190D01*
X144109701Y-41551190D02*
X144347796Y-41789285D01*
X144347796Y-41789285D02*
X144585891Y-42265476D01*
X144585891Y-42265476D02*
X144585891Y-42741666D01*
X144585891Y-42741666D02*
X144347796Y-43217857D01*
X144347796Y-43217857D02*
X144109701Y-43455952D01*
X144109701Y-43455952D02*
X143633510Y-43694047D01*
X143633510Y-43694047D02*
X141966844Y-43694047D01*
X147919225Y-41313095D02*
X148871606Y-41313095D01*
X148871606Y-41313095D02*
X149347796Y-41551190D01*
X149347796Y-41551190D02*
X149823987Y-42027380D01*
X149823987Y-42027380D02*
X150062082Y-42979761D01*
X150062082Y-42979761D02*
X150062082Y-44646428D01*
X150062082Y-44646428D02*
X149823987Y-45598809D01*
X149823987Y-45598809D02*
X149347796Y-46075000D01*
X149347796Y-46075000D02*
X148871606Y-46313095D01*
X148871606Y-46313095D02*
X147919225Y-46313095D01*
X147919225Y-46313095D02*
X147443034Y-46075000D01*
X147443034Y-46075000D02*
X146966844Y-45598809D01*
X146966844Y-45598809D02*
X146728748Y-44646428D01*
X146728748Y-44646428D02*
X146728748Y-42979761D01*
X146728748Y-42979761D02*
X146966844Y-42027380D01*
X146966844Y-42027380D02*
X147443034Y-41551190D01*
X147443034Y-41551190D02*
X147919225Y-41313095D01*
X151966843Y-44884523D02*
X154347796Y-44884523D01*
X151490653Y-46313095D02*
X153157320Y-41313095D01*
X153157320Y-41313095D02*
X154823986Y-46313095D01*
X159347796Y-46313095D02*
X157681129Y-43932142D01*
X156490653Y-46313095D02*
X156490653Y-41313095D01*
X156490653Y-41313095D02*
X158395415Y-41313095D01*
X158395415Y-41313095D02*
X158871605Y-41551190D01*
X158871605Y-41551190D02*
X159109700Y-41789285D01*
X159109700Y-41789285D02*
X159347796Y-42265476D01*
X159347796Y-42265476D02*
X159347796Y-42979761D01*
X159347796Y-42979761D02*
X159109700Y-43455952D01*
X159109700Y-43455952D02*
X158871605Y-43694047D01*
X158871605Y-43694047D02*
X158395415Y-43932142D01*
X158395415Y-43932142D02*
X156490653Y-43932142D01*
X161490653Y-46313095D02*
X161490653Y-41313095D01*
X161490653Y-41313095D02*
X162681129Y-41313095D01*
X162681129Y-41313095D02*
X163395415Y-41551190D01*
X163395415Y-41551190D02*
X163871605Y-42027380D01*
X163871605Y-42027380D02*
X164109700Y-42503571D01*
X164109700Y-42503571D02*
X164347796Y-43455952D01*
X164347796Y-43455952D02*
X164347796Y-44170238D01*
X164347796Y-44170238D02*
X164109700Y-45122619D01*
X164109700Y-45122619D02*
X163871605Y-45598809D01*
X163871605Y-45598809D02*
X163395415Y-46075000D01*
X163395415Y-46075000D02*
X162681129Y-46313095D01*
X162681129Y-46313095D02*
X161490653Y-46313095D01*
X172919224Y-41551190D02*
X172443034Y-41313095D01*
X172443034Y-41313095D02*
X171728748Y-41313095D01*
X171728748Y-41313095D02*
X171014462Y-41551190D01*
X171014462Y-41551190D02*
X170538272Y-42027380D01*
X170538272Y-42027380D02*
X170300177Y-42503571D01*
X170300177Y-42503571D02*
X170062081Y-43455952D01*
X170062081Y-43455952D02*
X170062081Y-44170238D01*
X170062081Y-44170238D02*
X170300177Y-45122619D01*
X170300177Y-45122619D02*
X170538272Y-45598809D01*
X170538272Y-45598809D02*
X171014462Y-46075000D01*
X171014462Y-46075000D02*
X171728748Y-46313095D01*
X171728748Y-46313095D02*
X172204939Y-46313095D01*
X172204939Y-46313095D02*
X172919224Y-46075000D01*
X172919224Y-46075000D02*
X173157320Y-45836904D01*
X173157320Y-45836904D02*
X173157320Y-44170238D01*
X173157320Y-44170238D02*
X172204939Y-44170238D01*
X175300177Y-41313095D02*
X175300177Y-45360714D01*
X175300177Y-45360714D02*
X175538272Y-45836904D01*
X175538272Y-45836904D02*
X175776367Y-46075000D01*
X175776367Y-46075000D02*
X176252558Y-46313095D01*
X176252558Y-46313095D02*
X177204939Y-46313095D01*
X177204939Y-46313095D02*
X177681129Y-46075000D01*
X177681129Y-46075000D02*
X177919224Y-45836904D01*
X177919224Y-45836904D02*
X178157320Y-45360714D01*
X178157320Y-45360714D02*
X178157320Y-41313095D01*
X180538272Y-46313095D02*
X180538272Y-41313095D01*
X182919224Y-46313095D02*
X182919224Y-41313095D01*
X182919224Y-41313095D02*
X184109700Y-41313095D01*
X184109700Y-41313095D02*
X184823986Y-41551190D01*
X184823986Y-41551190D02*
X185300176Y-42027380D01*
X185300176Y-42027380D02*
X185538271Y-42503571D01*
X185538271Y-42503571D02*
X185776367Y-43455952D01*
X185776367Y-43455952D02*
X185776367Y-44170238D01*
X185776367Y-44170238D02*
X185538271Y-45122619D01*
X185538271Y-45122619D02*
X185300176Y-45598809D01*
X185300176Y-45598809D02*
X184823986Y-46075000D01*
X184823986Y-46075000D02*
X184109700Y-46313095D01*
X184109700Y-46313095D02*
X182919224Y-46313095D01*
X187919224Y-43694047D02*
X189585890Y-43694047D01*
X190300176Y-46313095D02*
X187919224Y-46313095D01*
X187919224Y-46313095D02*
X187919224Y-41313095D01*
X187919224Y-41313095D02*
X190300176Y-41313095D01*
X194823986Y-46313095D02*
X192443034Y-46313095D01*
X192443034Y-46313095D02*
X192443034Y-41313095D01*
X196490653Y-46313095D02*
X196490653Y-41313095D01*
X198871605Y-46313095D02*
X198871605Y-41313095D01*
X198871605Y-41313095D02*
X201728748Y-46313095D01*
X201728748Y-46313095D02*
X201728748Y-41313095D01*
X204109700Y-43694047D02*
X205776366Y-43694047D01*
X206490652Y-46313095D02*
X204109700Y-46313095D01*
X204109700Y-46313095D02*
X204109700Y-41313095D01*
X204109700Y-41313095D02*
X206490652Y-41313095D01*
D10*
X202211232Y-56863857D02*
X202211232Y-53863857D01*
X202211232Y-53863857D02*
X203925518Y-56863857D01*
X203925518Y-56863857D02*
X203925518Y-53863857D01*
X205782661Y-56863857D02*
X205496946Y-56721000D01*
X205496946Y-56721000D02*
X205354089Y-56578142D01*
X205354089Y-56578142D02*
X205211232Y-56292428D01*
X205211232Y-56292428D02*
X205211232Y-55435285D01*
X205211232Y-55435285D02*
X205354089Y-55149571D01*
X205354089Y-55149571D02*
X205496946Y-55006714D01*
X205496946Y-55006714D02*
X205782661Y-54863857D01*
X205782661Y-54863857D02*
X206211232Y-54863857D01*
X206211232Y-54863857D02*
X206496946Y-55006714D01*
X206496946Y-55006714D02*
X206639804Y-55149571D01*
X206639804Y-55149571D02*
X206782661Y-55435285D01*
X206782661Y-55435285D02*
X206782661Y-56292428D01*
X206782661Y-56292428D02*
X206639804Y-56578142D01*
X206639804Y-56578142D02*
X206496946Y-56721000D01*
X206496946Y-56721000D02*
X206211232Y-56863857D01*
X206211232Y-56863857D02*
X205782661Y-56863857D01*
X207639804Y-54863857D02*
X208782661Y-54863857D01*
X208068375Y-53863857D02*
X208068375Y-56435285D01*
X208068375Y-56435285D02*
X208211232Y-56721000D01*
X208211232Y-56721000D02*
X208496947Y-56863857D01*
X208496947Y-56863857D02*
X208782661Y-56863857D01*
X210925518Y-56721000D02*
X210639804Y-56863857D01*
X210639804Y-56863857D02*
X210068376Y-56863857D01*
X210068376Y-56863857D02*
X209782661Y-56721000D01*
X209782661Y-56721000D02*
X209639804Y-56435285D01*
X209639804Y-56435285D02*
X209639804Y-55292428D01*
X209639804Y-55292428D02*
X209782661Y-55006714D01*
X209782661Y-55006714D02*
X210068376Y-54863857D01*
X210068376Y-54863857D02*
X210639804Y-54863857D01*
X210639804Y-54863857D02*
X210925518Y-55006714D01*
X210925518Y-55006714D02*
X211068376Y-55292428D01*
X211068376Y-55292428D02*
X211068376Y-55578142D01*
X211068376Y-55578142D02*
X209639804Y-55863857D01*
X212354090Y-56578142D02*
X212496947Y-56721000D01*
X212496947Y-56721000D02*
X212354090Y-56863857D01*
X212354090Y-56863857D02*
X212211233Y-56721000D01*
X212211233Y-56721000D02*
X212354090Y-56578142D01*
X212354090Y-56578142D02*
X212354090Y-56863857D01*
X212354090Y-55006714D02*
X212496947Y-55149571D01*
X212496947Y-55149571D02*
X212354090Y-55292428D01*
X212354090Y-55292428D02*
X212211233Y-55149571D01*
X212211233Y-55149571D02*
X212354090Y-55006714D01*
X212354090Y-55006714D02*
X212354090Y-55292428D01*
X203782661Y-61693857D02*
X202068375Y-61693857D01*
X202925518Y-61693857D02*
X202925518Y-58693857D01*
X202925518Y-58693857D02*
X202639804Y-59122428D01*
X202639804Y-59122428D02*
X202354089Y-59408142D01*
X202354089Y-59408142D02*
X202068375Y-59551000D01*
X205068375Y-61408142D02*
X205211232Y-61551000D01*
X205211232Y-61551000D02*
X205068375Y-61693857D01*
X205068375Y-61693857D02*
X204925518Y-61551000D01*
X204925518Y-61551000D02*
X205068375Y-61408142D01*
X205068375Y-61408142D02*
X205068375Y-61693857D01*
X209782660Y-60122428D02*
X210211232Y-60265285D01*
X210211232Y-60265285D02*
X210354089Y-60408142D01*
X210354089Y-60408142D02*
X210496946Y-60693857D01*
X210496946Y-60693857D02*
X210496946Y-61122428D01*
X210496946Y-61122428D02*
X210354089Y-61408142D01*
X210354089Y-61408142D02*
X210211232Y-61551000D01*
X210211232Y-61551000D02*
X209925517Y-61693857D01*
X209925517Y-61693857D02*
X208782660Y-61693857D01*
X208782660Y-61693857D02*
X208782660Y-58693857D01*
X208782660Y-58693857D02*
X209782660Y-58693857D01*
X209782660Y-58693857D02*
X210068375Y-58836714D01*
X210068375Y-58836714D02*
X210211232Y-58979571D01*
X210211232Y-58979571D02*
X210354089Y-59265285D01*
X210354089Y-59265285D02*
X210354089Y-59551000D01*
X210354089Y-59551000D02*
X210211232Y-59836714D01*
X210211232Y-59836714D02*
X210068375Y-59979571D01*
X210068375Y-59979571D02*
X209782660Y-60122428D01*
X209782660Y-60122428D02*
X208782660Y-60122428D01*
X212211232Y-61693857D02*
X211925517Y-61551000D01*
X211925517Y-61551000D02*
X211782660Y-61408142D01*
X211782660Y-61408142D02*
X211639803Y-61122428D01*
X211639803Y-61122428D02*
X211639803Y-60265285D01*
X211639803Y-60265285D02*
X211782660Y-59979571D01*
X211782660Y-59979571D02*
X211925517Y-59836714D01*
X211925517Y-59836714D02*
X212211232Y-59693857D01*
X212211232Y-59693857D02*
X212639803Y-59693857D01*
X212639803Y-59693857D02*
X212925517Y-59836714D01*
X212925517Y-59836714D02*
X213068375Y-59979571D01*
X213068375Y-59979571D02*
X213211232Y-60265285D01*
X213211232Y-60265285D02*
X213211232Y-61122428D01*
X213211232Y-61122428D02*
X213068375Y-61408142D01*
X213068375Y-61408142D02*
X212925517Y-61551000D01*
X212925517Y-61551000D02*
X212639803Y-61693857D01*
X212639803Y-61693857D02*
X212211232Y-61693857D01*
X215782661Y-61693857D02*
X215782661Y-60122428D01*
X215782661Y-60122428D02*
X215639803Y-59836714D01*
X215639803Y-59836714D02*
X215354089Y-59693857D01*
X215354089Y-59693857D02*
X214782661Y-59693857D01*
X214782661Y-59693857D02*
X214496946Y-59836714D01*
X215782661Y-61551000D02*
X215496946Y-61693857D01*
X215496946Y-61693857D02*
X214782661Y-61693857D01*
X214782661Y-61693857D02*
X214496946Y-61551000D01*
X214496946Y-61551000D02*
X214354089Y-61265285D01*
X214354089Y-61265285D02*
X214354089Y-60979571D01*
X214354089Y-60979571D02*
X214496946Y-60693857D01*
X214496946Y-60693857D02*
X214782661Y-60551000D01*
X214782661Y-60551000D02*
X215496946Y-60551000D01*
X215496946Y-60551000D02*
X215782661Y-60408142D01*
X217211232Y-61693857D02*
X217211232Y-59693857D01*
X217211232Y-60265285D02*
X217354089Y-59979571D01*
X217354089Y-59979571D02*
X217496947Y-59836714D01*
X217496947Y-59836714D02*
X217782661Y-59693857D01*
X217782661Y-59693857D02*
X218068375Y-59693857D01*
X220354090Y-61693857D02*
X220354090Y-58693857D01*
X220354090Y-61551000D02*
X220068375Y-61693857D01*
X220068375Y-61693857D02*
X219496947Y-61693857D01*
X219496947Y-61693857D02*
X219211232Y-61551000D01*
X219211232Y-61551000D02*
X219068375Y-61408142D01*
X219068375Y-61408142D02*
X218925518Y-61122428D01*
X218925518Y-61122428D02*
X218925518Y-60265285D01*
X218925518Y-60265285D02*
X219068375Y-59979571D01*
X219068375Y-59979571D02*
X219211232Y-59836714D01*
X219211232Y-59836714D02*
X219496947Y-59693857D01*
X219496947Y-59693857D02*
X220068375Y-59693857D01*
X220068375Y-59693857D02*
X220354090Y-59836714D01*
X225354090Y-61693857D02*
X225354090Y-58693857D01*
X225354090Y-61551000D02*
X225068375Y-61693857D01*
X225068375Y-61693857D02*
X224496947Y-61693857D01*
X224496947Y-61693857D02*
X224211232Y-61551000D01*
X224211232Y-61551000D02*
X224068375Y-61408142D01*
X224068375Y-61408142D02*
X223925518Y-61122428D01*
X223925518Y-61122428D02*
X223925518Y-60265285D01*
X223925518Y-60265285D02*
X224068375Y-59979571D01*
X224068375Y-59979571D02*
X224211232Y-59836714D01*
X224211232Y-59836714D02*
X224496947Y-59693857D01*
X224496947Y-59693857D02*
X225068375Y-59693857D01*
X225068375Y-59693857D02*
X225354090Y-59836714D01*
X226782661Y-61693857D02*
X226782661Y-59693857D01*
X226782661Y-58693857D02*
X226639804Y-58836714D01*
X226639804Y-58836714D02*
X226782661Y-58979571D01*
X226782661Y-58979571D02*
X226925518Y-58836714D01*
X226925518Y-58836714D02*
X226782661Y-58693857D01*
X226782661Y-58693857D02*
X226782661Y-58979571D01*
X228211232Y-61693857D02*
X228211232Y-59693857D01*
X228211232Y-59979571D02*
X228354089Y-59836714D01*
X228354089Y-59836714D02*
X228639804Y-59693857D01*
X228639804Y-59693857D02*
X229068375Y-59693857D01*
X229068375Y-59693857D02*
X229354089Y-59836714D01*
X229354089Y-59836714D02*
X229496947Y-60122428D01*
X229496947Y-60122428D02*
X229496947Y-61693857D01*
X229496947Y-60122428D02*
X229639804Y-59836714D01*
X229639804Y-59836714D02*
X229925518Y-59693857D01*
X229925518Y-59693857D02*
X230354089Y-59693857D01*
X230354089Y-59693857D02*
X230639804Y-59836714D01*
X230639804Y-59836714D02*
X230782661Y-60122428D01*
X230782661Y-60122428D02*
X230782661Y-61693857D01*
X233354089Y-61551000D02*
X233068375Y-61693857D01*
X233068375Y-61693857D02*
X232496947Y-61693857D01*
X232496947Y-61693857D02*
X232211232Y-61551000D01*
X232211232Y-61551000D02*
X232068375Y-61265285D01*
X232068375Y-61265285D02*
X232068375Y-60122428D01*
X232068375Y-60122428D02*
X232211232Y-59836714D01*
X232211232Y-59836714D02*
X232496947Y-59693857D01*
X232496947Y-59693857D02*
X233068375Y-59693857D01*
X233068375Y-59693857D02*
X233354089Y-59836714D01*
X233354089Y-59836714D02*
X233496947Y-60122428D01*
X233496947Y-60122428D02*
X233496947Y-60408142D01*
X233496947Y-60408142D02*
X232068375Y-60693857D01*
X234782661Y-59693857D02*
X234782661Y-61693857D01*
X234782661Y-59979571D02*
X234925518Y-59836714D01*
X234925518Y-59836714D02*
X235211233Y-59693857D01*
X235211233Y-59693857D02*
X235639804Y-59693857D01*
X235639804Y-59693857D02*
X235925518Y-59836714D01*
X235925518Y-59836714D02*
X236068376Y-60122428D01*
X236068376Y-60122428D02*
X236068376Y-61693857D01*
X237354090Y-61551000D02*
X237639804Y-61693857D01*
X237639804Y-61693857D02*
X238211233Y-61693857D01*
X238211233Y-61693857D02*
X238496947Y-61551000D01*
X238496947Y-61551000D02*
X238639804Y-61265285D01*
X238639804Y-61265285D02*
X238639804Y-61122428D01*
X238639804Y-61122428D02*
X238496947Y-60836714D01*
X238496947Y-60836714D02*
X238211233Y-60693857D01*
X238211233Y-60693857D02*
X237782662Y-60693857D01*
X237782662Y-60693857D02*
X237496947Y-60551000D01*
X237496947Y-60551000D02*
X237354090Y-60265285D01*
X237354090Y-60265285D02*
X237354090Y-60122428D01*
X237354090Y-60122428D02*
X237496947Y-59836714D01*
X237496947Y-59836714D02*
X237782662Y-59693857D01*
X237782662Y-59693857D02*
X238211233Y-59693857D01*
X238211233Y-59693857D02*
X238496947Y-59836714D01*
X239925518Y-61693857D02*
X239925518Y-59693857D01*
X239925518Y-58693857D02*
X239782661Y-58836714D01*
X239782661Y-58836714D02*
X239925518Y-58979571D01*
X239925518Y-58979571D02*
X240068375Y-58836714D01*
X240068375Y-58836714D02*
X239925518Y-58693857D01*
X239925518Y-58693857D02*
X239925518Y-58979571D01*
X241782661Y-61693857D02*
X241496946Y-61551000D01*
X241496946Y-61551000D02*
X241354089Y-61408142D01*
X241354089Y-61408142D02*
X241211232Y-61122428D01*
X241211232Y-61122428D02*
X241211232Y-60265285D01*
X241211232Y-60265285D02*
X241354089Y-59979571D01*
X241354089Y-59979571D02*
X241496946Y-59836714D01*
X241496946Y-59836714D02*
X241782661Y-59693857D01*
X241782661Y-59693857D02*
X242211232Y-59693857D01*
X242211232Y-59693857D02*
X242496946Y-59836714D01*
X242496946Y-59836714D02*
X242639804Y-59979571D01*
X242639804Y-59979571D02*
X242782661Y-60265285D01*
X242782661Y-60265285D02*
X242782661Y-61122428D01*
X242782661Y-61122428D02*
X242639804Y-61408142D01*
X242639804Y-61408142D02*
X242496946Y-61551000D01*
X242496946Y-61551000D02*
X242211232Y-61693857D01*
X242211232Y-61693857D02*
X241782661Y-61693857D01*
X244068375Y-59693857D02*
X244068375Y-61693857D01*
X244068375Y-59979571D02*
X244211232Y-59836714D01*
X244211232Y-59836714D02*
X244496947Y-59693857D01*
X244496947Y-59693857D02*
X244925518Y-59693857D01*
X244925518Y-59693857D02*
X245211232Y-59836714D01*
X245211232Y-59836714D02*
X245354090Y-60122428D01*
X245354090Y-60122428D02*
X245354090Y-61693857D01*
X246782661Y-61408142D02*
X246925518Y-61551000D01*
X246925518Y-61551000D02*
X246782661Y-61693857D01*
X246782661Y-61693857D02*
X246639804Y-61551000D01*
X246639804Y-61551000D02*
X246782661Y-61408142D01*
X246782661Y-61408142D02*
X246782661Y-61693857D01*
X246782661Y-59836714D02*
X246925518Y-59979571D01*
X246925518Y-59979571D02*
X246782661Y-60122428D01*
X246782661Y-60122428D02*
X246639804Y-59979571D01*
X246639804Y-59979571D02*
X246782661Y-59836714D01*
X246782661Y-59836714D02*
X246782661Y-60122428D01*
X250639803Y-61693857D02*
X251211232Y-61693857D01*
X251211232Y-61693857D02*
X251496946Y-61551000D01*
X251496946Y-61551000D02*
X251639803Y-61408142D01*
X251639803Y-61408142D02*
X251925518Y-60979571D01*
X251925518Y-60979571D02*
X252068375Y-60408142D01*
X252068375Y-60408142D02*
X252068375Y-59265285D01*
X252068375Y-59265285D02*
X251925518Y-58979571D01*
X251925518Y-58979571D02*
X251782661Y-58836714D01*
X251782661Y-58836714D02*
X251496946Y-58693857D01*
X251496946Y-58693857D02*
X250925518Y-58693857D01*
X250925518Y-58693857D02*
X250639803Y-58836714D01*
X250639803Y-58836714D02*
X250496946Y-58979571D01*
X250496946Y-58979571D02*
X250354089Y-59265285D01*
X250354089Y-59265285D02*
X250354089Y-59979571D01*
X250354089Y-59979571D02*
X250496946Y-60265285D01*
X250496946Y-60265285D02*
X250639803Y-60408142D01*
X250639803Y-60408142D02*
X250925518Y-60551000D01*
X250925518Y-60551000D02*
X251496946Y-60551000D01*
X251496946Y-60551000D02*
X251782661Y-60408142D01*
X251782661Y-60408142D02*
X251925518Y-60265285D01*
X251925518Y-60265285D02*
X252068375Y-59979571D01*
X254782661Y-58693857D02*
X253354089Y-58693857D01*
X253354089Y-58693857D02*
X253211232Y-60122428D01*
X253211232Y-60122428D02*
X253354089Y-59979571D01*
X253354089Y-59979571D02*
X253639804Y-59836714D01*
X253639804Y-59836714D02*
X254354089Y-59836714D01*
X254354089Y-59836714D02*
X254639804Y-59979571D01*
X254639804Y-59979571D02*
X254782661Y-60122428D01*
X254782661Y-60122428D02*
X254925518Y-60408142D01*
X254925518Y-60408142D02*
X254925518Y-61122428D01*
X254925518Y-61122428D02*
X254782661Y-61408142D01*
X254782661Y-61408142D02*
X254639804Y-61551000D01*
X254639804Y-61551000D02*
X254354089Y-61693857D01*
X254354089Y-61693857D02*
X253639804Y-61693857D01*
X253639804Y-61693857D02*
X253354089Y-61551000D01*
X253354089Y-61551000D02*
X253211232Y-61408142D01*
X256211232Y-61693857D02*
X256211232Y-59693857D01*
X256211232Y-59979571D02*
X256354089Y-59836714D01*
X256354089Y-59836714D02*
X256639804Y-59693857D01*
X256639804Y-59693857D02*
X257068375Y-59693857D01*
X257068375Y-59693857D02*
X257354089Y-59836714D01*
X257354089Y-59836714D02*
X257496947Y-60122428D01*
X257496947Y-60122428D02*
X257496947Y-61693857D01*
X257496947Y-60122428D02*
X257639804Y-59836714D01*
X257639804Y-59836714D02*
X257925518Y-59693857D01*
X257925518Y-59693857D02*
X258354089Y-59693857D01*
X258354089Y-59693857D02*
X258639804Y-59836714D01*
X258639804Y-59836714D02*
X258782661Y-60122428D01*
X258782661Y-60122428D02*
X258782661Y-61693857D01*
X260211232Y-61693857D02*
X260211232Y-59693857D01*
X260211232Y-59979571D02*
X260354089Y-59836714D01*
X260354089Y-59836714D02*
X260639804Y-59693857D01*
X260639804Y-59693857D02*
X261068375Y-59693857D01*
X261068375Y-59693857D02*
X261354089Y-59836714D01*
X261354089Y-59836714D02*
X261496947Y-60122428D01*
X261496947Y-60122428D02*
X261496947Y-61693857D01*
X261496947Y-60122428D02*
X261639804Y-59836714D01*
X261639804Y-59836714D02*
X261925518Y-59693857D01*
X261925518Y-59693857D02*
X262354089Y-59693857D01*
X262354089Y-59693857D02*
X262639804Y-59836714D01*
X262639804Y-59836714D02*
X262782661Y-60122428D01*
X262782661Y-60122428D02*
X262782661Y-61693857D01*
X263925518Y-61693857D02*
X265496947Y-59693857D01*
X263925518Y-59693857D02*
X265496947Y-61693857D01*
X266354089Y-58693857D02*
X268354089Y-58693857D01*
X268354089Y-58693857D02*
X267068375Y-61693857D01*
X270068375Y-58693857D02*
X270354089Y-58693857D01*
X270354089Y-58693857D02*
X270639803Y-58836714D01*
X270639803Y-58836714D02*
X270782661Y-58979571D01*
X270782661Y-58979571D02*
X270925518Y-59265285D01*
X270925518Y-59265285D02*
X271068375Y-59836714D01*
X271068375Y-59836714D02*
X271068375Y-60551000D01*
X271068375Y-60551000D02*
X270925518Y-61122428D01*
X270925518Y-61122428D02*
X270782661Y-61408142D01*
X270782661Y-61408142D02*
X270639803Y-61551000D01*
X270639803Y-61551000D02*
X270354089Y-61693857D01*
X270354089Y-61693857D02*
X270068375Y-61693857D01*
X270068375Y-61693857D02*
X269782661Y-61551000D01*
X269782661Y-61551000D02*
X269639803Y-61408142D01*
X269639803Y-61408142D02*
X269496946Y-61122428D01*
X269496946Y-61122428D02*
X269354089Y-60551000D01*
X269354089Y-60551000D02*
X269354089Y-59836714D01*
X269354089Y-59836714D02*
X269496946Y-59265285D01*
X269496946Y-59265285D02*
X269639803Y-58979571D01*
X269639803Y-58979571D02*
X269782661Y-58836714D01*
X269782661Y-58836714D02*
X270068375Y-58693857D01*
X272354089Y-61693857D02*
X272354089Y-59693857D01*
X272354089Y-59979571D02*
X272496946Y-59836714D01*
X272496946Y-59836714D02*
X272782661Y-59693857D01*
X272782661Y-59693857D02*
X273211232Y-59693857D01*
X273211232Y-59693857D02*
X273496946Y-59836714D01*
X273496946Y-59836714D02*
X273639804Y-60122428D01*
X273639804Y-60122428D02*
X273639804Y-61693857D01*
X273639804Y-60122428D02*
X273782661Y-59836714D01*
X273782661Y-59836714D02*
X274068375Y-59693857D01*
X274068375Y-59693857D02*
X274496946Y-59693857D01*
X274496946Y-59693857D02*
X274782661Y-59836714D01*
X274782661Y-59836714D02*
X274925518Y-60122428D01*
X274925518Y-60122428D02*
X274925518Y-61693857D01*
X276354089Y-61693857D02*
X276354089Y-59693857D01*
X276354089Y-59979571D02*
X276496946Y-59836714D01*
X276496946Y-59836714D02*
X276782661Y-59693857D01*
X276782661Y-59693857D02*
X277211232Y-59693857D01*
X277211232Y-59693857D02*
X277496946Y-59836714D01*
X277496946Y-59836714D02*
X277639804Y-60122428D01*
X277639804Y-60122428D02*
X277639804Y-61693857D01*
X277639804Y-60122428D02*
X277782661Y-59836714D01*
X277782661Y-59836714D02*
X278068375Y-59693857D01*
X278068375Y-59693857D02*
X278496946Y-59693857D01*
X278496946Y-59693857D02*
X278782661Y-59836714D01*
X278782661Y-59836714D02*
X278925518Y-60122428D01*
X278925518Y-60122428D02*
X278925518Y-61693857D01*
X202068375Y-63809571D02*
X202211232Y-63666714D01*
X202211232Y-63666714D02*
X202496947Y-63523857D01*
X202496947Y-63523857D02*
X203211232Y-63523857D01*
X203211232Y-63523857D02*
X203496947Y-63666714D01*
X203496947Y-63666714D02*
X203639804Y-63809571D01*
X203639804Y-63809571D02*
X203782661Y-64095285D01*
X203782661Y-64095285D02*
X203782661Y-64381000D01*
X203782661Y-64381000D02*
X203639804Y-64809571D01*
X203639804Y-64809571D02*
X201925518Y-66523857D01*
X201925518Y-66523857D02*
X203782661Y-66523857D01*
X205068375Y-66238142D02*
X205211232Y-66381000D01*
X205211232Y-66381000D02*
X205068375Y-66523857D01*
X205068375Y-66523857D02*
X204925518Y-66381000D01*
X204925518Y-66381000D02*
X205068375Y-66238142D01*
X205068375Y-66238142D02*
X205068375Y-66523857D01*
X208639803Y-63809571D02*
X208782660Y-63666714D01*
X208782660Y-63666714D02*
X209068375Y-63523857D01*
X209068375Y-63523857D02*
X209782660Y-63523857D01*
X209782660Y-63523857D02*
X210068375Y-63666714D01*
X210068375Y-63666714D02*
X210211232Y-63809571D01*
X210211232Y-63809571D02*
X210354089Y-64095285D01*
X210354089Y-64095285D02*
X210354089Y-64381000D01*
X210354089Y-64381000D02*
X210211232Y-64809571D01*
X210211232Y-64809571D02*
X208496946Y-66523857D01*
X208496946Y-66523857D02*
X210354089Y-66523857D01*
X215354089Y-66523857D02*
X213925517Y-66523857D01*
X213925517Y-66523857D02*
X213925517Y-63523857D01*
X217639803Y-66523857D02*
X217639803Y-64952428D01*
X217639803Y-64952428D02*
X217496945Y-64666714D01*
X217496945Y-64666714D02*
X217211231Y-64523857D01*
X217211231Y-64523857D02*
X216639803Y-64523857D01*
X216639803Y-64523857D02*
X216354088Y-64666714D01*
X217639803Y-66381000D02*
X217354088Y-66523857D01*
X217354088Y-66523857D02*
X216639803Y-66523857D01*
X216639803Y-66523857D02*
X216354088Y-66381000D01*
X216354088Y-66381000D02*
X216211231Y-66095285D01*
X216211231Y-66095285D02*
X216211231Y-65809571D01*
X216211231Y-65809571D02*
X216354088Y-65523857D01*
X216354088Y-65523857D02*
X216639803Y-65381000D01*
X216639803Y-65381000D02*
X217354088Y-65381000D01*
X217354088Y-65381000D02*
X217639803Y-65238142D01*
X218782660Y-64523857D02*
X219496946Y-66523857D01*
X220211231Y-64523857D02*
X219496946Y-66523857D01*
X219496946Y-66523857D02*
X219211231Y-67238142D01*
X219211231Y-67238142D02*
X219068374Y-67381000D01*
X219068374Y-67381000D02*
X218782660Y-67523857D01*
X222496945Y-66381000D02*
X222211231Y-66523857D01*
X222211231Y-66523857D02*
X221639803Y-66523857D01*
X221639803Y-66523857D02*
X221354088Y-66381000D01*
X221354088Y-66381000D02*
X221211231Y-66095285D01*
X221211231Y-66095285D02*
X221211231Y-64952428D01*
X221211231Y-64952428D02*
X221354088Y-64666714D01*
X221354088Y-64666714D02*
X221639803Y-64523857D01*
X221639803Y-64523857D02*
X222211231Y-64523857D01*
X222211231Y-64523857D02*
X222496945Y-64666714D01*
X222496945Y-64666714D02*
X222639803Y-64952428D01*
X222639803Y-64952428D02*
X222639803Y-65238142D01*
X222639803Y-65238142D02*
X221211231Y-65523857D01*
X223925517Y-66523857D02*
X223925517Y-64523857D01*
X223925517Y-65095285D02*
X224068374Y-64809571D01*
X224068374Y-64809571D02*
X224211232Y-64666714D01*
X224211232Y-64666714D02*
X224496946Y-64523857D01*
X224496946Y-64523857D02*
X224782660Y-64523857D01*
X201925518Y-68353857D02*
X203782661Y-68353857D01*
X203782661Y-68353857D02*
X202782661Y-69496714D01*
X202782661Y-69496714D02*
X203211232Y-69496714D01*
X203211232Y-69496714D02*
X203496947Y-69639571D01*
X203496947Y-69639571D02*
X203639804Y-69782428D01*
X203639804Y-69782428D02*
X203782661Y-70068142D01*
X203782661Y-70068142D02*
X203782661Y-70782428D01*
X203782661Y-70782428D02*
X203639804Y-71068142D01*
X203639804Y-71068142D02*
X203496947Y-71211000D01*
X203496947Y-71211000D02*
X203211232Y-71353857D01*
X203211232Y-71353857D02*
X202354089Y-71353857D01*
X202354089Y-71353857D02*
X202068375Y-71211000D01*
X202068375Y-71211000D02*
X201925518Y-71068142D01*
X205068375Y-71068142D02*
X205211232Y-71211000D01*
X205211232Y-71211000D02*
X205068375Y-71353857D01*
X205068375Y-71353857D02*
X204925518Y-71211000D01*
X204925518Y-71211000D02*
X205068375Y-71068142D01*
X205068375Y-71068142D02*
X205068375Y-71353857D01*
X210354089Y-71353857D02*
X208639803Y-71353857D01*
X209496946Y-71353857D02*
X209496946Y-68353857D01*
X209496946Y-68353857D02*
X209211232Y-68782428D01*
X209211232Y-68782428D02*
X208925517Y-69068142D01*
X208925517Y-69068142D02*
X208639803Y-69211000D01*
X211639803Y-71068142D02*
X211782660Y-71211000D01*
X211782660Y-71211000D02*
X211639803Y-71353857D01*
X211639803Y-71353857D02*
X211496946Y-71211000D01*
X211496946Y-71211000D02*
X211639803Y-71068142D01*
X211639803Y-71068142D02*
X211639803Y-71353857D01*
X214354089Y-68353857D02*
X213782660Y-68353857D01*
X213782660Y-68353857D02*
X213496946Y-68496714D01*
X213496946Y-68496714D02*
X213354089Y-68639571D01*
X213354089Y-68639571D02*
X213068374Y-69068142D01*
X213068374Y-69068142D02*
X212925517Y-69639571D01*
X212925517Y-69639571D02*
X212925517Y-70782428D01*
X212925517Y-70782428D02*
X213068374Y-71068142D01*
X213068374Y-71068142D02*
X213211231Y-71211000D01*
X213211231Y-71211000D02*
X213496946Y-71353857D01*
X213496946Y-71353857D02*
X214068374Y-71353857D01*
X214068374Y-71353857D02*
X214354089Y-71211000D01*
X214354089Y-71211000D02*
X214496946Y-71068142D01*
X214496946Y-71068142D02*
X214639803Y-70782428D01*
X214639803Y-70782428D02*
X214639803Y-70068142D01*
X214639803Y-70068142D02*
X214496946Y-69782428D01*
X214496946Y-69782428D02*
X214354089Y-69639571D01*
X214354089Y-69639571D02*
X214068374Y-69496714D01*
X214068374Y-69496714D02*
X213496946Y-69496714D01*
X213496946Y-69496714D02*
X213211231Y-69639571D01*
X213211231Y-69639571D02*
X213068374Y-69782428D01*
X213068374Y-69782428D02*
X212925517Y-70068142D01*
X215925517Y-71353857D02*
X215925517Y-69353857D01*
X215925517Y-69639571D02*
X216068374Y-69496714D01*
X216068374Y-69496714D02*
X216354089Y-69353857D01*
X216354089Y-69353857D02*
X216782660Y-69353857D01*
X216782660Y-69353857D02*
X217068374Y-69496714D01*
X217068374Y-69496714D02*
X217211232Y-69782428D01*
X217211232Y-69782428D02*
X217211232Y-71353857D01*
X217211232Y-69782428D02*
X217354089Y-69496714D01*
X217354089Y-69496714D02*
X217639803Y-69353857D01*
X217639803Y-69353857D02*
X218068374Y-69353857D01*
X218068374Y-69353857D02*
X218354089Y-69496714D01*
X218354089Y-69496714D02*
X218496946Y-69782428D01*
X218496946Y-69782428D02*
X218496946Y-71353857D01*
X219925517Y-71353857D02*
X219925517Y-69353857D01*
X219925517Y-69639571D02*
X220068374Y-69496714D01*
X220068374Y-69496714D02*
X220354089Y-69353857D01*
X220354089Y-69353857D02*
X220782660Y-69353857D01*
X220782660Y-69353857D02*
X221068374Y-69496714D01*
X221068374Y-69496714D02*
X221211232Y-69782428D01*
X221211232Y-69782428D02*
X221211232Y-71353857D01*
X221211232Y-69782428D02*
X221354089Y-69496714D01*
X221354089Y-69496714D02*
X221639803Y-69353857D01*
X221639803Y-69353857D02*
X222068374Y-69353857D01*
X222068374Y-69353857D02*
X222354089Y-69496714D01*
X222354089Y-69496714D02*
X222496946Y-69782428D01*
X222496946Y-69782428D02*
X222496946Y-71353857D01*
X225782660Y-69353857D02*
X226925517Y-69353857D01*
X226211231Y-68353857D02*
X226211231Y-70925285D01*
X226211231Y-70925285D02*
X226354088Y-71211000D01*
X226354088Y-71211000D02*
X226639803Y-71353857D01*
X226639803Y-71353857D02*
X226925517Y-71353857D01*
X227925517Y-71353857D02*
X227925517Y-68353857D01*
X229211232Y-71353857D02*
X229211232Y-69782428D01*
X229211232Y-69782428D02*
X229068374Y-69496714D01*
X229068374Y-69496714D02*
X228782660Y-69353857D01*
X228782660Y-69353857D02*
X228354089Y-69353857D01*
X228354089Y-69353857D02*
X228068374Y-69496714D01*
X228068374Y-69496714D02*
X227925517Y-69639571D01*
X230639803Y-71353857D02*
X230639803Y-69353857D01*
X230639803Y-68353857D02*
X230496946Y-68496714D01*
X230496946Y-68496714D02*
X230639803Y-68639571D01*
X230639803Y-68639571D02*
X230782660Y-68496714D01*
X230782660Y-68496714D02*
X230639803Y-68353857D01*
X230639803Y-68353857D02*
X230639803Y-68639571D01*
X233354089Y-71211000D02*
X233068374Y-71353857D01*
X233068374Y-71353857D02*
X232496946Y-71353857D01*
X232496946Y-71353857D02*
X232211231Y-71211000D01*
X232211231Y-71211000D02*
X232068374Y-71068142D01*
X232068374Y-71068142D02*
X231925517Y-70782428D01*
X231925517Y-70782428D02*
X231925517Y-69925285D01*
X231925517Y-69925285D02*
X232068374Y-69639571D01*
X232068374Y-69639571D02*
X232211231Y-69496714D01*
X232211231Y-69496714D02*
X232496946Y-69353857D01*
X232496946Y-69353857D02*
X233068374Y-69353857D01*
X233068374Y-69353857D02*
X233354089Y-69496714D01*
X234639803Y-71353857D02*
X234639803Y-68353857D01*
X234925518Y-70211000D02*
X235782660Y-71353857D01*
X235782660Y-69353857D02*
X234639803Y-70496714D01*
X237068374Y-69353857D02*
X237068374Y-71353857D01*
X237068374Y-69639571D02*
X237211231Y-69496714D01*
X237211231Y-69496714D02*
X237496946Y-69353857D01*
X237496946Y-69353857D02*
X237925517Y-69353857D01*
X237925517Y-69353857D02*
X238211231Y-69496714D01*
X238211231Y-69496714D02*
X238354089Y-69782428D01*
X238354089Y-69782428D02*
X238354089Y-71353857D01*
X240925517Y-71211000D02*
X240639803Y-71353857D01*
X240639803Y-71353857D02*
X240068375Y-71353857D01*
X240068375Y-71353857D02*
X239782660Y-71211000D01*
X239782660Y-71211000D02*
X239639803Y-70925285D01*
X239639803Y-70925285D02*
X239639803Y-69782428D01*
X239639803Y-69782428D02*
X239782660Y-69496714D01*
X239782660Y-69496714D02*
X240068375Y-69353857D01*
X240068375Y-69353857D02*
X240639803Y-69353857D01*
X240639803Y-69353857D02*
X240925517Y-69496714D01*
X240925517Y-69496714D02*
X241068375Y-69782428D01*
X241068375Y-69782428D02*
X241068375Y-70068142D01*
X241068375Y-70068142D02*
X239639803Y-70353857D01*
X242211232Y-71211000D02*
X242496946Y-71353857D01*
X242496946Y-71353857D02*
X243068375Y-71353857D01*
X243068375Y-71353857D02*
X243354089Y-71211000D01*
X243354089Y-71211000D02*
X243496946Y-70925285D01*
X243496946Y-70925285D02*
X243496946Y-70782428D01*
X243496946Y-70782428D02*
X243354089Y-70496714D01*
X243354089Y-70496714D02*
X243068375Y-70353857D01*
X243068375Y-70353857D02*
X242639804Y-70353857D01*
X242639804Y-70353857D02*
X242354089Y-70211000D01*
X242354089Y-70211000D02*
X242211232Y-69925285D01*
X242211232Y-69925285D02*
X242211232Y-69782428D01*
X242211232Y-69782428D02*
X242354089Y-69496714D01*
X242354089Y-69496714D02*
X242639804Y-69353857D01*
X242639804Y-69353857D02*
X243068375Y-69353857D01*
X243068375Y-69353857D02*
X243354089Y-69496714D01*
X244639803Y-71211000D02*
X244925517Y-71353857D01*
X244925517Y-71353857D02*
X245496946Y-71353857D01*
X245496946Y-71353857D02*
X245782660Y-71211000D01*
X245782660Y-71211000D02*
X245925517Y-70925285D01*
X245925517Y-70925285D02*
X245925517Y-70782428D01*
X245925517Y-70782428D02*
X245782660Y-70496714D01*
X245782660Y-70496714D02*
X245496946Y-70353857D01*
X245496946Y-70353857D02*
X245068375Y-70353857D01*
X245068375Y-70353857D02*
X244782660Y-70211000D01*
X244782660Y-70211000D02*
X244639803Y-69925285D01*
X244639803Y-69925285D02*
X244639803Y-69782428D01*
X244639803Y-69782428D02*
X244782660Y-69496714D01*
X244782660Y-69496714D02*
X245068375Y-69353857D01*
X245068375Y-69353857D02*
X245496946Y-69353857D01*
X245496946Y-69353857D02*
X245782660Y-69496714D01*
X203496947Y-74183857D02*
X203496947Y-76183857D01*
X202782661Y-73041000D02*
X202068375Y-75183857D01*
X202068375Y-75183857D02*
X203925518Y-75183857D01*
X205068375Y-75898142D02*
X205211232Y-76041000D01*
X205211232Y-76041000D02*
X205068375Y-76183857D01*
X205068375Y-76183857D02*
X204925518Y-76041000D01*
X204925518Y-76041000D02*
X205068375Y-75898142D01*
X205068375Y-75898142D02*
X205068375Y-76183857D01*
X208639803Y-76041000D02*
X209068375Y-76183857D01*
X209068375Y-76183857D02*
X209782660Y-76183857D01*
X209782660Y-76183857D02*
X210068375Y-76041000D01*
X210068375Y-76041000D02*
X210211232Y-75898142D01*
X210211232Y-75898142D02*
X210354089Y-75612428D01*
X210354089Y-75612428D02*
X210354089Y-75326714D01*
X210354089Y-75326714D02*
X210211232Y-75041000D01*
X210211232Y-75041000D02*
X210068375Y-74898142D01*
X210068375Y-74898142D02*
X209782660Y-74755285D01*
X209782660Y-74755285D02*
X209211232Y-74612428D01*
X209211232Y-74612428D02*
X208925517Y-74469571D01*
X208925517Y-74469571D02*
X208782660Y-74326714D01*
X208782660Y-74326714D02*
X208639803Y-74041000D01*
X208639803Y-74041000D02*
X208639803Y-73755285D01*
X208639803Y-73755285D02*
X208782660Y-73469571D01*
X208782660Y-73469571D02*
X208925517Y-73326714D01*
X208925517Y-73326714D02*
X209211232Y-73183857D01*
X209211232Y-73183857D02*
X209925517Y-73183857D01*
X209925517Y-73183857D02*
X210354089Y-73326714D01*
X211639803Y-76183857D02*
X211639803Y-74183857D01*
X211639803Y-73183857D02*
X211496946Y-73326714D01*
X211496946Y-73326714D02*
X211639803Y-73469571D01*
X211639803Y-73469571D02*
X211782660Y-73326714D01*
X211782660Y-73326714D02*
X211639803Y-73183857D01*
X211639803Y-73183857D02*
X211639803Y-73469571D01*
X213496946Y-76183857D02*
X213211231Y-76041000D01*
X213211231Y-76041000D02*
X213068374Y-75755285D01*
X213068374Y-75755285D02*
X213068374Y-73183857D01*
X214639803Y-76183857D02*
X214639803Y-73183857D01*
X214925518Y-75041000D02*
X215782660Y-76183857D01*
X215782660Y-74183857D02*
X214639803Y-75326714D01*
X216925517Y-76041000D02*
X217211231Y-76183857D01*
X217211231Y-76183857D02*
X217782660Y-76183857D01*
X217782660Y-76183857D02*
X218068374Y-76041000D01*
X218068374Y-76041000D02*
X218211231Y-75755285D01*
X218211231Y-75755285D02*
X218211231Y-75612428D01*
X218211231Y-75612428D02*
X218068374Y-75326714D01*
X218068374Y-75326714D02*
X217782660Y-75183857D01*
X217782660Y-75183857D02*
X217354089Y-75183857D01*
X217354089Y-75183857D02*
X217068374Y-75041000D01*
X217068374Y-75041000D02*
X216925517Y-74755285D01*
X216925517Y-74755285D02*
X216925517Y-74612428D01*
X216925517Y-74612428D02*
X217068374Y-74326714D01*
X217068374Y-74326714D02*
X217354089Y-74183857D01*
X217354089Y-74183857D02*
X217782660Y-74183857D01*
X217782660Y-74183857D02*
X218068374Y-74326714D01*
X220782660Y-76041000D02*
X220496945Y-76183857D01*
X220496945Y-76183857D02*
X219925517Y-76183857D01*
X219925517Y-76183857D02*
X219639802Y-76041000D01*
X219639802Y-76041000D02*
X219496945Y-75898142D01*
X219496945Y-75898142D02*
X219354088Y-75612428D01*
X219354088Y-75612428D02*
X219354088Y-74755285D01*
X219354088Y-74755285D02*
X219496945Y-74469571D01*
X219496945Y-74469571D02*
X219639802Y-74326714D01*
X219639802Y-74326714D02*
X219925517Y-74183857D01*
X219925517Y-74183857D02*
X220496945Y-74183857D01*
X220496945Y-74183857D02*
X220782660Y-74326714D01*
X222068374Y-76183857D02*
X222068374Y-74183857D01*
X222068374Y-74755285D02*
X222211231Y-74469571D01*
X222211231Y-74469571D02*
X222354089Y-74326714D01*
X222354089Y-74326714D02*
X222639803Y-74183857D01*
X222639803Y-74183857D02*
X222925517Y-74183857D01*
X225068374Y-76041000D02*
X224782660Y-76183857D01*
X224782660Y-76183857D02*
X224211232Y-76183857D01*
X224211232Y-76183857D02*
X223925517Y-76041000D01*
X223925517Y-76041000D02*
X223782660Y-75755285D01*
X223782660Y-75755285D02*
X223782660Y-74612428D01*
X223782660Y-74612428D02*
X223925517Y-74326714D01*
X223925517Y-74326714D02*
X224211232Y-74183857D01*
X224211232Y-74183857D02*
X224782660Y-74183857D01*
X224782660Y-74183857D02*
X225068374Y-74326714D01*
X225068374Y-74326714D02*
X225211232Y-74612428D01*
X225211232Y-74612428D02*
X225211232Y-74898142D01*
X225211232Y-74898142D02*
X223782660Y-75183857D01*
X227639803Y-76041000D02*
X227354089Y-76183857D01*
X227354089Y-76183857D02*
X226782661Y-76183857D01*
X226782661Y-76183857D02*
X226496946Y-76041000D01*
X226496946Y-76041000D02*
X226354089Y-75755285D01*
X226354089Y-75755285D02*
X226354089Y-74612428D01*
X226354089Y-74612428D02*
X226496946Y-74326714D01*
X226496946Y-74326714D02*
X226782661Y-74183857D01*
X226782661Y-74183857D02*
X227354089Y-74183857D01*
X227354089Y-74183857D02*
X227639803Y-74326714D01*
X227639803Y-74326714D02*
X227782661Y-74612428D01*
X227782661Y-74612428D02*
X227782661Y-74898142D01*
X227782661Y-74898142D02*
X226354089Y-75183857D01*
X229068375Y-74183857D02*
X229068375Y-76183857D01*
X229068375Y-74469571D02*
X229211232Y-74326714D01*
X229211232Y-74326714D02*
X229496947Y-74183857D01*
X229496947Y-74183857D02*
X229925518Y-74183857D01*
X229925518Y-74183857D02*
X230211232Y-74326714D01*
X230211232Y-74326714D02*
X230354090Y-74612428D01*
X230354090Y-74612428D02*
X230354090Y-76183857D01*
X235354090Y-74183857D02*
X235354090Y-76183857D01*
X234068375Y-74183857D02*
X234068375Y-75755285D01*
X234068375Y-75755285D02*
X234211232Y-76041000D01*
X234211232Y-76041000D02*
X234496947Y-76183857D01*
X234496947Y-76183857D02*
X234925518Y-76183857D01*
X234925518Y-76183857D02*
X235211232Y-76041000D01*
X235211232Y-76041000D02*
X235354090Y-75898142D01*
X236639804Y-76041000D02*
X236925518Y-76183857D01*
X236925518Y-76183857D02*
X237496947Y-76183857D01*
X237496947Y-76183857D02*
X237782661Y-76041000D01*
X237782661Y-76041000D02*
X237925518Y-75755285D01*
X237925518Y-75755285D02*
X237925518Y-75612428D01*
X237925518Y-75612428D02*
X237782661Y-75326714D01*
X237782661Y-75326714D02*
X237496947Y-75183857D01*
X237496947Y-75183857D02*
X237068376Y-75183857D01*
X237068376Y-75183857D02*
X236782661Y-75041000D01*
X236782661Y-75041000D02*
X236639804Y-74755285D01*
X236639804Y-74755285D02*
X236639804Y-74612428D01*
X236639804Y-74612428D02*
X236782661Y-74326714D01*
X236782661Y-74326714D02*
X237068376Y-74183857D01*
X237068376Y-74183857D02*
X237496947Y-74183857D01*
X237496947Y-74183857D02*
X237782661Y-74326714D01*
X239211232Y-76183857D02*
X239211232Y-74183857D01*
X239211232Y-73183857D02*
X239068375Y-73326714D01*
X239068375Y-73326714D02*
X239211232Y-73469571D01*
X239211232Y-73469571D02*
X239354089Y-73326714D01*
X239354089Y-73326714D02*
X239211232Y-73183857D01*
X239211232Y-73183857D02*
X239211232Y-73469571D01*
X240639803Y-74183857D02*
X240639803Y-76183857D01*
X240639803Y-74469571D02*
X240782660Y-74326714D01*
X240782660Y-74326714D02*
X241068375Y-74183857D01*
X241068375Y-74183857D02*
X241496946Y-74183857D01*
X241496946Y-74183857D02*
X241782660Y-74326714D01*
X241782660Y-74326714D02*
X241925518Y-74612428D01*
X241925518Y-74612428D02*
X241925518Y-76183857D01*
X244639804Y-74183857D02*
X244639804Y-76612428D01*
X244639804Y-76612428D02*
X244496946Y-76898142D01*
X244496946Y-76898142D02*
X244354089Y-77041000D01*
X244354089Y-77041000D02*
X244068375Y-77183857D01*
X244068375Y-77183857D02*
X243639804Y-77183857D01*
X243639804Y-77183857D02*
X243354089Y-77041000D01*
X244639804Y-76041000D02*
X244354089Y-76183857D01*
X244354089Y-76183857D02*
X243782661Y-76183857D01*
X243782661Y-76183857D02*
X243496946Y-76041000D01*
X243496946Y-76041000D02*
X243354089Y-75898142D01*
X243354089Y-75898142D02*
X243211232Y-75612428D01*
X243211232Y-75612428D02*
X243211232Y-74755285D01*
X243211232Y-74755285D02*
X243354089Y-74469571D01*
X243354089Y-74469571D02*
X243496946Y-74326714D01*
X243496946Y-74326714D02*
X243782661Y-74183857D01*
X243782661Y-74183857D02*
X244354089Y-74183857D01*
X244354089Y-74183857D02*
X244639804Y-74326714D01*
X248068375Y-74183857D02*
X248639804Y-76183857D01*
X248639804Y-76183857D02*
X249211232Y-74755285D01*
X249211232Y-74755285D02*
X249782661Y-76183857D01*
X249782661Y-76183857D02*
X250354089Y-74183857D01*
X251496946Y-76183857D02*
X251496946Y-73183857D01*
X252782661Y-76183857D02*
X252782661Y-74612428D01*
X252782661Y-74612428D02*
X252639803Y-74326714D01*
X252639803Y-74326714D02*
X252354089Y-74183857D01*
X252354089Y-74183857D02*
X251925518Y-74183857D01*
X251925518Y-74183857D02*
X251639803Y-74326714D01*
X251639803Y-74326714D02*
X251496946Y-74469571D01*
X254211232Y-76183857D02*
X254211232Y-74183857D01*
X254211232Y-73183857D02*
X254068375Y-73326714D01*
X254068375Y-73326714D02*
X254211232Y-73469571D01*
X254211232Y-73469571D02*
X254354089Y-73326714D01*
X254354089Y-73326714D02*
X254211232Y-73183857D01*
X254211232Y-73183857D02*
X254211232Y-73469571D01*
X255211232Y-74183857D02*
X256354089Y-74183857D01*
X255639803Y-73183857D02*
X255639803Y-75755285D01*
X255639803Y-75755285D02*
X255782660Y-76041000D01*
X255782660Y-76041000D02*
X256068375Y-76183857D01*
X256068375Y-76183857D02*
X256354089Y-76183857D01*
X258496946Y-76041000D02*
X258211232Y-76183857D01*
X258211232Y-76183857D02*
X257639804Y-76183857D01*
X257639804Y-76183857D02*
X257354089Y-76041000D01*
X257354089Y-76041000D02*
X257211232Y-75755285D01*
X257211232Y-75755285D02*
X257211232Y-74612428D01*
X257211232Y-74612428D02*
X257354089Y-74326714D01*
X257354089Y-74326714D02*
X257639804Y-74183857D01*
X257639804Y-74183857D02*
X258211232Y-74183857D01*
X258211232Y-74183857D02*
X258496946Y-74326714D01*
X258496946Y-74326714D02*
X258639804Y-74612428D01*
X258639804Y-74612428D02*
X258639804Y-74898142D01*
X258639804Y-74898142D02*
X257211232Y-75183857D01*
X203639804Y-78013857D02*
X202211232Y-78013857D01*
X202211232Y-78013857D02*
X202068375Y-79442428D01*
X202068375Y-79442428D02*
X202211232Y-79299571D01*
X202211232Y-79299571D02*
X202496947Y-79156714D01*
X202496947Y-79156714D02*
X203211232Y-79156714D01*
X203211232Y-79156714D02*
X203496947Y-79299571D01*
X203496947Y-79299571D02*
X203639804Y-79442428D01*
X203639804Y-79442428D02*
X203782661Y-79728142D01*
X203782661Y-79728142D02*
X203782661Y-80442428D01*
X203782661Y-80442428D02*
X203639804Y-80728142D01*
X203639804Y-80728142D02*
X203496947Y-80871000D01*
X203496947Y-80871000D02*
X203211232Y-81013857D01*
X203211232Y-81013857D02*
X202496947Y-81013857D01*
X202496947Y-81013857D02*
X202211232Y-80871000D01*
X202211232Y-80871000D02*
X202068375Y-80728142D01*
X205068375Y-80728142D02*
X205211232Y-80871000D01*
X205211232Y-80871000D02*
X205068375Y-81013857D01*
X205068375Y-81013857D02*
X204925518Y-80871000D01*
X204925518Y-80871000D02*
X205068375Y-80728142D01*
X205068375Y-80728142D02*
X205068375Y-81013857D01*
X208639803Y-80871000D02*
X209068375Y-81013857D01*
X209068375Y-81013857D02*
X209782660Y-81013857D01*
X209782660Y-81013857D02*
X210068375Y-80871000D01*
X210068375Y-80871000D02*
X210211232Y-80728142D01*
X210211232Y-80728142D02*
X210354089Y-80442428D01*
X210354089Y-80442428D02*
X210354089Y-80156714D01*
X210354089Y-80156714D02*
X210211232Y-79871000D01*
X210211232Y-79871000D02*
X210068375Y-79728142D01*
X210068375Y-79728142D02*
X209782660Y-79585285D01*
X209782660Y-79585285D02*
X209211232Y-79442428D01*
X209211232Y-79442428D02*
X208925517Y-79299571D01*
X208925517Y-79299571D02*
X208782660Y-79156714D01*
X208782660Y-79156714D02*
X208639803Y-78871000D01*
X208639803Y-78871000D02*
X208639803Y-78585285D01*
X208639803Y-78585285D02*
X208782660Y-78299571D01*
X208782660Y-78299571D02*
X208925517Y-78156714D01*
X208925517Y-78156714D02*
X209211232Y-78013857D01*
X209211232Y-78013857D02*
X209925517Y-78013857D01*
X209925517Y-78013857D02*
X210354089Y-78156714D01*
X212068375Y-81013857D02*
X211782660Y-80871000D01*
X211782660Y-80871000D02*
X211639803Y-80728142D01*
X211639803Y-80728142D02*
X211496946Y-80442428D01*
X211496946Y-80442428D02*
X211496946Y-79585285D01*
X211496946Y-79585285D02*
X211639803Y-79299571D01*
X211639803Y-79299571D02*
X211782660Y-79156714D01*
X211782660Y-79156714D02*
X212068375Y-79013857D01*
X212068375Y-79013857D02*
X212496946Y-79013857D01*
X212496946Y-79013857D02*
X212782660Y-79156714D01*
X212782660Y-79156714D02*
X212925518Y-79299571D01*
X212925518Y-79299571D02*
X213068375Y-79585285D01*
X213068375Y-79585285D02*
X213068375Y-80442428D01*
X213068375Y-80442428D02*
X212925518Y-80728142D01*
X212925518Y-80728142D02*
X212782660Y-80871000D01*
X212782660Y-80871000D02*
X212496946Y-81013857D01*
X212496946Y-81013857D02*
X212068375Y-81013857D01*
X214782661Y-81013857D02*
X214496946Y-80871000D01*
X214496946Y-80871000D02*
X214354089Y-80585285D01*
X214354089Y-80585285D02*
X214354089Y-78013857D01*
X217211233Y-81013857D02*
X217211233Y-78013857D01*
X217211233Y-80871000D02*
X216925518Y-81013857D01*
X216925518Y-81013857D02*
X216354090Y-81013857D01*
X216354090Y-81013857D02*
X216068375Y-80871000D01*
X216068375Y-80871000D02*
X215925518Y-80728142D01*
X215925518Y-80728142D02*
X215782661Y-80442428D01*
X215782661Y-80442428D02*
X215782661Y-79585285D01*
X215782661Y-79585285D02*
X215925518Y-79299571D01*
X215925518Y-79299571D02*
X216068375Y-79156714D01*
X216068375Y-79156714D02*
X216354090Y-79013857D01*
X216354090Y-79013857D02*
X216925518Y-79013857D01*
X216925518Y-79013857D02*
X217211233Y-79156714D01*
X219782661Y-80871000D02*
X219496947Y-81013857D01*
X219496947Y-81013857D02*
X218925519Y-81013857D01*
X218925519Y-81013857D02*
X218639804Y-80871000D01*
X218639804Y-80871000D02*
X218496947Y-80585285D01*
X218496947Y-80585285D02*
X218496947Y-79442428D01*
X218496947Y-79442428D02*
X218639804Y-79156714D01*
X218639804Y-79156714D02*
X218925519Y-79013857D01*
X218925519Y-79013857D02*
X219496947Y-79013857D01*
X219496947Y-79013857D02*
X219782661Y-79156714D01*
X219782661Y-79156714D02*
X219925519Y-79442428D01*
X219925519Y-79442428D02*
X219925519Y-79728142D01*
X219925519Y-79728142D02*
X218496947Y-80013857D01*
X221211233Y-81013857D02*
X221211233Y-79013857D01*
X221211233Y-79585285D02*
X221354090Y-79299571D01*
X221354090Y-79299571D02*
X221496948Y-79156714D01*
X221496948Y-79156714D02*
X221782662Y-79013857D01*
X221782662Y-79013857D02*
X222068376Y-79013857D01*
X225354090Y-81013857D02*
X225354090Y-79013857D01*
X225354090Y-79299571D02*
X225496947Y-79156714D01*
X225496947Y-79156714D02*
X225782662Y-79013857D01*
X225782662Y-79013857D02*
X226211233Y-79013857D01*
X226211233Y-79013857D02*
X226496947Y-79156714D01*
X226496947Y-79156714D02*
X226639805Y-79442428D01*
X226639805Y-79442428D02*
X226639805Y-81013857D01*
X226639805Y-79442428D02*
X226782662Y-79156714D01*
X226782662Y-79156714D02*
X227068376Y-79013857D01*
X227068376Y-79013857D02*
X227496947Y-79013857D01*
X227496947Y-79013857D02*
X227782662Y-79156714D01*
X227782662Y-79156714D02*
X227925519Y-79442428D01*
X227925519Y-79442428D02*
X227925519Y-81013857D01*
X230639805Y-81013857D02*
X230639805Y-79442428D01*
X230639805Y-79442428D02*
X230496947Y-79156714D01*
X230496947Y-79156714D02*
X230211233Y-79013857D01*
X230211233Y-79013857D02*
X229639805Y-79013857D01*
X229639805Y-79013857D02*
X229354090Y-79156714D01*
X230639805Y-80871000D02*
X230354090Y-81013857D01*
X230354090Y-81013857D02*
X229639805Y-81013857D01*
X229639805Y-81013857D02*
X229354090Y-80871000D01*
X229354090Y-80871000D02*
X229211233Y-80585285D01*
X229211233Y-80585285D02*
X229211233Y-80299571D01*
X229211233Y-80299571D02*
X229354090Y-80013857D01*
X229354090Y-80013857D02*
X229639805Y-79871000D01*
X229639805Y-79871000D02*
X230354090Y-79871000D01*
X230354090Y-79871000D02*
X230639805Y-79728142D01*
X231925519Y-80871000D02*
X232211233Y-81013857D01*
X232211233Y-81013857D02*
X232782662Y-81013857D01*
X232782662Y-81013857D02*
X233068376Y-80871000D01*
X233068376Y-80871000D02*
X233211233Y-80585285D01*
X233211233Y-80585285D02*
X233211233Y-80442428D01*
X233211233Y-80442428D02*
X233068376Y-80156714D01*
X233068376Y-80156714D02*
X232782662Y-80013857D01*
X232782662Y-80013857D02*
X232354091Y-80013857D01*
X232354091Y-80013857D02*
X232068376Y-79871000D01*
X232068376Y-79871000D02*
X231925519Y-79585285D01*
X231925519Y-79585285D02*
X231925519Y-79442428D01*
X231925519Y-79442428D02*
X232068376Y-79156714D01*
X232068376Y-79156714D02*
X232354091Y-79013857D01*
X232354091Y-79013857D02*
X232782662Y-79013857D01*
X232782662Y-79013857D02*
X233068376Y-79156714D01*
X234496947Y-81013857D02*
X234496947Y-78013857D01*
X234782662Y-79871000D02*
X235639804Y-81013857D01*
X235639804Y-79013857D02*
X234496947Y-80156714D01*
X236925518Y-80728142D02*
X237068375Y-80871000D01*
X237068375Y-80871000D02*
X236925518Y-81013857D01*
X236925518Y-81013857D02*
X236782661Y-80871000D01*
X236782661Y-80871000D02*
X236925518Y-80728142D01*
X236925518Y-80728142D02*
X236925518Y-81013857D01*
X236925518Y-79156714D02*
X237068375Y-79299571D01*
X237068375Y-79299571D02*
X236925518Y-79442428D01*
X236925518Y-79442428D02*
X236782661Y-79299571D01*
X236782661Y-79299571D02*
X236925518Y-79156714D01*
X236925518Y-79156714D02*
X236925518Y-79442428D01*
X241639803Y-79442428D02*
X242068375Y-79585285D01*
X242068375Y-79585285D02*
X242211232Y-79728142D01*
X242211232Y-79728142D02*
X242354089Y-80013857D01*
X242354089Y-80013857D02*
X242354089Y-80442428D01*
X242354089Y-80442428D02*
X242211232Y-80728142D01*
X242211232Y-80728142D02*
X242068375Y-80871000D01*
X242068375Y-80871000D02*
X241782660Y-81013857D01*
X241782660Y-81013857D02*
X240639803Y-81013857D01*
X240639803Y-81013857D02*
X240639803Y-78013857D01*
X240639803Y-78013857D02*
X241639803Y-78013857D01*
X241639803Y-78013857D02*
X241925518Y-78156714D01*
X241925518Y-78156714D02*
X242068375Y-78299571D01*
X242068375Y-78299571D02*
X242211232Y-78585285D01*
X242211232Y-78585285D02*
X242211232Y-78871000D01*
X242211232Y-78871000D02*
X242068375Y-79156714D01*
X242068375Y-79156714D02*
X241925518Y-79299571D01*
X241925518Y-79299571D02*
X241639803Y-79442428D01*
X241639803Y-79442428D02*
X240639803Y-79442428D01*
X244068375Y-81013857D02*
X243782660Y-80871000D01*
X243782660Y-80871000D02*
X243639803Y-80585285D01*
X243639803Y-80585285D02*
X243639803Y-78013857D01*
X246496947Y-79013857D02*
X246496947Y-81013857D01*
X245211232Y-79013857D02*
X245211232Y-80585285D01*
X245211232Y-80585285D02*
X245354089Y-80871000D01*
X245354089Y-80871000D02*
X245639804Y-81013857D01*
X245639804Y-81013857D02*
X246068375Y-81013857D01*
X246068375Y-81013857D02*
X246354089Y-80871000D01*
X246354089Y-80871000D02*
X246496947Y-80728142D01*
X249068375Y-80871000D02*
X248782661Y-81013857D01*
X248782661Y-81013857D02*
X248211233Y-81013857D01*
X248211233Y-81013857D02*
X247925518Y-80871000D01*
X247925518Y-80871000D02*
X247782661Y-80585285D01*
X247782661Y-80585285D02*
X247782661Y-79442428D01*
X247782661Y-79442428D02*
X247925518Y-79156714D01*
X247925518Y-79156714D02*
X248211233Y-79013857D01*
X248211233Y-79013857D02*
X248782661Y-79013857D01*
X248782661Y-79013857D02*
X249068375Y-79156714D01*
X249068375Y-79156714D02*
X249211233Y-79442428D01*
X249211233Y-79442428D02*
X249211233Y-79728142D01*
X249211233Y-79728142D02*
X247782661Y-80013857D01*
X153268661Y-53736857D02*
X154982947Y-53736857D01*
X154125804Y-56736857D02*
X154125804Y-53736857D01*
X156411518Y-56736857D02*
X156125803Y-56594000D01*
X156125803Y-56594000D02*
X155982946Y-56451142D01*
X155982946Y-56451142D02*
X155840089Y-56165428D01*
X155840089Y-56165428D02*
X155840089Y-55308285D01*
X155840089Y-55308285D02*
X155982946Y-55022571D01*
X155982946Y-55022571D02*
X156125803Y-54879714D01*
X156125803Y-54879714D02*
X156411518Y-54736857D01*
X156411518Y-54736857D02*
X156840089Y-54736857D01*
X156840089Y-54736857D02*
X157125803Y-54879714D01*
X157125803Y-54879714D02*
X157268661Y-55022571D01*
X157268661Y-55022571D02*
X157411518Y-55308285D01*
X157411518Y-55308285D02*
X157411518Y-56165428D01*
X157411518Y-56165428D02*
X157268661Y-56451142D01*
X157268661Y-56451142D02*
X157125803Y-56594000D01*
X157125803Y-56594000D02*
X156840089Y-56736857D01*
X156840089Y-56736857D02*
X156411518Y-56736857D01*
X158697232Y-54736857D02*
X158697232Y-57736857D01*
X158697232Y-54879714D02*
X158982947Y-54736857D01*
X158982947Y-54736857D02*
X159554375Y-54736857D01*
X159554375Y-54736857D02*
X159840089Y-54879714D01*
X159840089Y-54879714D02*
X159982947Y-55022571D01*
X159982947Y-55022571D02*
X160125804Y-55308285D01*
X160125804Y-55308285D02*
X160125804Y-56165428D01*
X160125804Y-56165428D02*
X159982947Y-56451142D01*
X159982947Y-56451142D02*
X159840089Y-56594000D01*
X159840089Y-56594000D02*
X159554375Y-56736857D01*
X159554375Y-56736857D02*
X158982947Y-56736857D01*
X158982947Y-56736857D02*
X158697232Y-56594000D01*
X163554375Y-56594000D02*
X163840089Y-56736857D01*
X163840089Y-56736857D02*
X164411518Y-56736857D01*
X164411518Y-56736857D02*
X164697232Y-56594000D01*
X164697232Y-56594000D02*
X164840089Y-56308285D01*
X164840089Y-56308285D02*
X164840089Y-56165428D01*
X164840089Y-56165428D02*
X164697232Y-55879714D01*
X164697232Y-55879714D02*
X164411518Y-55736857D01*
X164411518Y-55736857D02*
X163982947Y-55736857D01*
X163982947Y-55736857D02*
X163697232Y-55594000D01*
X163697232Y-55594000D02*
X163554375Y-55308285D01*
X163554375Y-55308285D02*
X163554375Y-55165428D01*
X163554375Y-55165428D02*
X163697232Y-54879714D01*
X163697232Y-54879714D02*
X163982947Y-54736857D01*
X163982947Y-54736857D02*
X164411518Y-54736857D01*
X164411518Y-54736857D02*
X164697232Y-54879714D01*
X166125803Y-56736857D02*
X166125803Y-54736857D01*
X166125803Y-53736857D02*
X165982946Y-53879714D01*
X165982946Y-53879714D02*
X166125803Y-54022571D01*
X166125803Y-54022571D02*
X166268660Y-53879714D01*
X166268660Y-53879714D02*
X166125803Y-53736857D01*
X166125803Y-53736857D02*
X166125803Y-54022571D01*
X167982946Y-56736857D02*
X167697231Y-56594000D01*
X167697231Y-56594000D02*
X167554374Y-56308285D01*
X167554374Y-56308285D02*
X167554374Y-53736857D01*
X169125803Y-56736857D02*
X169125803Y-53736857D01*
X169411518Y-55594000D02*
X170268660Y-56736857D01*
X170268660Y-54736857D02*
X169125803Y-55879714D01*
X171411517Y-56594000D02*
X171697231Y-56736857D01*
X171697231Y-56736857D02*
X172268660Y-56736857D01*
X172268660Y-56736857D02*
X172554374Y-56594000D01*
X172554374Y-56594000D02*
X172697231Y-56308285D01*
X172697231Y-56308285D02*
X172697231Y-56165428D01*
X172697231Y-56165428D02*
X172554374Y-55879714D01*
X172554374Y-55879714D02*
X172268660Y-55736857D01*
X172268660Y-55736857D02*
X171840089Y-55736857D01*
X171840089Y-55736857D02*
X171554374Y-55594000D01*
X171554374Y-55594000D02*
X171411517Y-55308285D01*
X171411517Y-55308285D02*
X171411517Y-55165428D01*
X171411517Y-55165428D02*
X171554374Y-54879714D01*
X171554374Y-54879714D02*
X171840089Y-54736857D01*
X171840089Y-54736857D02*
X172268660Y-54736857D01*
X172268660Y-54736857D02*
X172554374Y-54879714D01*
X175268660Y-56594000D02*
X174982945Y-56736857D01*
X174982945Y-56736857D02*
X174411517Y-56736857D01*
X174411517Y-56736857D02*
X174125802Y-56594000D01*
X174125802Y-56594000D02*
X173982945Y-56451142D01*
X173982945Y-56451142D02*
X173840088Y-56165428D01*
X173840088Y-56165428D02*
X173840088Y-55308285D01*
X173840088Y-55308285D02*
X173982945Y-55022571D01*
X173982945Y-55022571D02*
X174125802Y-54879714D01*
X174125802Y-54879714D02*
X174411517Y-54736857D01*
X174411517Y-54736857D02*
X174982945Y-54736857D01*
X174982945Y-54736857D02*
X175268660Y-54879714D01*
X176554374Y-56736857D02*
X176554374Y-54736857D01*
X176554374Y-55308285D02*
X176697231Y-55022571D01*
X176697231Y-55022571D02*
X176840089Y-54879714D01*
X176840089Y-54879714D02*
X177125803Y-54736857D01*
X177125803Y-54736857D02*
X177411517Y-54736857D01*
X179554374Y-56594000D02*
X179268660Y-56736857D01*
X179268660Y-56736857D02*
X178697232Y-56736857D01*
X178697232Y-56736857D02*
X178411517Y-56594000D01*
X178411517Y-56594000D02*
X178268660Y-56308285D01*
X178268660Y-56308285D02*
X178268660Y-55165428D01*
X178268660Y-55165428D02*
X178411517Y-54879714D01*
X178411517Y-54879714D02*
X178697232Y-54736857D01*
X178697232Y-54736857D02*
X179268660Y-54736857D01*
X179268660Y-54736857D02*
X179554374Y-54879714D01*
X179554374Y-54879714D02*
X179697232Y-55165428D01*
X179697232Y-55165428D02*
X179697232Y-55451142D01*
X179697232Y-55451142D02*
X178268660Y-55736857D01*
X182125803Y-56594000D02*
X181840089Y-56736857D01*
X181840089Y-56736857D02*
X181268661Y-56736857D01*
X181268661Y-56736857D02*
X180982946Y-56594000D01*
X180982946Y-56594000D02*
X180840089Y-56308285D01*
X180840089Y-56308285D02*
X180840089Y-55165428D01*
X180840089Y-55165428D02*
X180982946Y-54879714D01*
X180982946Y-54879714D02*
X181268661Y-54736857D01*
X181268661Y-54736857D02*
X181840089Y-54736857D01*
X181840089Y-54736857D02*
X182125803Y-54879714D01*
X182125803Y-54879714D02*
X182268661Y-55165428D01*
X182268661Y-55165428D02*
X182268661Y-55451142D01*
X182268661Y-55451142D02*
X180840089Y-55736857D01*
X183554375Y-54736857D02*
X183554375Y-56736857D01*
X183554375Y-55022571D02*
X183697232Y-54879714D01*
X183697232Y-54879714D02*
X183982947Y-54736857D01*
X183982947Y-54736857D02*
X184411518Y-54736857D01*
X184411518Y-54736857D02*
X184697232Y-54879714D01*
X184697232Y-54879714D02*
X184840090Y-55165428D01*
X184840090Y-55165428D02*
X184840090Y-56736857D01*
X153268661Y-58566857D02*
X154982947Y-58566857D01*
X154125804Y-61566857D02*
X154125804Y-58566857D01*
X156411518Y-61566857D02*
X156125803Y-61424000D01*
X156125803Y-61424000D02*
X155982946Y-61281142D01*
X155982946Y-61281142D02*
X155840089Y-60995428D01*
X155840089Y-60995428D02*
X155840089Y-60138285D01*
X155840089Y-60138285D02*
X155982946Y-59852571D01*
X155982946Y-59852571D02*
X156125803Y-59709714D01*
X156125803Y-59709714D02*
X156411518Y-59566857D01*
X156411518Y-59566857D02*
X156840089Y-59566857D01*
X156840089Y-59566857D02*
X157125803Y-59709714D01*
X157125803Y-59709714D02*
X157268661Y-59852571D01*
X157268661Y-59852571D02*
X157411518Y-60138285D01*
X157411518Y-60138285D02*
X157411518Y-60995428D01*
X157411518Y-60995428D02*
X157268661Y-61281142D01*
X157268661Y-61281142D02*
X157125803Y-61424000D01*
X157125803Y-61424000D02*
X156840089Y-61566857D01*
X156840089Y-61566857D02*
X156411518Y-61566857D01*
X158697232Y-59566857D02*
X158697232Y-62566857D01*
X158697232Y-59709714D02*
X158982947Y-59566857D01*
X158982947Y-59566857D02*
X159554375Y-59566857D01*
X159554375Y-59566857D02*
X159840089Y-59709714D01*
X159840089Y-59709714D02*
X159982947Y-59852571D01*
X159982947Y-59852571D02*
X160125804Y-60138285D01*
X160125804Y-60138285D02*
X160125804Y-60995428D01*
X160125804Y-60995428D02*
X159982947Y-61281142D01*
X159982947Y-61281142D02*
X159840089Y-61424000D01*
X159840089Y-61424000D02*
X159554375Y-61566857D01*
X159554375Y-61566857D02*
X158982947Y-61566857D01*
X158982947Y-61566857D02*
X158697232Y-61424000D01*
X163554375Y-61424000D02*
X163840089Y-61566857D01*
X163840089Y-61566857D02*
X164411518Y-61566857D01*
X164411518Y-61566857D02*
X164697232Y-61424000D01*
X164697232Y-61424000D02*
X164840089Y-61138285D01*
X164840089Y-61138285D02*
X164840089Y-60995428D01*
X164840089Y-60995428D02*
X164697232Y-60709714D01*
X164697232Y-60709714D02*
X164411518Y-60566857D01*
X164411518Y-60566857D02*
X163982947Y-60566857D01*
X163982947Y-60566857D02*
X163697232Y-60424000D01*
X163697232Y-60424000D02*
X163554375Y-60138285D01*
X163554375Y-60138285D02*
X163554375Y-59995428D01*
X163554375Y-59995428D02*
X163697232Y-59709714D01*
X163697232Y-59709714D02*
X163982947Y-59566857D01*
X163982947Y-59566857D02*
X164411518Y-59566857D01*
X164411518Y-59566857D02*
X164697232Y-59709714D01*
X166554375Y-61566857D02*
X166268660Y-61424000D01*
X166268660Y-61424000D02*
X166125803Y-61281142D01*
X166125803Y-61281142D02*
X165982946Y-60995428D01*
X165982946Y-60995428D02*
X165982946Y-60138285D01*
X165982946Y-60138285D02*
X166125803Y-59852571D01*
X166125803Y-59852571D02*
X166268660Y-59709714D01*
X166268660Y-59709714D02*
X166554375Y-59566857D01*
X166554375Y-59566857D02*
X166982946Y-59566857D01*
X166982946Y-59566857D02*
X167268660Y-59709714D01*
X167268660Y-59709714D02*
X167411518Y-59852571D01*
X167411518Y-59852571D02*
X167554375Y-60138285D01*
X167554375Y-60138285D02*
X167554375Y-60995428D01*
X167554375Y-60995428D02*
X167411518Y-61281142D01*
X167411518Y-61281142D02*
X167268660Y-61424000D01*
X167268660Y-61424000D02*
X166982946Y-61566857D01*
X166982946Y-61566857D02*
X166554375Y-61566857D01*
X169268661Y-61566857D02*
X168982946Y-61424000D01*
X168982946Y-61424000D02*
X168840089Y-61138285D01*
X168840089Y-61138285D02*
X168840089Y-58566857D01*
X171697233Y-61566857D02*
X171697233Y-58566857D01*
X171697233Y-61424000D02*
X171411518Y-61566857D01*
X171411518Y-61566857D02*
X170840090Y-61566857D01*
X170840090Y-61566857D02*
X170554375Y-61424000D01*
X170554375Y-61424000D02*
X170411518Y-61281142D01*
X170411518Y-61281142D02*
X170268661Y-60995428D01*
X170268661Y-60995428D02*
X170268661Y-60138285D01*
X170268661Y-60138285D02*
X170411518Y-59852571D01*
X170411518Y-59852571D02*
X170554375Y-59709714D01*
X170554375Y-59709714D02*
X170840090Y-59566857D01*
X170840090Y-59566857D02*
X171411518Y-59566857D01*
X171411518Y-59566857D02*
X171697233Y-59709714D01*
X174268661Y-61424000D02*
X173982947Y-61566857D01*
X173982947Y-61566857D02*
X173411519Y-61566857D01*
X173411519Y-61566857D02*
X173125804Y-61424000D01*
X173125804Y-61424000D02*
X172982947Y-61138285D01*
X172982947Y-61138285D02*
X172982947Y-59995428D01*
X172982947Y-59995428D02*
X173125804Y-59709714D01*
X173125804Y-59709714D02*
X173411519Y-59566857D01*
X173411519Y-59566857D02*
X173982947Y-59566857D01*
X173982947Y-59566857D02*
X174268661Y-59709714D01*
X174268661Y-59709714D02*
X174411519Y-59995428D01*
X174411519Y-59995428D02*
X174411519Y-60281142D01*
X174411519Y-60281142D02*
X172982947Y-60566857D01*
X175697233Y-61566857D02*
X175697233Y-59566857D01*
X175697233Y-60138285D02*
X175840090Y-59852571D01*
X175840090Y-59852571D02*
X175982948Y-59709714D01*
X175982948Y-59709714D02*
X176268662Y-59566857D01*
X176268662Y-59566857D02*
X176554376Y-59566857D01*
X177554376Y-61566857D02*
X177554376Y-59566857D01*
X177554376Y-59852571D02*
X177697233Y-59709714D01*
X177697233Y-59709714D02*
X177982948Y-59566857D01*
X177982948Y-59566857D02*
X178411519Y-59566857D01*
X178411519Y-59566857D02*
X178697233Y-59709714D01*
X178697233Y-59709714D02*
X178840091Y-59995428D01*
X178840091Y-59995428D02*
X178840091Y-61566857D01*
X178840091Y-59995428D02*
X178982948Y-59709714D01*
X178982948Y-59709714D02*
X179268662Y-59566857D01*
X179268662Y-59566857D02*
X179697233Y-59566857D01*
X179697233Y-59566857D02*
X179982948Y-59709714D01*
X179982948Y-59709714D02*
X180125805Y-59995428D01*
X180125805Y-59995428D02*
X180125805Y-61566857D01*
X182840091Y-61566857D02*
X182840091Y-59995428D01*
X182840091Y-59995428D02*
X182697233Y-59709714D01*
X182697233Y-59709714D02*
X182411519Y-59566857D01*
X182411519Y-59566857D02*
X181840091Y-59566857D01*
X181840091Y-59566857D02*
X181554376Y-59709714D01*
X182840091Y-61424000D02*
X182554376Y-61566857D01*
X182554376Y-61566857D02*
X181840091Y-61566857D01*
X181840091Y-61566857D02*
X181554376Y-61424000D01*
X181554376Y-61424000D02*
X181411519Y-61138285D01*
X181411519Y-61138285D02*
X181411519Y-60852571D01*
X181411519Y-60852571D02*
X181554376Y-60566857D01*
X181554376Y-60566857D02*
X181840091Y-60424000D01*
X181840091Y-60424000D02*
X182554376Y-60424000D01*
X182554376Y-60424000D02*
X182840091Y-60281142D01*
X184125805Y-61424000D02*
X184411519Y-61566857D01*
X184411519Y-61566857D02*
X184982948Y-61566857D01*
X184982948Y-61566857D02*
X185268662Y-61424000D01*
X185268662Y-61424000D02*
X185411519Y-61138285D01*
X185411519Y-61138285D02*
X185411519Y-60995428D01*
X185411519Y-60995428D02*
X185268662Y-60709714D01*
X185268662Y-60709714D02*
X184982948Y-60566857D01*
X184982948Y-60566857D02*
X184554377Y-60566857D01*
X184554377Y-60566857D02*
X184268662Y-60424000D01*
X184268662Y-60424000D02*
X184125805Y-60138285D01*
X184125805Y-60138285D02*
X184125805Y-59995428D01*
X184125805Y-59995428D02*
X184268662Y-59709714D01*
X184268662Y-59709714D02*
X184554377Y-59566857D01*
X184554377Y-59566857D02*
X184982948Y-59566857D01*
X184982948Y-59566857D02*
X185268662Y-59709714D01*
X186697233Y-61566857D02*
X186697233Y-58566857D01*
X186982948Y-60424000D02*
X187840090Y-61566857D01*
X187840090Y-59566857D02*
X186697233Y-60709714D01*
X153268661Y-63396857D02*
X154982947Y-63396857D01*
X154125804Y-66396857D02*
X154125804Y-63396857D01*
X156411518Y-66396857D02*
X156125803Y-66254000D01*
X156125803Y-66254000D02*
X155982946Y-66111142D01*
X155982946Y-66111142D02*
X155840089Y-65825428D01*
X155840089Y-65825428D02*
X155840089Y-64968285D01*
X155840089Y-64968285D02*
X155982946Y-64682571D01*
X155982946Y-64682571D02*
X156125803Y-64539714D01*
X156125803Y-64539714D02*
X156411518Y-64396857D01*
X156411518Y-64396857D02*
X156840089Y-64396857D01*
X156840089Y-64396857D02*
X157125803Y-64539714D01*
X157125803Y-64539714D02*
X157268661Y-64682571D01*
X157268661Y-64682571D02*
X157411518Y-64968285D01*
X157411518Y-64968285D02*
X157411518Y-65825428D01*
X157411518Y-65825428D02*
X157268661Y-66111142D01*
X157268661Y-66111142D02*
X157125803Y-66254000D01*
X157125803Y-66254000D02*
X156840089Y-66396857D01*
X156840089Y-66396857D02*
X156411518Y-66396857D01*
X158697232Y-64396857D02*
X158697232Y-67396857D01*
X158697232Y-64539714D02*
X158982947Y-64396857D01*
X158982947Y-64396857D02*
X159554375Y-64396857D01*
X159554375Y-64396857D02*
X159840089Y-64539714D01*
X159840089Y-64539714D02*
X159982947Y-64682571D01*
X159982947Y-64682571D02*
X160125804Y-64968285D01*
X160125804Y-64968285D02*
X160125804Y-65825428D01*
X160125804Y-65825428D02*
X159982947Y-66111142D01*
X159982947Y-66111142D02*
X159840089Y-66254000D01*
X159840089Y-66254000D02*
X159554375Y-66396857D01*
X159554375Y-66396857D02*
X158982947Y-66396857D01*
X158982947Y-66396857D02*
X158697232Y-66254000D01*
X165125804Y-66396857D02*
X163697232Y-66396857D01*
X163697232Y-66396857D02*
X163697232Y-63396857D01*
X167411518Y-66396857D02*
X167411518Y-64825428D01*
X167411518Y-64825428D02*
X167268660Y-64539714D01*
X167268660Y-64539714D02*
X166982946Y-64396857D01*
X166982946Y-64396857D02*
X166411518Y-64396857D01*
X166411518Y-64396857D02*
X166125803Y-64539714D01*
X167411518Y-66254000D02*
X167125803Y-66396857D01*
X167125803Y-66396857D02*
X166411518Y-66396857D01*
X166411518Y-66396857D02*
X166125803Y-66254000D01*
X166125803Y-66254000D02*
X165982946Y-65968285D01*
X165982946Y-65968285D02*
X165982946Y-65682571D01*
X165982946Y-65682571D02*
X166125803Y-65396857D01*
X166125803Y-65396857D02*
X166411518Y-65254000D01*
X166411518Y-65254000D02*
X167125803Y-65254000D01*
X167125803Y-65254000D02*
X167411518Y-65111142D01*
X168554375Y-64396857D02*
X169268661Y-66396857D01*
X169982946Y-64396857D02*
X169268661Y-66396857D01*
X169268661Y-66396857D02*
X168982946Y-67111142D01*
X168982946Y-67111142D02*
X168840089Y-67254000D01*
X168840089Y-67254000D02*
X168554375Y-67396857D01*
X172268660Y-66254000D02*
X171982946Y-66396857D01*
X171982946Y-66396857D02*
X171411518Y-66396857D01*
X171411518Y-66396857D02*
X171125803Y-66254000D01*
X171125803Y-66254000D02*
X170982946Y-65968285D01*
X170982946Y-65968285D02*
X170982946Y-64825428D01*
X170982946Y-64825428D02*
X171125803Y-64539714D01*
X171125803Y-64539714D02*
X171411518Y-64396857D01*
X171411518Y-64396857D02*
X171982946Y-64396857D01*
X171982946Y-64396857D02*
X172268660Y-64539714D01*
X172268660Y-64539714D02*
X172411518Y-64825428D01*
X172411518Y-64825428D02*
X172411518Y-65111142D01*
X172411518Y-65111142D02*
X170982946Y-65396857D01*
X173697232Y-66396857D02*
X173697232Y-64396857D01*
X173697232Y-64968285D02*
X173840089Y-64682571D01*
X173840089Y-64682571D02*
X173982947Y-64539714D01*
X173982947Y-64539714D02*
X174268661Y-64396857D01*
X174268661Y-64396857D02*
X174554375Y-64396857D01*
X154697232Y-69655428D02*
X155125804Y-69798285D01*
X155125804Y-69798285D02*
X155268661Y-69941142D01*
X155268661Y-69941142D02*
X155411518Y-70226857D01*
X155411518Y-70226857D02*
X155411518Y-70655428D01*
X155411518Y-70655428D02*
X155268661Y-70941142D01*
X155268661Y-70941142D02*
X155125804Y-71084000D01*
X155125804Y-71084000D02*
X154840089Y-71226857D01*
X154840089Y-71226857D02*
X153697232Y-71226857D01*
X153697232Y-71226857D02*
X153697232Y-68226857D01*
X153697232Y-68226857D02*
X154697232Y-68226857D01*
X154697232Y-68226857D02*
X154982947Y-68369714D01*
X154982947Y-68369714D02*
X155125804Y-68512571D01*
X155125804Y-68512571D02*
X155268661Y-68798285D01*
X155268661Y-68798285D02*
X155268661Y-69084000D01*
X155268661Y-69084000D02*
X155125804Y-69369714D01*
X155125804Y-69369714D02*
X154982947Y-69512571D01*
X154982947Y-69512571D02*
X154697232Y-69655428D01*
X154697232Y-69655428D02*
X153697232Y-69655428D01*
X157125804Y-71226857D02*
X156840089Y-71084000D01*
X156840089Y-71084000D02*
X156697232Y-70941142D01*
X156697232Y-70941142D02*
X156554375Y-70655428D01*
X156554375Y-70655428D02*
X156554375Y-69798285D01*
X156554375Y-69798285D02*
X156697232Y-69512571D01*
X156697232Y-69512571D02*
X156840089Y-69369714D01*
X156840089Y-69369714D02*
X157125804Y-69226857D01*
X157125804Y-69226857D02*
X157554375Y-69226857D01*
X157554375Y-69226857D02*
X157840089Y-69369714D01*
X157840089Y-69369714D02*
X157982947Y-69512571D01*
X157982947Y-69512571D02*
X158125804Y-69798285D01*
X158125804Y-69798285D02*
X158125804Y-70655428D01*
X158125804Y-70655428D02*
X157982947Y-70941142D01*
X157982947Y-70941142D02*
X157840089Y-71084000D01*
X157840089Y-71084000D02*
X157554375Y-71226857D01*
X157554375Y-71226857D02*
X157125804Y-71226857D01*
X158982947Y-69226857D02*
X160125804Y-69226857D01*
X159411518Y-68226857D02*
X159411518Y-70798285D01*
X159411518Y-70798285D02*
X159554375Y-71084000D01*
X159554375Y-71084000D02*
X159840090Y-71226857D01*
X159840090Y-71226857D02*
X160125804Y-71226857D01*
X160697233Y-69226857D02*
X161840090Y-69226857D01*
X161125804Y-68226857D02*
X161125804Y-70798285D01*
X161125804Y-70798285D02*
X161268661Y-71084000D01*
X161268661Y-71084000D02*
X161554376Y-71226857D01*
X161554376Y-71226857D02*
X161840090Y-71226857D01*
X163268662Y-71226857D02*
X162982947Y-71084000D01*
X162982947Y-71084000D02*
X162840090Y-70941142D01*
X162840090Y-70941142D02*
X162697233Y-70655428D01*
X162697233Y-70655428D02*
X162697233Y-69798285D01*
X162697233Y-69798285D02*
X162840090Y-69512571D01*
X162840090Y-69512571D02*
X162982947Y-69369714D01*
X162982947Y-69369714D02*
X163268662Y-69226857D01*
X163268662Y-69226857D02*
X163697233Y-69226857D01*
X163697233Y-69226857D02*
X163982947Y-69369714D01*
X163982947Y-69369714D02*
X164125805Y-69512571D01*
X164125805Y-69512571D02*
X164268662Y-69798285D01*
X164268662Y-69798285D02*
X164268662Y-70655428D01*
X164268662Y-70655428D02*
X164125805Y-70941142D01*
X164125805Y-70941142D02*
X163982947Y-71084000D01*
X163982947Y-71084000D02*
X163697233Y-71226857D01*
X163697233Y-71226857D02*
X163268662Y-71226857D01*
X165554376Y-71226857D02*
X165554376Y-69226857D01*
X165554376Y-69512571D02*
X165697233Y-69369714D01*
X165697233Y-69369714D02*
X165982948Y-69226857D01*
X165982948Y-69226857D02*
X166411519Y-69226857D01*
X166411519Y-69226857D02*
X166697233Y-69369714D01*
X166697233Y-69369714D02*
X166840091Y-69655428D01*
X166840091Y-69655428D02*
X166840091Y-71226857D01*
X166840091Y-69655428D02*
X166982948Y-69369714D01*
X166982948Y-69369714D02*
X167268662Y-69226857D01*
X167268662Y-69226857D02*
X167697233Y-69226857D01*
X167697233Y-69226857D02*
X167982948Y-69369714D01*
X167982948Y-69369714D02*
X168125805Y-69655428D01*
X168125805Y-69655428D02*
X168125805Y-71226857D01*
X173268662Y-71226857D02*
X171840090Y-71226857D01*
X171840090Y-71226857D02*
X171840090Y-68226857D01*
X175554376Y-71226857D02*
X175554376Y-69655428D01*
X175554376Y-69655428D02*
X175411518Y-69369714D01*
X175411518Y-69369714D02*
X175125804Y-69226857D01*
X175125804Y-69226857D02*
X174554376Y-69226857D01*
X174554376Y-69226857D02*
X174268661Y-69369714D01*
X175554376Y-71084000D02*
X175268661Y-71226857D01*
X175268661Y-71226857D02*
X174554376Y-71226857D01*
X174554376Y-71226857D02*
X174268661Y-71084000D01*
X174268661Y-71084000D02*
X174125804Y-70798285D01*
X174125804Y-70798285D02*
X174125804Y-70512571D01*
X174125804Y-70512571D02*
X174268661Y-70226857D01*
X174268661Y-70226857D02*
X174554376Y-70084000D01*
X174554376Y-70084000D02*
X175268661Y-70084000D01*
X175268661Y-70084000D02*
X175554376Y-69941142D01*
X176697233Y-69226857D02*
X177411519Y-71226857D01*
X178125804Y-69226857D02*
X177411519Y-71226857D01*
X177411519Y-71226857D02*
X177125804Y-71941142D01*
X177125804Y-71941142D02*
X176982947Y-72084000D01*
X176982947Y-72084000D02*
X176697233Y-72226857D01*
X180411518Y-71084000D02*
X180125804Y-71226857D01*
X180125804Y-71226857D02*
X179554376Y-71226857D01*
X179554376Y-71226857D02*
X179268661Y-71084000D01*
X179268661Y-71084000D02*
X179125804Y-70798285D01*
X179125804Y-70798285D02*
X179125804Y-69655428D01*
X179125804Y-69655428D02*
X179268661Y-69369714D01*
X179268661Y-69369714D02*
X179554376Y-69226857D01*
X179554376Y-69226857D02*
X180125804Y-69226857D01*
X180125804Y-69226857D02*
X180411518Y-69369714D01*
X180411518Y-69369714D02*
X180554376Y-69655428D01*
X180554376Y-69655428D02*
X180554376Y-69941142D01*
X180554376Y-69941142D02*
X179125804Y-70226857D01*
X181840090Y-71226857D02*
X181840090Y-69226857D01*
X181840090Y-69798285D02*
X181982947Y-69512571D01*
X181982947Y-69512571D02*
X182125805Y-69369714D01*
X182125805Y-69369714D02*
X182411519Y-69226857D01*
X182411519Y-69226857D02*
X182697233Y-69226857D01*
X154697232Y-74485428D02*
X155125804Y-74628285D01*
X155125804Y-74628285D02*
X155268661Y-74771142D01*
X155268661Y-74771142D02*
X155411518Y-75056857D01*
X155411518Y-75056857D02*
X155411518Y-75485428D01*
X155411518Y-75485428D02*
X155268661Y-75771142D01*
X155268661Y-75771142D02*
X155125804Y-75914000D01*
X155125804Y-75914000D02*
X154840089Y-76056857D01*
X154840089Y-76056857D02*
X153697232Y-76056857D01*
X153697232Y-76056857D02*
X153697232Y-73056857D01*
X153697232Y-73056857D02*
X154697232Y-73056857D01*
X154697232Y-73056857D02*
X154982947Y-73199714D01*
X154982947Y-73199714D02*
X155125804Y-73342571D01*
X155125804Y-73342571D02*
X155268661Y-73628285D01*
X155268661Y-73628285D02*
X155268661Y-73914000D01*
X155268661Y-73914000D02*
X155125804Y-74199714D01*
X155125804Y-74199714D02*
X154982947Y-74342571D01*
X154982947Y-74342571D02*
X154697232Y-74485428D01*
X154697232Y-74485428D02*
X153697232Y-74485428D01*
X157125804Y-76056857D02*
X156840089Y-75914000D01*
X156840089Y-75914000D02*
X156697232Y-75771142D01*
X156697232Y-75771142D02*
X156554375Y-75485428D01*
X156554375Y-75485428D02*
X156554375Y-74628285D01*
X156554375Y-74628285D02*
X156697232Y-74342571D01*
X156697232Y-74342571D02*
X156840089Y-74199714D01*
X156840089Y-74199714D02*
X157125804Y-74056857D01*
X157125804Y-74056857D02*
X157554375Y-74056857D01*
X157554375Y-74056857D02*
X157840089Y-74199714D01*
X157840089Y-74199714D02*
X157982947Y-74342571D01*
X157982947Y-74342571D02*
X158125804Y-74628285D01*
X158125804Y-74628285D02*
X158125804Y-75485428D01*
X158125804Y-75485428D02*
X157982947Y-75771142D01*
X157982947Y-75771142D02*
X157840089Y-75914000D01*
X157840089Y-75914000D02*
X157554375Y-76056857D01*
X157554375Y-76056857D02*
X157125804Y-76056857D01*
X158982947Y-74056857D02*
X160125804Y-74056857D01*
X159411518Y-73056857D02*
X159411518Y-75628285D01*
X159411518Y-75628285D02*
X159554375Y-75914000D01*
X159554375Y-75914000D02*
X159840090Y-76056857D01*
X159840090Y-76056857D02*
X160125804Y-76056857D01*
X160697233Y-74056857D02*
X161840090Y-74056857D01*
X161125804Y-73056857D02*
X161125804Y-75628285D01*
X161125804Y-75628285D02*
X161268661Y-75914000D01*
X161268661Y-75914000D02*
X161554376Y-76056857D01*
X161554376Y-76056857D02*
X161840090Y-76056857D01*
X163268662Y-76056857D02*
X162982947Y-75914000D01*
X162982947Y-75914000D02*
X162840090Y-75771142D01*
X162840090Y-75771142D02*
X162697233Y-75485428D01*
X162697233Y-75485428D02*
X162697233Y-74628285D01*
X162697233Y-74628285D02*
X162840090Y-74342571D01*
X162840090Y-74342571D02*
X162982947Y-74199714D01*
X162982947Y-74199714D02*
X163268662Y-74056857D01*
X163268662Y-74056857D02*
X163697233Y-74056857D01*
X163697233Y-74056857D02*
X163982947Y-74199714D01*
X163982947Y-74199714D02*
X164125805Y-74342571D01*
X164125805Y-74342571D02*
X164268662Y-74628285D01*
X164268662Y-74628285D02*
X164268662Y-75485428D01*
X164268662Y-75485428D02*
X164125805Y-75771142D01*
X164125805Y-75771142D02*
X163982947Y-75914000D01*
X163982947Y-75914000D02*
X163697233Y-76056857D01*
X163697233Y-76056857D02*
X163268662Y-76056857D01*
X165554376Y-76056857D02*
X165554376Y-74056857D01*
X165554376Y-74342571D02*
X165697233Y-74199714D01*
X165697233Y-74199714D02*
X165982948Y-74056857D01*
X165982948Y-74056857D02*
X166411519Y-74056857D01*
X166411519Y-74056857D02*
X166697233Y-74199714D01*
X166697233Y-74199714D02*
X166840091Y-74485428D01*
X166840091Y-74485428D02*
X166840091Y-76056857D01*
X166840091Y-74485428D02*
X166982948Y-74199714D01*
X166982948Y-74199714D02*
X167268662Y-74056857D01*
X167268662Y-74056857D02*
X167697233Y-74056857D01*
X167697233Y-74056857D02*
X167982948Y-74199714D01*
X167982948Y-74199714D02*
X168125805Y-74485428D01*
X168125805Y-74485428D02*
X168125805Y-76056857D01*
X171697233Y-75914000D02*
X171982947Y-76056857D01*
X171982947Y-76056857D02*
X172554376Y-76056857D01*
X172554376Y-76056857D02*
X172840090Y-75914000D01*
X172840090Y-75914000D02*
X172982947Y-75628285D01*
X172982947Y-75628285D02*
X172982947Y-75485428D01*
X172982947Y-75485428D02*
X172840090Y-75199714D01*
X172840090Y-75199714D02*
X172554376Y-75056857D01*
X172554376Y-75056857D02*
X172125805Y-75056857D01*
X172125805Y-75056857D02*
X171840090Y-74914000D01*
X171840090Y-74914000D02*
X171697233Y-74628285D01*
X171697233Y-74628285D02*
X171697233Y-74485428D01*
X171697233Y-74485428D02*
X171840090Y-74199714D01*
X171840090Y-74199714D02*
X172125805Y-74056857D01*
X172125805Y-74056857D02*
X172554376Y-74056857D01*
X172554376Y-74056857D02*
X172840090Y-74199714D01*
X174697233Y-76056857D02*
X174411518Y-75914000D01*
X174411518Y-75914000D02*
X174268661Y-75771142D01*
X174268661Y-75771142D02*
X174125804Y-75485428D01*
X174125804Y-75485428D02*
X174125804Y-74628285D01*
X174125804Y-74628285D02*
X174268661Y-74342571D01*
X174268661Y-74342571D02*
X174411518Y-74199714D01*
X174411518Y-74199714D02*
X174697233Y-74056857D01*
X174697233Y-74056857D02*
X175125804Y-74056857D01*
X175125804Y-74056857D02*
X175411518Y-74199714D01*
X175411518Y-74199714D02*
X175554376Y-74342571D01*
X175554376Y-74342571D02*
X175697233Y-74628285D01*
X175697233Y-74628285D02*
X175697233Y-75485428D01*
X175697233Y-75485428D02*
X175554376Y-75771142D01*
X175554376Y-75771142D02*
X175411518Y-75914000D01*
X175411518Y-75914000D02*
X175125804Y-76056857D01*
X175125804Y-76056857D02*
X174697233Y-76056857D01*
X177411519Y-76056857D02*
X177125804Y-75914000D01*
X177125804Y-75914000D02*
X176982947Y-75628285D01*
X176982947Y-75628285D02*
X176982947Y-73056857D01*
X179840091Y-76056857D02*
X179840091Y-73056857D01*
X179840091Y-75914000D02*
X179554376Y-76056857D01*
X179554376Y-76056857D02*
X178982948Y-76056857D01*
X178982948Y-76056857D02*
X178697233Y-75914000D01*
X178697233Y-75914000D02*
X178554376Y-75771142D01*
X178554376Y-75771142D02*
X178411519Y-75485428D01*
X178411519Y-75485428D02*
X178411519Y-74628285D01*
X178411519Y-74628285D02*
X178554376Y-74342571D01*
X178554376Y-74342571D02*
X178697233Y-74199714D01*
X178697233Y-74199714D02*
X178982948Y-74056857D01*
X178982948Y-74056857D02*
X179554376Y-74056857D01*
X179554376Y-74056857D02*
X179840091Y-74199714D01*
X182411519Y-75914000D02*
X182125805Y-76056857D01*
X182125805Y-76056857D02*
X181554377Y-76056857D01*
X181554377Y-76056857D02*
X181268662Y-75914000D01*
X181268662Y-75914000D02*
X181125805Y-75628285D01*
X181125805Y-75628285D02*
X181125805Y-74485428D01*
X181125805Y-74485428D02*
X181268662Y-74199714D01*
X181268662Y-74199714D02*
X181554377Y-74056857D01*
X181554377Y-74056857D02*
X182125805Y-74056857D01*
X182125805Y-74056857D02*
X182411519Y-74199714D01*
X182411519Y-74199714D02*
X182554377Y-74485428D01*
X182554377Y-74485428D02*
X182554377Y-74771142D01*
X182554377Y-74771142D02*
X181125805Y-75056857D01*
X183840091Y-76056857D02*
X183840091Y-74056857D01*
X183840091Y-74628285D02*
X183982948Y-74342571D01*
X183982948Y-74342571D02*
X184125806Y-74199714D01*
X184125806Y-74199714D02*
X184411520Y-74056857D01*
X184411520Y-74056857D02*
X184697234Y-74056857D01*
X185697234Y-76056857D02*
X185697234Y-74056857D01*
X185697234Y-74342571D02*
X185840091Y-74199714D01*
X185840091Y-74199714D02*
X186125806Y-74056857D01*
X186125806Y-74056857D02*
X186554377Y-74056857D01*
X186554377Y-74056857D02*
X186840091Y-74199714D01*
X186840091Y-74199714D02*
X186982949Y-74485428D01*
X186982949Y-74485428D02*
X186982949Y-76056857D01*
X186982949Y-74485428D02*
X187125806Y-74199714D01*
X187125806Y-74199714D02*
X187411520Y-74056857D01*
X187411520Y-74056857D02*
X187840091Y-74056857D01*
X187840091Y-74056857D02*
X188125806Y-74199714D01*
X188125806Y-74199714D02*
X188268663Y-74485428D01*
X188268663Y-74485428D02*
X188268663Y-76056857D01*
X190982949Y-76056857D02*
X190982949Y-74485428D01*
X190982949Y-74485428D02*
X190840091Y-74199714D01*
X190840091Y-74199714D02*
X190554377Y-74056857D01*
X190554377Y-74056857D02*
X189982949Y-74056857D01*
X189982949Y-74056857D02*
X189697234Y-74199714D01*
X190982949Y-75914000D02*
X190697234Y-76056857D01*
X190697234Y-76056857D02*
X189982949Y-76056857D01*
X189982949Y-76056857D02*
X189697234Y-75914000D01*
X189697234Y-75914000D02*
X189554377Y-75628285D01*
X189554377Y-75628285D02*
X189554377Y-75342571D01*
X189554377Y-75342571D02*
X189697234Y-75056857D01*
X189697234Y-75056857D02*
X189982949Y-74914000D01*
X189982949Y-74914000D02*
X190697234Y-74914000D01*
X190697234Y-74914000D02*
X190982949Y-74771142D01*
X192268663Y-75914000D02*
X192554377Y-76056857D01*
X192554377Y-76056857D02*
X193125806Y-76056857D01*
X193125806Y-76056857D02*
X193411520Y-75914000D01*
X193411520Y-75914000D02*
X193554377Y-75628285D01*
X193554377Y-75628285D02*
X193554377Y-75485428D01*
X193554377Y-75485428D02*
X193411520Y-75199714D01*
X193411520Y-75199714D02*
X193125806Y-75056857D01*
X193125806Y-75056857D02*
X192697235Y-75056857D01*
X192697235Y-75056857D02*
X192411520Y-74914000D01*
X192411520Y-74914000D02*
X192268663Y-74628285D01*
X192268663Y-74628285D02*
X192268663Y-74485428D01*
X192268663Y-74485428D02*
X192411520Y-74199714D01*
X192411520Y-74199714D02*
X192697235Y-74056857D01*
X192697235Y-74056857D02*
X193125806Y-74056857D01*
X193125806Y-74056857D02*
X193411520Y-74199714D01*
X194840091Y-76056857D02*
X194840091Y-73056857D01*
X195125806Y-74914000D02*
X195982948Y-76056857D01*
X195982948Y-74056857D02*
X194840091Y-75199714D01*
X154697232Y-79315428D02*
X155125804Y-79458285D01*
X155125804Y-79458285D02*
X155268661Y-79601142D01*
X155268661Y-79601142D02*
X155411518Y-79886857D01*
X155411518Y-79886857D02*
X155411518Y-80315428D01*
X155411518Y-80315428D02*
X155268661Y-80601142D01*
X155268661Y-80601142D02*
X155125804Y-80744000D01*
X155125804Y-80744000D02*
X154840089Y-80886857D01*
X154840089Y-80886857D02*
X153697232Y-80886857D01*
X153697232Y-80886857D02*
X153697232Y-77886857D01*
X153697232Y-77886857D02*
X154697232Y-77886857D01*
X154697232Y-77886857D02*
X154982947Y-78029714D01*
X154982947Y-78029714D02*
X155125804Y-78172571D01*
X155125804Y-78172571D02*
X155268661Y-78458285D01*
X155268661Y-78458285D02*
X155268661Y-78744000D01*
X155268661Y-78744000D02*
X155125804Y-79029714D01*
X155125804Y-79029714D02*
X154982947Y-79172571D01*
X154982947Y-79172571D02*
X154697232Y-79315428D01*
X154697232Y-79315428D02*
X153697232Y-79315428D01*
X157125804Y-80886857D02*
X156840089Y-80744000D01*
X156840089Y-80744000D02*
X156697232Y-80601142D01*
X156697232Y-80601142D02*
X156554375Y-80315428D01*
X156554375Y-80315428D02*
X156554375Y-79458285D01*
X156554375Y-79458285D02*
X156697232Y-79172571D01*
X156697232Y-79172571D02*
X156840089Y-79029714D01*
X156840089Y-79029714D02*
X157125804Y-78886857D01*
X157125804Y-78886857D02*
X157554375Y-78886857D01*
X157554375Y-78886857D02*
X157840089Y-79029714D01*
X157840089Y-79029714D02*
X157982947Y-79172571D01*
X157982947Y-79172571D02*
X158125804Y-79458285D01*
X158125804Y-79458285D02*
X158125804Y-80315428D01*
X158125804Y-80315428D02*
X157982947Y-80601142D01*
X157982947Y-80601142D02*
X157840089Y-80744000D01*
X157840089Y-80744000D02*
X157554375Y-80886857D01*
X157554375Y-80886857D02*
X157125804Y-80886857D01*
X158982947Y-78886857D02*
X160125804Y-78886857D01*
X159411518Y-77886857D02*
X159411518Y-80458285D01*
X159411518Y-80458285D02*
X159554375Y-80744000D01*
X159554375Y-80744000D02*
X159840090Y-80886857D01*
X159840090Y-80886857D02*
X160125804Y-80886857D01*
X160697233Y-78886857D02*
X161840090Y-78886857D01*
X161125804Y-77886857D02*
X161125804Y-80458285D01*
X161125804Y-80458285D02*
X161268661Y-80744000D01*
X161268661Y-80744000D02*
X161554376Y-80886857D01*
X161554376Y-80886857D02*
X161840090Y-80886857D01*
X163268662Y-80886857D02*
X162982947Y-80744000D01*
X162982947Y-80744000D02*
X162840090Y-80601142D01*
X162840090Y-80601142D02*
X162697233Y-80315428D01*
X162697233Y-80315428D02*
X162697233Y-79458285D01*
X162697233Y-79458285D02*
X162840090Y-79172571D01*
X162840090Y-79172571D02*
X162982947Y-79029714D01*
X162982947Y-79029714D02*
X163268662Y-78886857D01*
X163268662Y-78886857D02*
X163697233Y-78886857D01*
X163697233Y-78886857D02*
X163982947Y-79029714D01*
X163982947Y-79029714D02*
X164125805Y-79172571D01*
X164125805Y-79172571D02*
X164268662Y-79458285D01*
X164268662Y-79458285D02*
X164268662Y-80315428D01*
X164268662Y-80315428D02*
X164125805Y-80601142D01*
X164125805Y-80601142D02*
X163982947Y-80744000D01*
X163982947Y-80744000D02*
X163697233Y-80886857D01*
X163697233Y-80886857D02*
X163268662Y-80886857D01*
X165554376Y-80886857D02*
X165554376Y-78886857D01*
X165554376Y-79172571D02*
X165697233Y-79029714D01*
X165697233Y-79029714D02*
X165982948Y-78886857D01*
X165982948Y-78886857D02*
X166411519Y-78886857D01*
X166411519Y-78886857D02*
X166697233Y-79029714D01*
X166697233Y-79029714D02*
X166840091Y-79315428D01*
X166840091Y-79315428D02*
X166840091Y-80886857D01*
X166840091Y-79315428D02*
X166982948Y-79029714D01*
X166982948Y-79029714D02*
X167268662Y-78886857D01*
X167268662Y-78886857D02*
X167697233Y-78886857D01*
X167697233Y-78886857D02*
X167982948Y-79029714D01*
X167982948Y-79029714D02*
X168125805Y-79315428D01*
X168125805Y-79315428D02*
X168125805Y-80886857D01*
X171697233Y-80744000D02*
X171982947Y-80886857D01*
X171982947Y-80886857D02*
X172554376Y-80886857D01*
X172554376Y-80886857D02*
X172840090Y-80744000D01*
X172840090Y-80744000D02*
X172982947Y-80458285D01*
X172982947Y-80458285D02*
X172982947Y-80315428D01*
X172982947Y-80315428D02*
X172840090Y-80029714D01*
X172840090Y-80029714D02*
X172554376Y-79886857D01*
X172554376Y-79886857D02*
X172125805Y-79886857D01*
X172125805Y-79886857D02*
X171840090Y-79744000D01*
X171840090Y-79744000D02*
X171697233Y-79458285D01*
X171697233Y-79458285D02*
X171697233Y-79315428D01*
X171697233Y-79315428D02*
X171840090Y-79029714D01*
X171840090Y-79029714D02*
X172125805Y-78886857D01*
X172125805Y-78886857D02*
X172554376Y-78886857D01*
X172554376Y-78886857D02*
X172840090Y-79029714D01*
X174268661Y-80886857D02*
X174268661Y-78886857D01*
X174268661Y-77886857D02*
X174125804Y-78029714D01*
X174125804Y-78029714D02*
X174268661Y-78172571D01*
X174268661Y-78172571D02*
X174411518Y-78029714D01*
X174411518Y-78029714D02*
X174268661Y-77886857D01*
X174268661Y-77886857D02*
X174268661Y-78172571D01*
X176125804Y-80886857D02*
X175840089Y-80744000D01*
X175840089Y-80744000D02*
X175697232Y-80458285D01*
X175697232Y-80458285D02*
X175697232Y-77886857D01*
X177268661Y-80886857D02*
X177268661Y-77886857D01*
X177554376Y-79744000D02*
X178411518Y-80886857D01*
X178411518Y-78886857D02*
X177268661Y-80029714D01*
X179554375Y-80744000D02*
X179840089Y-80886857D01*
X179840089Y-80886857D02*
X180411518Y-80886857D01*
X180411518Y-80886857D02*
X180697232Y-80744000D01*
X180697232Y-80744000D02*
X180840089Y-80458285D01*
X180840089Y-80458285D02*
X180840089Y-80315428D01*
X180840089Y-80315428D02*
X180697232Y-80029714D01*
X180697232Y-80029714D02*
X180411518Y-79886857D01*
X180411518Y-79886857D02*
X179982947Y-79886857D01*
X179982947Y-79886857D02*
X179697232Y-79744000D01*
X179697232Y-79744000D02*
X179554375Y-79458285D01*
X179554375Y-79458285D02*
X179554375Y-79315428D01*
X179554375Y-79315428D02*
X179697232Y-79029714D01*
X179697232Y-79029714D02*
X179982947Y-78886857D01*
X179982947Y-78886857D02*
X180411518Y-78886857D01*
X180411518Y-78886857D02*
X180697232Y-79029714D01*
X183411518Y-80744000D02*
X183125803Y-80886857D01*
X183125803Y-80886857D02*
X182554375Y-80886857D01*
X182554375Y-80886857D02*
X182268660Y-80744000D01*
X182268660Y-80744000D02*
X182125803Y-80601142D01*
X182125803Y-80601142D02*
X181982946Y-80315428D01*
X181982946Y-80315428D02*
X181982946Y-79458285D01*
X181982946Y-79458285D02*
X182125803Y-79172571D01*
X182125803Y-79172571D02*
X182268660Y-79029714D01*
X182268660Y-79029714D02*
X182554375Y-78886857D01*
X182554375Y-78886857D02*
X183125803Y-78886857D01*
X183125803Y-78886857D02*
X183411518Y-79029714D01*
X184697232Y-80886857D02*
X184697232Y-78886857D01*
X184697232Y-79458285D02*
X184840089Y-79172571D01*
X184840089Y-79172571D02*
X184982947Y-79029714D01*
X184982947Y-79029714D02*
X185268661Y-78886857D01*
X185268661Y-78886857D02*
X185554375Y-78886857D01*
X187697232Y-80744000D02*
X187411518Y-80886857D01*
X187411518Y-80886857D02*
X186840090Y-80886857D01*
X186840090Y-80886857D02*
X186554375Y-80744000D01*
X186554375Y-80744000D02*
X186411518Y-80458285D01*
X186411518Y-80458285D02*
X186411518Y-79315428D01*
X186411518Y-79315428D02*
X186554375Y-79029714D01*
X186554375Y-79029714D02*
X186840090Y-78886857D01*
X186840090Y-78886857D02*
X187411518Y-78886857D01*
X187411518Y-78886857D02*
X187697232Y-79029714D01*
X187697232Y-79029714D02*
X187840090Y-79315428D01*
X187840090Y-79315428D02*
X187840090Y-79601142D01*
X187840090Y-79601142D02*
X186411518Y-79886857D01*
X190268661Y-80744000D02*
X189982947Y-80886857D01*
X189982947Y-80886857D02*
X189411519Y-80886857D01*
X189411519Y-80886857D02*
X189125804Y-80744000D01*
X189125804Y-80744000D02*
X188982947Y-80458285D01*
X188982947Y-80458285D02*
X188982947Y-79315428D01*
X188982947Y-79315428D02*
X189125804Y-79029714D01*
X189125804Y-79029714D02*
X189411519Y-78886857D01*
X189411519Y-78886857D02*
X189982947Y-78886857D01*
X189982947Y-78886857D02*
X190268661Y-79029714D01*
X190268661Y-79029714D02*
X190411519Y-79315428D01*
X190411519Y-79315428D02*
X190411519Y-79601142D01*
X190411519Y-79601142D02*
X188982947Y-79886857D01*
X191697233Y-78886857D02*
X191697233Y-80886857D01*
X191697233Y-79172571D02*
X191840090Y-79029714D01*
X191840090Y-79029714D02*
X192125805Y-78886857D01*
X192125805Y-78886857D02*
X192554376Y-78886857D01*
X192554376Y-78886857D02*
X192840090Y-79029714D01*
X192840090Y-79029714D02*
X192982948Y-79315428D01*
X192982948Y-79315428D02*
X192982948Y-80886857D01*
X22836239Y-108539987D02*
X22836239Y-108159035D01*
X22836239Y-108159035D02*
X22741001Y-107968558D01*
X22741001Y-107968558D02*
X22645762Y-107873320D01*
X22645762Y-107873320D02*
X22360048Y-107682844D01*
X22360048Y-107682844D02*
X21979096Y-107587606D01*
X21979096Y-107587606D02*
X21217191Y-107587606D01*
X21217191Y-107587606D02*
X21026715Y-107682844D01*
X21026715Y-107682844D02*
X20931477Y-107778082D01*
X20931477Y-107778082D02*
X20836239Y-107968558D01*
X20836239Y-107968558D02*
X20836239Y-108349511D01*
X20836239Y-108349511D02*
X20931477Y-108539987D01*
X20931477Y-108539987D02*
X21026715Y-108635225D01*
X21026715Y-108635225D02*
X21217191Y-108730463D01*
X21217191Y-108730463D02*
X21693381Y-108730463D01*
X21693381Y-108730463D02*
X21883858Y-108635225D01*
X21883858Y-108635225D02*
X21979096Y-108539987D01*
X21979096Y-108539987D02*
X22074334Y-108349511D01*
X22074334Y-108349511D02*
X22074334Y-107968558D01*
X22074334Y-107968558D02*
X21979096Y-107778082D01*
X21979096Y-107778082D02*
X21883858Y-107682844D01*
X21883858Y-107682844D02*
X21693381Y-107587606D01*
X20836239Y-105778082D02*
X20836239Y-106730463D01*
X20836239Y-106730463D02*
X21788620Y-106825701D01*
X21788620Y-106825701D02*
X21693381Y-106730463D01*
X21693381Y-106730463D02*
X21598143Y-106539987D01*
X21598143Y-106539987D02*
X21598143Y-106063796D01*
X21598143Y-106063796D02*
X21693381Y-105873320D01*
X21693381Y-105873320D02*
X21788620Y-105778082D01*
X21788620Y-105778082D02*
X21979096Y-105682844D01*
X21979096Y-105682844D02*
X22455286Y-105682844D01*
X22455286Y-105682844D02*
X22645762Y-105778082D01*
X22645762Y-105778082D02*
X22741001Y-105873320D01*
X22741001Y-105873320D02*
X22836239Y-106063796D01*
X22836239Y-106063796D02*
X22836239Y-106539987D01*
X22836239Y-106539987D02*
X22741001Y-106730463D01*
X22741001Y-106730463D02*
X22645762Y-106825701D01*
X22645762Y-104825701D02*
X22741001Y-104730463D01*
X22741001Y-104730463D02*
X22836239Y-104825701D01*
X22836239Y-104825701D02*
X22741001Y-104920939D01*
X22741001Y-104920939D02*
X22645762Y-104825701D01*
X22645762Y-104825701D02*
X22836239Y-104825701D01*
X20836239Y-103492368D02*
X20836239Y-103301891D01*
X20836239Y-103301891D02*
X20931477Y-103111415D01*
X20931477Y-103111415D02*
X21026715Y-103016177D01*
X21026715Y-103016177D02*
X21217191Y-102920939D01*
X21217191Y-102920939D02*
X21598143Y-102825701D01*
X21598143Y-102825701D02*
X22074334Y-102825701D01*
X22074334Y-102825701D02*
X22455286Y-102920939D01*
X22455286Y-102920939D02*
X22645762Y-103016177D01*
X22645762Y-103016177D02*
X22741001Y-103111415D01*
X22741001Y-103111415D02*
X22836239Y-103301891D01*
X22836239Y-103301891D02*
X22836239Y-103492368D01*
X22836239Y-103492368D02*
X22741001Y-103682844D01*
X22741001Y-103682844D02*
X22645762Y-103778082D01*
X22645762Y-103778082D02*
X22455286Y-103873320D01*
X22455286Y-103873320D02*
X22074334Y-103968558D01*
X22074334Y-103968558D02*
X21598143Y-103968558D01*
X21598143Y-103968558D02*
X21217191Y-103873320D01*
X21217191Y-103873320D02*
X21026715Y-103778082D01*
X21026715Y-103778082D02*
X20931477Y-103682844D01*
X20931477Y-103682844D02*
X20836239Y-103492368D01*
X20836239Y-101587606D02*
X20836239Y-101397129D01*
X20836239Y-101397129D02*
X20931477Y-101206653D01*
X20931477Y-101206653D02*
X21026715Y-101111415D01*
X21026715Y-101111415D02*
X21217191Y-101016177D01*
X21217191Y-101016177D02*
X21598143Y-100920939D01*
X21598143Y-100920939D02*
X22074334Y-100920939D01*
X22074334Y-100920939D02*
X22455286Y-101016177D01*
X22455286Y-101016177D02*
X22645762Y-101111415D01*
X22645762Y-101111415D02*
X22741001Y-101206653D01*
X22741001Y-101206653D02*
X22836239Y-101397129D01*
X22836239Y-101397129D02*
X22836239Y-101587606D01*
X22836239Y-101587606D02*
X22741001Y-101778082D01*
X22741001Y-101778082D02*
X22645762Y-101873320D01*
X22645762Y-101873320D02*
X22455286Y-101968558D01*
X22455286Y-101968558D02*
X22074334Y-102063796D01*
X22074334Y-102063796D02*
X21598143Y-102063796D01*
X21598143Y-102063796D02*
X21217191Y-101968558D01*
X21217191Y-101968558D02*
X21026715Y-101873320D01*
X21026715Y-101873320D02*
X20931477Y-101778082D01*
X20931477Y-101778082D02*
X20836239Y-101587606D01*
X20836239Y-99682844D02*
X20836239Y-99492367D01*
X20836239Y-99492367D02*
X20931477Y-99301891D01*
X20931477Y-99301891D02*
X21026715Y-99206653D01*
X21026715Y-99206653D02*
X21217191Y-99111415D01*
X21217191Y-99111415D02*
X21598143Y-99016177D01*
X21598143Y-99016177D02*
X22074334Y-99016177D01*
X22074334Y-99016177D02*
X22455286Y-99111415D01*
X22455286Y-99111415D02*
X22645762Y-99206653D01*
X22645762Y-99206653D02*
X22741001Y-99301891D01*
X22741001Y-99301891D02*
X22836239Y-99492367D01*
X22836239Y-99492367D02*
X22836239Y-99682844D01*
X22836239Y-99682844D02*
X22741001Y-99873320D01*
X22741001Y-99873320D02*
X22645762Y-99968558D01*
X22645762Y-99968558D02*
X22455286Y-100063796D01*
X22455286Y-100063796D02*
X22074334Y-100159034D01*
X22074334Y-100159034D02*
X21598143Y-100159034D01*
X21598143Y-100159034D02*
X21217191Y-100063796D01*
X21217191Y-100063796D02*
X21026715Y-99968558D01*
X21026715Y-99968558D02*
X20931477Y-99873320D01*
X20931477Y-99873320D02*
X20836239Y-99682844D01*
X20836239Y-97778082D02*
X20836239Y-97587605D01*
X20836239Y-97587605D02*
X20931477Y-97397129D01*
X20931477Y-97397129D02*
X21026715Y-97301891D01*
X21026715Y-97301891D02*
X21217191Y-97206653D01*
X21217191Y-97206653D02*
X21598143Y-97111415D01*
X21598143Y-97111415D02*
X22074334Y-97111415D01*
X22074334Y-97111415D02*
X22455286Y-97206653D01*
X22455286Y-97206653D02*
X22645762Y-97301891D01*
X22645762Y-97301891D02*
X22741001Y-97397129D01*
X22741001Y-97397129D02*
X22836239Y-97587605D01*
X22836239Y-97587605D02*
X22836239Y-97778082D01*
X22836239Y-97778082D02*
X22741001Y-97968558D01*
X22741001Y-97968558D02*
X22645762Y-98063796D01*
X22645762Y-98063796D02*
X22455286Y-98159034D01*
X22455286Y-98159034D02*
X22074334Y-98254272D01*
X22074334Y-98254272D02*
X21598143Y-98254272D01*
X21598143Y-98254272D02*
X21217191Y-98159034D01*
X21217191Y-98159034D02*
X21026715Y-98063796D01*
X21026715Y-98063796D02*
X20931477Y-97968558D01*
X20931477Y-97968558D02*
X20836239Y-97778082D01*
X22836239Y-94730462D02*
X21502905Y-94730462D01*
X21693381Y-94730462D02*
X21598143Y-94635224D01*
X21598143Y-94635224D02*
X21502905Y-94444748D01*
X21502905Y-94444748D02*
X21502905Y-94159033D01*
X21502905Y-94159033D02*
X21598143Y-93968557D01*
X21598143Y-93968557D02*
X21788620Y-93873319D01*
X21788620Y-93873319D02*
X22836239Y-93873319D01*
X21788620Y-93873319D02*
X21598143Y-93778081D01*
X21598143Y-93778081D02*
X21502905Y-93587605D01*
X21502905Y-93587605D02*
X21502905Y-93301891D01*
X21502905Y-93301891D02*
X21598143Y-93111414D01*
X21598143Y-93111414D02*
X21788620Y-93016176D01*
X21788620Y-93016176D02*
X22836239Y-93016176D01*
X22836239Y-92063795D02*
X21502905Y-92063795D01*
X21693381Y-92063795D02*
X21598143Y-91968557D01*
X21598143Y-91968557D02*
X21502905Y-91778081D01*
X21502905Y-91778081D02*
X21502905Y-91492366D01*
X21502905Y-91492366D02*
X21598143Y-91301890D01*
X21598143Y-91301890D02*
X21788620Y-91206652D01*
X21788620Y-91206652D02*
X22836239Y-91206652D01*
X21788620Y-91206652D02*
X21598143Y-91111414D01*
X21598143Y-91111414D02*
X21502905Y-90920938D01*
X21502905Y-90920938D02*
X21502905Y-90635224D01*
X21502905Y-90635224D02*
X21598143Y-90444747D01*
X21598143Y-90444747D02*
X21788620Y-90349509D01*
X21788620Y-90349509D02*
X22836239Y-90349509D01*
D12*
X28636000Y-51992368D02*
X23850581Y-51992368D01*
X28636000Y-146992368D02*
X23850581Y-146992368D01*
X24437001Y-51992368D02*
X24437001Y-146992368D01*
X24437001Y-51992368D02*
X24437001Y-146992368D01*
X24437001Y-51992368D02*
X25023422Y-53118872D01*
X24437001Y-51992368D02*
X23850580Y-53118872D01*
X24437001Y-146992368D02*
X23850580Y-145865864D01*
X24437001Y-146992368D02*
X25023422Y-145865864D01*
D10*
X54802666Y-45563606D02*
X56135999Y-45563606D01*
X56135999Y-45563606D02*
X55278856Y-47563606D01*
X57278856Y-45563606D02*
X57469333Y-45563606D01*
X57469333Y-45563606D02*
X57659809Y-45658844D01*
X57659809Y-45658844D02*
X57755047Y-45754082D01*
X57755047Y-45754082D02*
X57850285Y-45944558D01*
X57850285Y-45944558D02*
X57945523Y-46325510D01*
X57945523Y-46325510D02*
X57945523Y-46801701D01*
X57945523Y-46801701D02*
X57850285Y-47182653D01*
X57850285Y-47182653D02*
X57755047Y-47373129D01*
X57755047Y-47373129D02*
X57659809Y-47468368D01*
X57659809Y-47468368D02*
X57469333Y-47563606D01*
X57469333Y-47563606D02*
X57278856Y-47563606D01*
X57278856Y-47563606D02*
X57088380Y-47468368D01*
X57088380Y-47468368D02*
X56993142Y-47373129D01*
X56993142Y-47373129D02*
X56897904Y-47182653D01*
X56897904Y-47182653D02*
X56802666Y-46801701D01*
X56802666Y-46801701D02*
X56802666Y-46325510D01*
X56802666Y-46325510D02*
X56897904Y-45944558D01*
X56897904Y-45944558D02*
X56993142Y-45754082D01*
X56993142Y-45754082D02*
X57088380Y-45658844D01*
X57088380Y-45658844D02*
X57278856Y-45563606D01*
X58802666Y-47373129D02*
X58897904Y-47468368D01*
X58897904Y-47468368D02*
X58802666Y-47563606D01*
X58802666Y-47563606D02*
X58707428Y-47468368D01*
X58707428Y-47468368D02*
X58802666Y-47373129D01*
X58802666Y-47373129D02*
X58802666Y-47563606D01*
X60135999Y-45563606D02*
X60326476Y-45563606D01*
X60326476Y-45563606D02*
X60516952Y-45658844D01*
X60516952Y-45658844D02*
X60612190Y-45754082D01*
X60612190Y-45754082D02*
X60707428Y-45944558D01*
X60707428Y-45944558D02*
X60802666Y-46325510D01*
X60802666Y-46325510D02*
X60802666Y-46801701D01*
X60802666Y-46801701D02*
X60707428Y-47182653D01*
X60707428Y-47182653D02*
X60612190Y-47373129D01*
X60612190Y-47373129D02*
X60516952Y-47468368D01*
X60516952Y-47468368D02*
X60326476Y-47563606D01*
X60326476Y-47563606D02*
X60135999Y-47563606D01*
X60135999Y-47563606D02*
X59945523Y-47468368D01*
X59945523Y-47468368D02*
X59850285Y-47373129D01*
X59850285Y-47373129D02*
X59755047Y-47182653D01*
X59755047Y-47182653D02*
X59659809Y-46801701D01*
X59659809Y-46801701D02*
X59659809Y-46325510D01*
X59659809Y-46325510D02*
X59755047Y-45944558D01*
X59755047Y-45944558D02*
X59850285Y-45754082D01*
X59850285Y-45754082D02*
X59945523Y-45658844D01*
X59945523Y-45658844D02*
X60135999Y-45563606D01*
X62040761Y-45563606D02*
X62231238Y-45563606D01*
X62231238Y-45563606D02*
X62421714Y-45658844D01*
X62421714Y-45658844D02*
X62516952Y-45754082D01*
X62516952Y-45754082D02*
X62612190Y-45944558D01*
X62612190Y-45944558D02*
X62707428Y-46325510D01*
X62707428Y-46325510D02*
X62707428Y-46801701D01*
X62707428Y-46801701D02*
X62612190Y-47182653D01*
X62612190Y-47182653D02*
X62516952Y-47373129D01*
X62516952Y-47373129D02*
X62421714Y-47468368D01*
X62421714Y-47468368D02*
X62231238Y-47563606D01*
X62231238Y-47563606D02*
X62040761Y-47563606D01*
X62040761Y-47563606D02*
X61850285Y-47468368D01*
X61850285Y-47468368D02*
X61755047Y-47373129D01*
X61755047Y-47373129D02*
X61659809Y-47182653D01*
X61659809Y-47182653D02*
X61564571Y-46801701D01*
X61564571Y-46801701D02*
X61564571Y-46325510D01*
X61564571Y-46325510D02*
X61659809Y-45944558D01*
X61659809Y-45944558D02*
X61755047Y-45754082D01*
X61755047Y-45754082D02*
X61850285Y-45658844D01*
X61850285Y-45658844D02*
X62040761Y-45563606D01*
X63945523Y-45563606D02*
X64136000Y-45563606D01*
X64136000Y-45563606D02*
X64326476Y-45658844D01*
X64326476Y-45658844D02*
X64421714Y-45754082D01*
X64421714Y-45754082D02*
X64516952Y-45944558D01*
X64516952Y-45944558D02*
X64612190Y-46325510D01*
X64612190Y-46325510D02*
X64612190Y-46801701D01*
X64612190Y-46801701D02*
X64516952Y-47182653D01*
X64516952Y-47182653D02*
X64421714Y-47373129D01*
X64421714Y-47373129D02*
X64326476Y-47468368D01*
X64326476Y-47468368D02*
X64136000Y-47563606D01*
X64136000Y-47563606D02*
X63945523Y-47563606D01*
X63945523Y-47563606D02*
X63755047Y-47468368D01*
X63755047Y-47468368D02*
X63659809Y-47373129D01*
X63659809Y-47373129D02*
X63564571Y-47182653D01*
X63564571Y-47182653D02*
X63469333Y-46801701D01*
X63469333Y-46801701D02*
X63469333Y-46325510D01*
X63469333Y-46325510D02*
X63564571Y-45944558D01*
X63564571Y-45944558D02*
X63659809Y-45754082D01*
X63659809Y-45754082D02*
X63755047Y-45658844D01*
X63755047Y-45658844D02*
X63945523Y-45563606D01*
X65850285Y-45563606D02*
X66040762Y-45563606D01*
X66040762Y-45563606D02*
X66231238Y-45658844D01*
X66231238Y-45658844D02*
X66326476Y-45754082D01*
X66326476Y-45754082D02*
X66421714Y-45944558D01*
X66421714Y-45944558D02*
X66516952Y-46325510D01*
X66516952Y-46325510D02*
X66516952Y-46801701D01*
X66516952Y-46801701D02*
X66421714Y-47182653D01*
X66421714Y-47182653D02*
X66326476Y-47373129D01*
X66326476Y-47373129D02*
X66231238Y-47468368D01*
X66231238Y-47468368D02*
X66040762Y-47563606D01*
X66040762Y-47563606D02*
X65850285Y-47563606D01*
X65850285Y-47563606D02*
X65659809Y-47468368D01*
X65659809Y-47468368D02*
X65564571Y-47373129D01*
X65564571Y-47373129D02*
X65469333Y-47182653D01*
X65469333Y-47182653D02*
X65374095Y-46801701D01*
X65374095Y-46801701D02*
X65374095Y-46325510D01*
X65374095Y-46325510D02*
X65469333Y-45944558D01*
X65469333Y-45944558D02*
X65564571Y-45754082D01*
X65564571Y-45754082D02*
X65659809Y-45658844D01*
X65659809Y-45658844D02*
X65850285Y-45563606D01*
X68897905Y-47563606D02*
X68897905Y-46230272D01*
X68897905Y-46420748D02*
X68993143Y-46325510D01*
X68993143Y-46325510D02*
X69183619Y-46230272D01*
X69183619Y-46230272D02*
X69469334Y-46230272D01*
X69469334Y-46230272D02*
X69659810Y-46325510D01*
X69659810Y-46325510D02*
X69755048Y-46515987D01*
X69755048Y-46515987D02*
X69755048Y-47563606D01*
X69755048Y-46515987D02*
X69850286Y-46325510D01*
X69850286Y-46325510D02*
X70040762Y-46230272D01*
X70040762Y-46230272D02*
X70326476Y-46230272D01*
X70326476Y-46230272D02*
X70516953Y-46325510D01*
X70516953Y-46325510D02*
X70612191Y-46515987D01*
X70612191Y-46515987D02*
X70612191Y-47563606D01*
X71564572Y-47563606D02*
X71564572Y-46230272D01*
X71564572Y-46420748D02*
X71659810Y-46325510D01*
X71659810Y-46325510D02*
X71850286Y-46230272D01*
X71850286Y-46230272D02*
X72136001Y-46230272D01*
X72136001Y-46230272D02*
X72326477Y-46325510D01*
X72326477Y-46325510D02*
X72421715Y-46515987D01*
X72421715Y-46515987D02*
X72421715Y-47563606D01*
X72421715Y-46515987D02*
X72516953Y-46325510D01*
X72516953Y-46325510D02*
X72707429Y-46230272D01*
X72707429Y-46230272D02*
X72993143Y-46230272D01*
X72993143Y-46230272D02*
X73183620Y-46325510D01*
X73183620Y-46325510D02*
X73278858Y-46515987D01*
X73278858Y-46515987D02*
X73278858Y-47563606D01*
D12*
X29136000Y-51492368D02*
X29136000Y-48577948D01*
X99136000Y-51492368D02*
X99136000Y-48577948D01*
X29136000Y-49164368D02*
X99136000Y-49164368D01*
X29136000Y-49164368D02*
X99136000Y-49164368D01*
X29136000Y-49164368D02*
X30262504Y-48577947D01*
X29136000Y-49164368D02*
X30262504Y-49750789D01*
X99136000Y-49164368D02*
X98009496Y-49750789D01*
X99136000Y-49164368D02*
X98009496Y-48577947D01*
M02*
