%TF.GenerationSoftware,KiCad,Pcbnew,7.0.5*%
%TF.CreationDate,2023-07-07T20:15:01+07:00*%
%TF.ProjectId,Intership_board,496e7465-7273-4686-9970-5f626f617264,rev?*%
%TF.SameCoordinates,Original*%
%TF.FileFunction,Legend,Bot*%
%TF.FilePolarity,Positive*%
%FSLAX46Y46*%
G04 Gerber Fmt 4.6, Leading zero omitted, Abs format (unit mm)*
G04 Created by KiCad (PCBNEW 7.0.5) date 2023-07-07 20:15:01*
%MOMM*%
%LPD*%
G01*
G04 APERTURE LIST*
%ADD10C,0.150000*%
%ADD11C,0.120000*%
G04 APERTURE END LIST*
D10*
%TO.C,D5*%
X54766094Y-112638187D02*
X54766094Y-111638187D01*
X54766094Y-111638187D02*
X54527999Y-111638187D01*
X54527999Y-111638187D02*
X54385142Y-111685806D01*
X54385142Y-111685806D02*
X54289904Y-111781044D01*
X54289904Y-111781044D02*
X54242285Y-111876282D01*
X54242285Y-111876282D02*
X54194666Y-112066758D01*
X54194666Y-112066758D02*
X54194666Y-112209615D01*
X54194666Y-112209615D02*
X54242285Y-112400091D01*
X54242285Y-112400091D02*
X54289904Y-112495329D01*
X54289904Y-112495329D02*
X54385142Y-112590568D01*
X54385142Y-112590568D02*
X54527999Y-112638187D01*
X54527999Y-112638187D02*
X54766094Y-112638187D01*
X53289904Y-111638187D02*
X53766094Y-111638187D01*
X53766094Y-111638187D02*
X53813713Y-112114377D01*
X53813713Y-112114377D02*
X53766094Y-112066758D01*
X53766094Y-112066758D02*
X53670856Y-112019139D01*
X53670856Y-112019139D02*
X53432761Y-112019139D01*
X53432761Y-112019139D02*
X53337523Y-112066758D01*
X53337523Y-112066758D02*
X53289904Y-112114377D01*
X53289904Y-112114377D02*
X53242285Y-112209615D01*
X53242285Y-112209615D02*
X53242285Y-112447710D01*
X53242285Y-112447710D02*
X53289904Y-112542948D01*
X53289904Y-112542948D02*
X53337523Y-112590568D01*
X53337523Y-112590568D02*
X53432761Y-112638187D01*
X53432761Y-112638187D02*
X53670856Y-112638187D01*
X53670856Y-112638187D02*
X53766094Y-112590568D01*
X53766094Y-112590568D02*
X53813713Y-112542948D01*
%TO.C,C12*%
X95172380Y-87891510D02*
X95220000Y-87843891D01*
X95220000Y-87843891D02*
X95267619Y-87701034D01*
X95267619Y-87701034D02*
X95267619Y-87605796D01*
X95267619Y-87605796D02*
X95220000Y-87462939D01*
X95220000Y-87462939D02*
X95124761Y-87367701D01*
X95124761Y-87367701D02*
X95029523Y-87320082D01*
X95029523Y-87320082D02*
X94839047Y-87272463D01*
X94839047Y-87272463D02*
X94696190Y-87272463D01*
X94696190Y-87272463D02*
X94505714Y-87320082D01*
X94505714Y-87320082D02*
X94410476Y-87367701D01*
X94410476Y-87367701D02*
X94315238Y-87462939D01*
X94315238Y-87462939D02*
X94267619Y-87605796D01*
X94267619Y-87605796D02*
X94267619Y-87701034D01*
X94267619Y-87701034D02*
X94315238Y-87843891D01*
X94315238Y-87843891D02*
X94362857Y-87891510D01*
X95267619Y-88843891D02*
X95267619Y-88272463D01*
X95267619Y-88558177D02*
X94267619Y-88558177D01*
X94267619Y-88558177D02*
X94410476Y-88462939D01*
X94410476Y-88462939D02*
X94505714Y-88367701D01*
X94505714Y-88367701D02*
X94553333Y-88272463D01*
X94362857Y-89224844D02*
X94315238Y-89272463D01*
X94315238Y-89272463D02*
X94267619Y-89367701D01*
X94267619Y-89367701D02*
X94267619Y-89605796D01*
X94267619Y-89605796D02*
X94315238Y-89701034D01*
X94315238Y-89701034D02*
X94362857Y-89748653D01*
X94362857Y-89748653D02*
X94458095Y-89796272D01*
X94458095Y-89796272D02*
X94553333Y-89796272D01*
X94553333Y-89796272D02*
X94696190Y-89748653D01*
X94696190Y-89748653D02*
X95267619Y-89177225D01*
X95267619Y-89177225D02*
X95267619Y-89796272D01*
%TO.C,R6*%
X95122819Y-120117701D02*
X94646628Y-119784368D01*
X95122819Y-119546273D02*
X94122819Y-119546273D01*
X94122819Y-119546273D02*
X94122819Y-119927225D01*
X94122819Y-119927225D02*
X94170438Y-120022463D01*
X94170438Y-120022463D02*
X94218057Y-120070082D01*
X94218057Y-120070082D02*
X94313295Y-120117701D01*
X94313295Y-120117701D02*
X94456152Y-120117701D01*
X94456152Y-120117701D02*
X94551390Y-120070082D01*
X94551390Y-120070082D02*
X94599009Y-120022463D01*
X94599009Y-120022463D02*
X94646628Y-119927225D01*
X94646628Y-119927225D02*
X94646628Y-119546273D01*
X94122819Y-120974844D02*
X94122819Y-120784368D01*
X94122819Y-120784368D02*
X94170438Y-120689130D01*
X94170438Y-120689130D02*
X94218057Y-120641511D01*
X94218057Y-120641511D02*
X94360914Y-120546273D01*
X94360914Y-120546273D02*
X94551390Y-120498654D01*
X94551390Y-120498654D02*
X94932342Y-120498654D01*
X94932342Y-120498654D02*
X95027580Y-120546273D01*
X95027580Y-120546273D02*
X95075200Y-120593892D01*
X95075200Y-120593892D02*
X95122819Y-120689130D01*
X95122819Y-120689130D02*
X95122819Y-120879606D01*
X95122819Y-120879606D02*
X95075200Y-120974844D01*
X95075200Y-120974844D02*
X95027580Y-121022463D01*
X95027580Y-121022463D02*
X94932342Y-121070082D01*
X94932342Y-121070082D02*
X94694247Y-121070082D01*
X94694247Y-121070082D02*
X94599009Y-121022463D01*
X94599009Y-121022463D02*
X94551390Y-120974844D01*
X94551390Y-120974844D02*
X94503771Y-120879606D01*
X94503771Y-120879606D02*
X94503771Y-120689130D01*
X94503771Y-120689130D02*
X94551390Y-120593892D01*
X94551390Y-120593892D02*
X94599009Y-120546273D01*
X94599009Y-120546273D02*
X94694247Y-120498654D01*
%TO.C,R8*%
X93691666Y-134676187D02*
X94024999Y-134199996D01*
X94263094Y-134676187D02*
X94263094Y-133676187D01*
X94263094Y-133676187D02*
X93882142Y-133676187D01*
X93882142Y-133676187D02*
X93786904Y-133723806D01*
X93786904Y-133723806D02*
X93739285Y-133771425D01*
X93739285Y-133771425D02*
X93691666Y-133866663D01*
X93691666Y-133866663D02*
X93691666Y-134009520D01*
X93691666Y-134009520D02*
X93739285Y-134104758D01*
X93739285Y-134104758D02*
X93786904Y-134152377D01*
X93786904Y-134152377D02*
X93882142Y-134199996D01*
X93882142Y-134199996D02*
X94263094Y-134199996D01*
X93120237Y-134104758D02*
X93215475Y-134057139D01*
X93215475Y-134057139D02*
X93263094Y-134009520D01*
X93263094Y-134009520D02*
X93310713Y-133914282D01*
X93310713Y-133914282D02*
X93310713Y-133866663D01*
X93310713Y-133866663D02*
X93263094Y-133771425D01*
X93263094Y-133771425D02*
X93215475Y-133723806D01*
X93215475Y-133723806D02*
X93120237Y-133676187D01*
X93120237Y-133676187D02*
X92929761Y-133676187D01*
X92929761Y-133676187D02*
X92834523Y-133723806D01*
X92834523Y-133723806D02*
X92786904Y-133771425D01*
X92786904Y-133771425D02*
X92739285Y-133866663D01*
X92739285Y-133866663D02*
X92739285Y-133914282D01*
X92739285Y-133914282D02*
X92786904Y-134009520D01*
X92786904Y-134009520D02*
X92834523Y-134057139D01*
X92834523Y-134057139D02*
X92929761Y-134104758D01*
X92929761Y-134104758D02*
X93120237Y-134104758D01*
X93120237Y-134104758D02*
X93215475Y-134152377D01*
X93215475Y-134152377D02*
X93263094Y-134199996D01*
X93263094Y-134199996D02*
X93310713Y-134295234D01*
X93310713Y-134295234D02*
X93310713Y-134485710D01*
X93310713Y-134485710D02*
X93263094Y-134580948D01*
X93263094Y-134580948D02*
X93215475Y-134628568D01*
X93215475Y-134628568D02*
X93120237Y-134676187D01*
X93120237Y-134676187D02*
X92929761Y-134676187D01*
X92929761Y-134676187D02*
X92834523Y-134628568D01*
X92834523Y-134628568D02*
X92786904Y-134580948D01*
X92786904Y-134580948D02*
X92739285Y-134485710D01*
X92739285Y-134485710D02*
X92739285Y-134295234D01*
X92739285Y-134295234D02*
X92786904Y-134199996D01*
X92786904Y-134199996D02*
X92834523Y-134152377D01*
X92834523Y-134152377D02*
X92929761Y-134104758D01*
%TO.C,C16*%
X86801857Y-126231948D02*
X86849476Y-126279568D01*
X86849476Y-126279568D02*
X86992333Y-126327187D01*
X86992333Y-126327187D02*
X87087571Y-126327187D01*
X87087571Y-126327187D02*
X87230428Y-126279568D01*
X87230428Y-126279568D02*
X87325666Y-126184329D01*
X87325666Y-126184329D02*
X87373285Y-126089091D01*
X87373285Y-126089091D02*
X87420904Y-125898615D01*
X87420904Y-125898615D02*
X87420904Y-125755758D01*
X87420904Y-125755758D02*
X87373285Y-125565282D01*
X87373285Y-125565282D02*
X87325666Y-125470044D01*
X87325666Y-125470044D02*
X87230428Y-125374806D01*
X87230428Y-125374806D02*
X87087571Y-125327187D01*
X87087571Y-125327187D02*
X86992333Y-125327187D01*
X86992333Y-125327187D02*
X86849476Y-125374806D01*
X86849476Y-125374806D02*
X86801857Y-125422425D01*
X85849476Y-126327187D02*
X86420904Y-126327187D01*
X86135190Y-126327187D02*
X86135190Y-125327187D01*
X86135190Y-125327187D02*
X86230428Y-125470044D01*
X86230428Y-125470044D02*
X86325666Y-125565282D01*
X86325666Y-125565282D02*
X86420904Y-125612901D01*
X84992333Y-125327187D02*
X85182809Y-125327187D01*
X85182809Y-125327187D02*
X85278047Y-125374806D01*
X85278047Y-125374806D02*
X85325666Y-125422425D01*
X85325666Y-125422425D02*
X85420904Y-125565282D01*
X85420904Y-125565282D02*
X85468523Y-125755758D01*
X85468523Y-125755758D02*
X85468523Y-126136710D01*
X85468523Y-126136710D02*
X85420904Y-126231948D01*
X85420904Y-126231948D02*
X85373285Y-126279568D01*
X85373285Y-126279568D02*
X85278047Y-126327187D01*
X85278047Y-126327187D02*
X85087571Y-126327187D01*
X85087571Y-126327187D02*
X84992333Y-126279568D01*
X84992333Y-126279568D02*
X84944714Y-126231948D01*
X84944714Y-126231948D02*
X84897095Y-126136710D01*
X84897095Y-126136710D02*
X84897095Y-125898615D01*
X84897095Y-125898615D02*
X84944714Y-125803377D01*
X84944714Y-125803377D02*
X84992333Y-125755758D01*
X84992333Y-125755758D02*
X85087571Y-125708139D01*
X85087571Y-125708139D02*
X85278047Y-125708139D01*
X85278047Y-125708139D02*
X85373285Y-125755758D01*
X85373285Y-125755758D02*
X85420904Y-125803377D01*
X85420904Y-125803377D02*
X85468523Y-125898615D01*
%TO.C,R9*%
X83184819Y-118212701D02*
X82708628Y-117879368D01*
X83184819Y-117641273D02*
X82184819Y-117641273D01*
X82184819Y-117641273D02*
X82184819Y-118022225D01*
X82184819Y-118022225D02*
X82232438Y-118117463D01*
X82232438Y-118117463D02*
X82280057Y-118165082D01*
X82280057Y-118165082D02*
X82375295Y-118212701D01*
X82375295Y-118212701D02*
X82518152Y-118212701D01*
X82518152Y-118212701D02*
X82613390Y-118165082D01*
X82613390Y-118165082D02*
X82661009Y-118117463D01*
X82661009Y-118117463D02*
X82708628Y-118022225D01*
X82708628Y-118022225D02*
X82708628Y-117641273D01*
X83184819Y-118688892D02*
X83184819Y-118879368D01*
X83184819Y-118879368D02*
X83137200Y-118974606D01*
X83137200Y-118974606D02*
X83089580Y-119022225D01*
X83089580Y-119022225D02*
X82946723Y-119117463D01*
X82946723Y-119117463D02*
X82756247Y-119165082D01*
X82756247Y-119165082D02*
X82375295Y-119165082D01*
X82375295Y-119165082D02*
X82280057Y-119117463D01*
X82280057Y-119117463D02*
X82232438Y-119069844D01*
X82232438Y-119069844D02*
X82184819Y-118974606D01*
X82184819Y-118974606D02*
X82184819Y-118784130D01*
X82184819Y-118784130D02*
X82232438Y-118688892D01*
X82232438Y-118688892D02*
X82280057Y-118641273D01*
X82280057Y-118641273D02*
X82375295Y-118593654D01*
X82375295Y-118593654D02*
X82613390Y-118593654D01*
X82613390Y-118593654D02*
X82708628Y-118641273D01*
X82708628Y-118641273D02*
X82756247Y-118688892D01*
X82756247Y-118688892D02*
X82803866Y-118784130D01*
X82803866Y-118784130D02*
X82803866Y-118974606D01*
X82803866Y-118974606D02*
X82756247Y-119069844D01*
X82756247Y-119069844D02*
X82708628Y-119117463D01*
X82708628Y-119117463D02*
X82613390Y-119165082D01*
%TO.C,D6*%
X54766094Y-132450187D02*
X54766094Y-131450187D01*
X54766094Y-131450187D02*
X54527999Y-131450187D01*
X54527999Y-131450187D02*
X54385142Y-131497806D01*
X54385142Y-131497806D02*
X54289904Y-131593044D01*
X54289904Y-131593044D02*
X54242285Y-131688282D01*
X54242285Y-131688282D02*
X54194666Y-131878758D01*
X54194666Y-131878758D02*
X54194666Y-132021615D01*
X54194666Y-132021615D02*
X54242285Y-132212091D01*
X54242285Y-132212091D02*
X54289904Y-132307329D01*
X54289904Y-132307329D02*
X54385142Y-132402568D01*
X54385142Y-132402568D02*
X54527999Y-132450187D01*
X54527999Y-132450187D02*
X54766094Y-132450187D01*
X53337523Y-131450187D02*
X53527999Y-131450187D01*
X53527999Y-131450187D02*
X53623237Y-131497806D01*
X53623237Y-131497806D02*
X53670856Y-131545425D01*
X53670856Y-131545425D02*
X53766094Y-131688282D01*
X53766094Y-131688282D02*
X53813713Y-131878758D01*
X53813713Y-131878758D02*
X53813713Y-132259710D01*
X53813713Y-132259710D02*
X53766094Y-132354948D01*
X53766094Y-132354948D02*
X53718475Y-132402568D01*
X53718475Y-132402568D02*
X53623237Y-132450187D01*
X53623237Y-132450187D02*
X53432761Y-132450187D01*
X53432761Y-132450187D02*
X53337523Y-132402568D01*
X53337523Y-132402568D02*
X53289904Y-132354948D01*
X53289904Y-132354948D02*
X53242285Y-132259710D01*
X53242285Y-132259710D02*
X53242285Y-132021615D01*
X53242285Y-132021615D02*
X53289904Y-131926377D01*
X53289904Y-131926377D02*
X53337523Y-131878758D01*
X53337523Y-131878758D02*
X53432761Y-131831139D01*
X53432761Y-131831139D02*
X53623237Y-131831139D01*
X53623237Y-131831139D02*
X53718475Y-131878758D01*
X53718475Y-131878758D02*
X53766094Y-131926377D01*
X53766094Y-131926377D02*
X53813713Y-132021615D01*
%TO.C,D4*%
X54766094Y-92572187D02*
X54766094Y-91572187D01*
X54766094Y-91572187D02*
X54527999Y-91572187D01*
X54527999Y-91572187D02*
X54385142Y-91619806D01*
X54385142Y-91619806D02*
X54289904Y-91715044D01*
X54289904Y-91715044D02*
X54242285Y-91810282D01*
X54242285Y-91810282D02*
X54194666Y-92000758D01*
X54194666Y-92000758D02*
X54194666Y-92143615D01*
X54194666Y-92143615D02*
X54242285Y-92334091D01*
X54242285Y-92334091D02*
X54289904Y-92429329D01*
X54289904Y-92429329D02*
X54385142Y-92524568D01*
X54385142Y-92524568D02*
X54527999Y-92572187D01*
X54527999Y-92572187D02*
X54766094Y-92572187D01*
X53337523Y-91905520D02*
X53337523Y-92572187D01*
X53575618Y-91524568D02*
X53813713Y-92238853D01*
X53813713Y-92238853D02*
X53194666Y-92238853D01*
%TO.C,R12*%
X69148857Y-92787187D02*
X69482190Y-92310996D01*
X69720285Y-92787187D02*
X69720285Y-91787187D01*
X69720285Y-91787187D02*
X69339333Y-91787187D01*
X69339333Y-91787187D02*
X69244095Y-91834806D01*
X69244095Y-91834806D02*
X69196476Y-91882425D01*
X69196476Y-91882425D02*
X69148857Y-91977663D01*
X69148857Y-91977663D02*
X69148857Y-92120520D01*
X69148857Y-92120520D02*
X69196476Y-92215758D01*
X69196476Y-92215758D02*
X69244095Y-92263377D01*
X69244095Y-92263377D02*
X69339333Y-92310996D01*
X69339333Y-92310996D02*
X69720285Y-92310996D01*
X68196476Y-92787187D02*
X68767904Y-92787187D01*
X68482190Y-92787187D02*
X68482190Y-91787187D01*
X68482190Y-91787187D02*
X68577428Y-91930044D01*
X68577428Y-91930044D02*
X68672666Y-92025282D01*
X68672666Y-92025282D02*
X68767904Y-92072901D01*
X67815523Y-91882425D02*
X67767904Y-91834806D01*
X67767904Y-91834806D02*
X67672666Y-91787187D01*
X67672666Y-91787187D02*
X67434571Y-91787187D01*
X67434571Y-91787187D02*
X67339333Y-91834806D01*
X67339333Y-91834806D02*
X67291714Y-91882425D01*
X67291714Y-91882425D02*
X67244095Y-91977663D01*
X67244095Y-91977663D02*
X67244095Y-92072901D01*
X67244095Y-92072901D02*
X67291714Y-92215758D01*
X67291714Y-92215758D02*
X67863142Y-92787187D01*
X67863142Y-92787187D02*
X67244095Y-92787187D01*
%TO.C,R14*%
X69148857Y-112853187D02*
X69482190Y-112376996D01*
X69720285Y-112853187D02*
X69720285Y-111853187D01*
X69720285Y-111853187D02*
X69339333Y-111853187D01*
X69339333Y-111853187D02*
X69244095Y-111900806D01*
X69244095Y-111900806D02*
X69196476Y-111948425D01*
X69196476Y-111948425D02*
X69148857Y-112043663D01*
X69148857Y-112043663D02*
X69148857Y-112186520D01*
X69148857Y-112186520D02*
X69196476Y-112281758D01*
X69196476Y-112281758D02*
X69244095Y-112329377D01*
X69244095Y-112329377D02*
X69339333Y-112376996D01*
X69339333Y-112376996D02*
X69720285Y-112376996D01*
X68196476Y-112853187D02*
X68767904Y-112853187D01*
X68482190Y-112853187D02*
X68482190Y-111853187D01*
X68482190Y-111853187D02*
X68577428Y-111996044D01*
X68577428Y-111996044D02*
X68672666Y-112091282D01*
X68672666Y-112091282D02*
X68767904Y-112138901D01*
X67339333Y-112186520D02*
X67339333Y-112853187D01*
X67577428Y-111805568D02*
X67815523Y-112519853D01*
X67815523Y-112519853D02*
X67196476Y-112519853D01*
%TO.C,R7*%
X93691666Y-130231187D02*
X94024999Y-129754996D01*
X94263094Y-130231187D02*
X94263094Y-129231187D01*
X94263094Y-129231187D02*
X93882142Y-129231187D01*
X93882142Y-129231187D02*
X93786904Y-129278806D01*
X93786904Y-129278806D02*
X93739285Y-129326425D01*
X93739285Y-129326425D02*
X93691666Y-129421663D01*
X93691666Y-129421663D02*
X93691666Y-129564520D01*
X93691666Y-129564520D02*
X93739285Y-129659758D01*
X93739285Y-129659758D02*
X93786904Y-129707377D01*
X93786904Y-129707377D02*
X93882142Y-129754996D01*
X93882142Y-129754996D02*
X94263094Y-129754996D01*
X93358332Y-129231187D02*
X92691666Y-129231187D01*
X92691666Y-129231187D02*
X93120237Y-130231187D01*
%TO.C,R16*%
X69148857Y-132932187D02*
X69482190Y-132455996D01*
X69720285Y-132932187D02*
X69720285Y-131932187D01*
X69720285Y-131932187D02*
X69339333Y-131932187D01*
X69339333Y-131932187D02*
X69244095Y-131979806D01*
X69244095Y-131979806D02*
X69196476Y-132027425D01*
X69196476Y-132027425D02*
X69148857Y-132122663D01*
X69148857Y-132122663D02*
X69148857Y-132265520D01*
X69148857Y-132265520D02*
X69196476Y-132360758D01*
X69196476Y-132360758D02*
X69244095Y-132408377D01*
X69244095Y-132408377D02*
X69339333Y-132455996D01*
X69339333Y-132455996D02*
X69720285Y-132455996D01*
X68196476Y-132932187D02*
X68767904Y-132932187D01*
X68482190Y-132932187D02*
X68482190Y-131932187D01*
X68482190Y-131932187D02*
X68577428Y-132075044D01*
X68577428Y-132075044D02*
X68672666Y-132170282D01*
X68672666Y-132170282D02*
X68767904Y-132217901D01*
X67339333Y-131932187D02*
X67529809Y-131932187D01*
X67529809Y-131932187D02*
X67625047Y-131979806D01*
X67625047Y-131979806D02*
X67672666Y-132027425D01*
X67672666Y-132027425D02*
X67767904Y-132170282D01*
X67767904Y-132170282D02*
X67815523Y-132360758D01*
X67815523Y-132360758D02*
X67815523Y-132741710D01*
X67815523Y-132741710D02*
X67767904Y-132836948D01*
X67767904Y-132836948D02*
X67720285Y-132884568D01*
X67720285Y-132884568D02*
X67625047Y-132932187D01*
X67625047Y-132932187D02*
X67434571Y-132932187D01*
X67434571Y-132932187D02*
X67339333Y-132884568D01*
X67339333Y-132884568D02*
X67291714Y-132836948D01*
X67291714Y-132836948D02*
X67244095Y-132741710D01*
X67244095Y-132741710D02*
X67244095Y-132503615D01*
X67244095Y-132503615D02*
X67291714Y-132408377D01*
X67291714Y-132408377D02*
X67339333Y-132360758D01*
X67339333Y-132360758D02*
X67434571Y-132313139D01*
X67434571Y-132313139D02*
X67625047Y-132313139D01*
X67625047Y-132313139D02*
X67720285Y-132360758D01*
X67720285Y-132360758D02*
X67767904Y-132408377D01*
X67767904Y-132408377D02*
X67815523Y-132503615D01*
D11*
%TO.C,D5*%
X57538000Y-116333368D02*
X52028000Y-116333368D01*
X57538000Y-113033368D02*
X57538000Y-116333368D01*
X57538000Y-113033368D02*
X52028000Y-113033368D01*
%TO.C,C12*%
X96752800Y-88393788D02*
X96752800Y-88674948D01*
X95732800Y-88393788D02*
X95732800Y-88674948D01*
%TO.C,R6*%
X96932742Y-119730868D02*
X97407258Y-119730868D01*
X96932742Y-120775868D02*
X97407258Y-120775868D01*
%TO.C,R8*%
X93762258Y-136173868D02*
X93287742Y-136173868D01*
X93762258Y-135128868D02*
X93287742Y-135128868D01*
%TO.C,C16*%
X85598200Y-128349748D02*
X85598200Y-128068588D01*
X86618200Y-128349748D02*
X86618200Y-128068588D01*
%TO.C,R9*%
X84727942Y-117856868D02*
X85202458Y-117856868D01*
X84727942Y-118901868D02*
X85202458Y-118901868D01*
%TO.C,D6*%
X57538000Y-136145368D02*
X52028000Y-136145368D01*
X57538000Y-132845368D02*
X57538000Y-136145368D01*
X57538000Y-132845368D02*
X52028000Y-132845368D01*
%TO.C,D4*%
X57538000Y-96267368D02*
X52028000Y-96267368D01*
X57538000Y-92967368D02*
X57538000Y-96267368D01*
X57538000Y-92967368D02*
X52028000Y-92967368D01*
%TO.C,R12*%
X68733064Y-94717368D02*
X68278936Y-94717368D01*
X68733064Y-93247368D02*
X68278936Y-93247368D01*
%TO.C,R14*%
X68733064Y-114783368D02*
X68278936Y-114783368D01*
X68733064Y-113313368D02*
X68278936Y-113313368D01*
%TO.C,R7*%
X93762258Y-131728868D02*
X93287742Y-131728868D01*
X93762258Y-130683868D02*
X93287742Y-130683868D01*
%TO.C,R16*%
X68733064Y-134862368D02*
X68278936Y-134862368D01*
X68733064Y-133392368D02*
X68278936Y-133392368D01*
%TD*%
M02*
