M48
; DRILL file {KiCad 7.0.5} date Fri Jul  7 20:14:56 2023
; FORMAT={-:-/ absolute / inch / decimal}
; #@! TF.CreationDate,2023-07-07T20:14:56+07:00
; #@! TF.GenerationSoftware,Kicad,Pcbnew,7.0.5
; #@! TF.FileFunction,Plated,1,2,PTH
FMAT,2
INCH
; #@! TA.AperFunction,Plated,PTH,ComponentDrill
T1C0.0079
; #@! TA.AperFunction,Plated,PTH,ViaDrill
T2C0.0157
; #@! TA.AperFunction,Plated,PTH,ComponentDrill
T3C0.0217
; #@! TA.AperFunction,Plated,PTH,ComponentDrill
T4C0.0315
; #@! TA.AperFunction,Plated,PTH,ComponentDrill
T5C0.0335
; #@! TA.AperFunction,Plated,PTH,ComponentDrill
T6C0.0374
; #@! TA.AperFunction,Plated,PTH,ComponentDrill
T7C0.0394
; #@! TA.AperFunction,Plated,PTH,ComponentDrill
T8C0.0512
%
G90
G05
T1
X3.503Y-4.094
X3.503Y-4.1491
X3.5306Y-4.0664
X3.5306Y-4.1215
X3.5306Y-4.1767
X3.5581Y-4.094
X3.5581Y-4.1491
X3.5857Y-4.0664
X3.5857Y-4.1215
X3.5857Y-4.1767
X3.6133Y-4.094
X3.6133Y-4.1491
T2
X2.0971Y-3.2406
X2.0971Y-3.3406
X2.1471Y-3.2906
X2.1971Y-3.2406
X2.1971Y-3.3406
X2.2471Y-3.2906
X2.2971Y-3.2406
X2.2971Y-3.3406
X2.3471Y-3.2906
X2.3971Y-3.3406
X2.4471Y-2.9406
X2.4471Y-5.7006
X2.4471Y-5.7506
X2.4971Y-5.7506
X2.5471Y-3.1406
X2.5471Y-3.2406
X2.5471Y-5.7506
X2.5671Y-3.9806
X2.5671Y-4.768
X2.5671Y-5.5606
X2.5971Y-2.9906
X2.5971Y-3.0906
X2.5971Y-3.1906
X2.5971Y-3.2906
X2.5971Y-5.7006
X2.5971Y-5.7506
X2.6471Y-5.7006
X2.6471Y-5.7506
X2.6871Y-2.3506
X2.6871Y-2.3906
X2.6971Y-5.7006
X2.6971Y-5.7506
X2.7271Y-2.3506
X2.7271Y-2.3906
X2.7471Y-5.7006
X2.7471Y-5.7506
X2.7971Y-5.6506
X2.7971Y-5.7506
X2.8171Y-3.3756
X2.8471Y-5.5006
X2.8471Y-5.6006
X2.8471Y-5.7006
X2.8771Y-3.3756
X2.8971Y-5.5506
X2.8971Y-5.6506
X2.8971Y-5.7506
X2.9471Y-5.5006
X2.9471Y-5.6006
X2.9471Y-5.7006
X2.9971Y-2.1006
X2.9971Y-5.5506
X2.9971Y-5.6506
X2.9971Y-5.7506
X3.0471Y-2.1506
X3.0471Y-5.5006
X3.0471Y-5.6006
X3.0471Y-5.7006
X3.0971Y-2.1006
X3.0971Y-5.5506
X3.0971Y-5.6506
X3.0971Y-5.7506
X3.1021Y-3.2406
X3.1021Y-3.2806
X3.1421Y-3.2406
X3.1421Y-3.2806
X3.1471Y-2.1506
X3.1471Y-2.6006
X3.1471Y-3.8506
X3.1471Y-3.9006
X3.1471Y-4.7084
X3.1471Y-5.7006
X3.1571Y-5.0856
X3.1771Y-4.6156
X3.1971Y-2.1006
X3.1971Y-2.6006
X3.1971Y-5.7506
X3.2459Y-5.0056
X3.2471Y-2.1506
X3.2471Y-2.6006
X3.2971Y-2.1006
X3.2971Y-2.6006
X3.3021Y-5.4556
X3.3125Y-4.616
X3.3371Y-2.4716
X3.3371Y-4.7544
X3.3461Y-5.4556
X3.3471Y-2.1506
X3.3471Y-3.4006
X3.3471Y-3.4506
X3.3471Y-3.5006
X3.3471Y-3.6006
X3.3971Y-2.1006
X3.3971Y-3.2006
X3.3971Y-3.4006
X3.3971Y-3.4506
X3.3971Y-3.5006
X3.3971Y-3.6006
X3.4112Y-4.7244
X3.4471Y-2.1506
X3.4471Y-3.5006
X3.4471Y-3.6006
X3.4621Y-5.2706
X3.4625Y-5.456
X3.4789Y-5.0776
X3.4971Y-2.1006
X3.5471Y-2.1506
X3.5471Y-3.1006
X3.5471Y-3.6968
X3.5471Y-3.7506
X3.5971Y-2.1006
X3.5971Y-2.7506
X3.5971Y-2.8506
X3.5971Y-2.9506
X3.5971Y-3.0506
X3.5971Y-3.1506
X3.6231Y-3.6606
X3.6471Y-2.1506
X3.6471Y-2.8006
X3.6471Y-2.9006
X3.6471Y-3.0006
X3.6471Y-3.1006
X3.6971Y-2.1006
X3.6971Y-2.7506
X3.6971Y-2.9506
X3.6971Y-3.0506
X3.7471Y-2.1506
X3.7471Y-2.7506
X3.7471Y-3.0006
X3.7471Y-3.1006
X3.7471Y-3.4006
X3.7521Y-3.6896
X3.7891Y-3.5676
X3.7941Y-4.7886
X3.7971Y-2.1906
X3.7971Y-2.2406
X3.7971Y-2.7506
X3.7971Y-2.9506
X3.7971Y-3.0506
X3.7971Y-3.4006
X3.8471Y-2.1906
X3.8471Y-2.2406
X3.8471Y-2.7006
X3.8471Y-2.7506
X3.8471Y-2.9506
X3.8471Y-3.0006
X3.8471Y-3.0506
X3.8471Y-3.4006
X3.8471Y-3.5006
X3.8471Y-3.5506
T4
X1.7239Y-3.9059
X1.7239Y-4.6959
X1.7239Y-5.4832
X1.7305Y-3.2577
X1.8971Y-3.6106
X1.8971Y-4.4006
X1.8971Y-5.188
X1.9037Y-2.9625
X2.6619Y-3.4852
X2.6619Y-3.7852
X2.6619Y-4.2752
X2.6619Y-4.5752
X2.6619Y-5.0652
X2.6619Y-5.3652
X2.7619Y-3.4852
X2.7619Y-3.7852
X2.7619Y-4.2752
X2.7619Y-4.5752
X2.7619Y-5.0652
X2.7619Y-5.3652
T6
X2.9653Y-3.5588
X2.9653Y-3.6572
X2.9653Y-3.7556
X2.9653Y-3.854
X2.9653Y-3.9525
X3.7921Y-5.0032
X3.7921Y-5.1017
X3.7921Y-5.2001
X3.7921Y-5.2985
T7
X2.0471Y-3.5806
X2.0471Y-4.3706
X2.0471Y-5.1577
X2.5195Y-3.5806
X2.5195Y-4.3706
X2.5195Y-5.1577
T8
X1.3271Y-2.8508
X1.3271Y-3.2256
X1.3271Y-3.6408
X1.3271Y-4.0156
X1.3271Y-4.4308
X1.3271Y-4.8056
X1.3271Y-5.2208
X1.3271Y-5.5956
X2.0471Y-4.0609
X2.0471Y-4.8509
X2.0471Y-5.638
X2.2853Y-3.5038
X2.2853Y-4.2938
X2.2853Y-5.081
X2.5215Y-4.0629
X2.5215Y-4.8529
X2.5215Y-5.64
T3
G00X3.302Y-5.6823
M15
G01X3.302Y-5.7079
M16
G05
G00X3.6071Y-5.6823
M15
G01X3.6071Y-5.7079
M16
G05
T5
G00X3.3079Y-5.5347
M15
G01X3.3079Y-5.5563
M16
G05
G00X3.6012Y-5.5347
M15
G01X3.6012Y-5.5563
M16
G05
T7
G00X1.4421Y-2.333
M15
G01X1.4421Y-2.4118
M16
G05
G00X1.5208Y-2.5574
M15
G01X1.5996Y-2.5574
M16
G05
G00X1.6783Y-2.333
M15
G01X1.6783Y-2.4118
M16
G05
T0
M30
